solid OpenSCAD_Model
  facet normal 0.997289 0.0735901 0
    outer loop
      vertex 24.9699 1.22669 5
      vertex 24.8796 2.45043 0
      vertex 24.8796 2.45043 5
    endloop
  endfacet
  facet normal 0.997289 0.0735901 0
    outer loop
      vertex 24.8796 2.45043 0
      vertex 24.9699 1.22669 5
      vertex 24.9699 1.22669 0
    endloop
  endfacet
  facet normal 0.999699 0.0245302 0
    outer loop
      vertex 25 0 5
      vertex 24.9699 1.22669 0
      vertex 24.9699 1.22669 5
    endloop
  endfacet
  facet normal 0.999699 0.0245302 0
    outer loop
      vertex 24.9699 1.22669 0
      vertex 25 0 5
      vertex 25 0 0
    endloop
  endfacet
  facet normal 0.99248 0.122407 0
    outer loop
      vertex 24.8796 2.45043 5
      vertex 24.7294 3.66826 0
      vertex 24.7294 3.66826 5
    endloop
  endfacet
  facet normal 0.99248 0.122407 0
    outer loop
      vertex 24.7294 3.66826 0
      vertex 24.8796 2.45043 5
      vertex 24.8796 2.45043 0
    endloop
  endfacet
  facet normal 0.844847 -0.535007 0
    outer loop
      vertex 20.7867 -13.8893 5
      vertex 21.4432 -12.8526 0
      vertex 21.4432 -12.8526 5
    endloop
  endfacet
  facet normal 0.844847 -0.535007 0
    outer loop
      vertex 21.4432 -12.8526 0
      vertex 20.7867 -13.8893 5
      vertex 20.7867 -13.8893 0
    endloop
  endfacet
  facet normal 0.870103 0.492871 0
    outer loop
      vertex 22.048 11.7849 5
      vertex 21.4432 12.8526 0
      vertex 21.4432 12.8526 5
    endloop
  endfacet
  facet normal 0.870103 0.492871 0
    outer loop
      vertex 21.4432 12.8526 0
      vertex 22.048 11.7849 5
      vertex 22.048 11.7849 0
    endloop
  endfacet
  facet normal -0.122407 -0.99248 0
    outer loop
      vertex -3.66826 -24.7294 0
      vertex -2.45043 -24.8796 5
      vertex -3.66826 -24.7294 5
    endloop
  endfacet
  facet normal -0.122407 -0.99248 -0
    outer loop
      vertex -2.45043 -24.8796 5
      vertex -3.66826 -24.7294 0
      vertex -2.45043 -24.8796 0
    endloop
  endfacet
  facet normal 0.0735901 -0.997289 0
    outer loop
      vertex 1.22669 -24.9699 0
      vertex 2.45043 -24.8796 5
      vertex 1.22669 -24.9699 5
    endloop
  endfacet
  facet normal 0.0735901 -0.997289 0
    outer loop
      vertex 2.45043 -24.8796 5
      vertex 1.22669 -24.9699 0
      vertex 2.45043 -24.8796 0
    endloop
  endfacet
  facet normal -0.0245302 -0.999699 0
    outer loop
      vertex -1.22669 -24.9699 0
      vertex 0 -25 5
      vertex -1.22669 -24.9699 5
    endloop
  endfacet
  facet normal -0.0245302 -0.999699 -0
    outer loop
      vertex 0 -25 5
      vertex -1.22669 -24.9699 0
      vertex 0 -25 0
    endloop
  endfacet
  facet normal 0.0735901 0.997289 -0
    outer loop
      vertex 2.45043 24.8796 0
      vertex 1.22669 24.9699 5
      vertex 2.45043 24.8796 5
    endloop
  endfacet
  facet normal 0.0735901 0.997289 0
    outer loop
      vertex 1.22669 24.9699 5
      vertex 2.45043 24.8796 0
      vertex 1.22669 24.9699 0
    endloop
  endfacet
  facet normal 0.405266 0.914199 -0
    outer loop
      vertex 10.6889 22.5997 0
      vertex 9.56709 23.097 5
      vertex 10.6889 22.5997 5
    endloop
  endfacet
  facet normal 0.405266 0.914199 0
    outer loop
      vertex 9.56709 23.097 5
      vertex 10.6889 22.5997 0
      vertex 9.56709 23.097 0
    endloop
  endfacet
  facet normal -0.985275 -0.170977 0
    outer loop
      vertex -24.5196 -4.87726 0
      vertex -24.7294 -3.66826 5
      vertex -24.7294 -3.66826 0
    endloop
  endfacet
  facet normal -0.985275 -0.170977 0
    outer loop
      vertex -24.7294 -3.66826 5
      vertex -24.5196 -4.87726 0
      vertex -24.5196 -4.87726 5
    endloop
  endfacet
  facet normal 0.615238 -0.788342 0
    outer loop
      vertex 14.8925 -20.0802 0
      vertex 15.8598 -19.3253 5
      vertex 14.8925 -20.0802 5
    endloop
  endfacet
  facet normal 0.615238 -0.788342 0
    outer loop
      vertex 15.8598 -19.3253 5
      vertex 14.8925 -20.0802 0
      vertex 15.8598 -19.3253 0
    endloop
  endfacet
  facet normal -0.999699 -0.0245302 0
    outer loop
      vertex -24.9699 -1.22669 0
      vertex -25 0 5
      vertex -25 0 0
    endloop
  endfacet
  facet normal -0.999699 -0.0245302 0
    outer loop
      vertex -25 0 5
      vertex -24.9699 -1.22669 0
      vertex -24.9699 -1.22669 5
    endloop
  endfacet
  facet normal 0.757222 -0.653157 0
    outer loop
      vertex 18.5238 -16.789 5
      vertex 19.3253 -15.8598 0
      vertex 19.3253 -15.8598 5
    endloop
  endfacet
  facet normal 0.757222 -0.653157 0
    outer loop
      vertex 19.3253 -15.8598 0
      vertex 18.5238 -16.789 5
      vertex 18.5238 -16.789 0
    endloop
  endfacet
  facet normal 0.788342 -0.615238 0
    outer loop
      vertex 19.3253 -15.8598 5
      vertex 20.0802 -14.8925 0
      vertex 20.0802 -14.8925 5
    endloop
  endfacet
  facet normal 0.788342 -0.615238 0
    outer loop
      vertex 20.0802 -14.8925 0
      vertex 19.3253 -15.8598 5
      vertex 19.3253 -15.8598 0
    endloop
  endfacet
  facet normal 0.359885 0.932996 -0
    outer loop
      vertex 9.56709 23.097 0
      vertex 8.42225 23.5386 5
      vertex 9.56709 23.097 5
    endloop
  endfacet
  facet normal 0.359885 0.932996 0
    outer loop
      vertex 8.42225 23.5386 5
      vertex 9.56709 23.097 0
      vertex 8.42225 23.5386 0
    endloop
  endfacet
  facet normal 0.99248 -0.122407 0
    outer loop
      vertex 24.7294 -3.66826 5
      vertex 24.8796 -2.45043 0
      vertex 24.8796 -2.45043 5
    endloop
  endfacet
  facet normal 0.99248 -0.122407 0
    outer loop
      vertex 24.8796 -2.45043 0
      vertex 24.7294 -3.66826 5
      vertex 24.7294 -3.66826 0
    endloop
  endfacet
  facet normal 0.997289 -0.0735901 0
    outer loop
      vertex 24.8796 -2.45043 5
      vertex 24.9699 -1.22669 0
      vertex 24.9699 -1.22669 5
    endloop
  endfacet
  facet normal 0.997289 -0.0735901 0
    outer loop
      vertex 24.9699 -1.22669 0
      vertex 24.8796 -2.45043 5
      vertex 24.8796 -2.45043 0
    endloop
  endfacet
  facet normal 0.0245302 -0.999699 0
    outer loop
      vertex 0 -25 0
      vertex 1.22669 -24.9699 5
      vertex 0 -25 5
    endloop
  endfacet
  facet normal 0.0245302 -0.999699 0
    outer loop
      vertex 1.22669 -24.9699 5
      vertex 0 -25 0
      vertex 1.22669 -24.9699 0
    endloop
  endfacet
  facet normal -0.999699 0.0245302 0
    outer loop
      vertex -25 0 0
      vertex -24.9699 1.22669 5
      vertex -24.9699 1.22669 0
    endloop
  endfacet
  facet normal -0.999699 0.0245302 0
    outer loop
      vertex -24.9699 1.22669 5
      vertex -25 0 0
      vertex -25 0 5
    endloop
  endfacet
  facet normal -0.932996 0.359885 0
    outer loop
      vertex -23.5386 8.42225 0
      vertex -23.097 9.56709 5
      vertex -23.097 9.56709 0
    endloop
  endfacet
  facet normal -0.932996 0.359885 0
    outer loop
      vertex -23.097 9.56709 5
      vertex -23.5386 8.42225 0
      vertex -23.5386 8.42225 5
    endloop
  endfacet
  facet normal -0.94953 0.313677 0
    outer loop
      vertex -23.9235 7.25712 0
      vertex -23.5386 8.42225 5
      vertex -23.5386 8.42225 0
    endloop
  endfacet
  facet normal -0.94953 0.313677 0
    outer loop
      vertex -23.5386 8.42225 5
      vertex -23.9235 7.25712 0
      vertex -23.9235 7.25712 5
    endloop
  endfacet
  facet normal -0.975711 -0.219063 0
    outer loop
      vertex -24.2508 -6.0745 0
      vertex -24.5196 -4.87726 5
      vertex -24.5196 -4.87726 0
    endloop
  endfacet
  facet normal -0.975711 -0.219063 0
    outer loop
      vertex -24.5196 -4.87726 5
      vertex -24.2508 -6.0745 0
      vertex -24.2508 -6.0745 5
    endloop
  endfacet
  facet normal -0.757222 -0.653157 0
    outer loop
      vertex -18.5238 -16.789 0
      vertex -19.3253 -15.8598 5
      vertex -19.3253 -15.8598 0
    endloop
  endfacet
  facet normal -0.757222 -0.653157 0
    outer loop
      vertex -19.3253 -15.8598 5
      vertex -18.5238 -16.789 0
      vertex -18.5238 -16.789 5
    endloop
  endfacet
  facet normal 0.932996 0.359885 0
    outer loop
      vertex 23.5386 8.42225 5
      vertex 23.097 9.56709 0
      vertex 23.097 9.56709 5
    endloop
  endfacet
  facet normal 0.932996 0.359885 0
    outer loop
      vertex 23.097 9.56709 0
      vertex 23.5386 8.42225 5
      vertex 23.5386 8.42225 0
    endloop
  endfacet
  facet normal 0.893218 0.449624 0
    outer loop
      vertex 22.5997 10.6889 5
      vertex 22.048 11.7849 0
      vertex 22.048 11.7849 5
    endloop
  endfacet
  facet normal 0.893218 0.449624 0
    outer loop
      vertex 22.048 11.7849 0
      vertex 22.5997 10.6889 5
      vertex 22.5997 10.6889 0
    endloop
  endfacet
  facet normal 0.653157 0.757222 -0
    outer loop
      vertex 16.789 18.5238 0
      vertex 15.8598 19.3253 5
      vertex 16.789 18.5238 5
    endloop
  endfacet
  facet normal 0.653157 0.757222 0
    outer loop
      vertex 15.8598 19.3253 5
      vertex 16.789 18.5238 0
      vertex 15.8598 19.3253 0
    endloop
  endfacet
  facet normal -0.492871 0.870103 0
    outer loop
      vertex -11.7849 22.048 0
      vertex -12.8526 21.4432 5
      vertex -11.7849 22.048 5
    endloop
  endfacet
  facet normal -0.492871 0.870103 0
    outer loop
      vertex -12.8526 21.4432 5
      vertex -11.7849 22.048 0
      vertex -12.8526 21.4432 0
    endloop
  endfacet
  facet normal 0.844847 0.535007 0
    outer loop
      vertex 21.4432 12.8526 5
      vertex 20.7867 13.8893 0
      vertex 20.7867 13.8893 5
    endloop
  endfacet
  facet normal 0.844847 0.535007 0
    outer loop
      vertex 20.7867 13.8893 0
      vertex 21.4432 12.8526 5
      vertex 21.4432 12.8526 0
    endloop
  endfacet
  facet normal -0.359885 0.932996 0
    outer loop
      vertex -8.42225 23.5386 0
      vertex -9.56709 23.097 5
      vertex -8.42225 23.5386 5
    endloop
  endfacet
  facet normal -0.359885 0.932996 0
    outer loop
      vertex -9.56709 23.097 5
      vertex -8.42225 23.5386 0
      vertex -9.56709 23.097 0
    endloop
  endfacet
  facet normal 0.535007 0.844847 -0
    outer loop
      vertex 13.8893 20.7867 0
      vertex 12.8526 21.4432 5
      vertex 13.8893 20.7867 5
    endloop
  endfacet
  facet normal 0.535007 0.844847 0
    outer loop
      vertex 12.8526 21.4432 5
      vertex 13.8893 20.7867 0
      vertex 12.8526 21.4432 0
    endloop
  endfacet
  facet normal 0.724252 -0.689535 0
    outer loop
      vertex 17.6777 -17.6777 5
      vertex 18.5238 -16.789 0
      vertex 18.5238 -16.789 5
    endloop
  endfacet
  facet normal 0.724252 -0.689535 0
    outer loop
      vertex 18.5238 -16.789 0
      vertex 17.6777 -17.6777 5
      vertex 17.6777 -17.6777 0
    endloop
  endfacet
  facet normal -0.844847 0.535007 0
    outer loop
      vertex -21.4432 12.8526 0
      vertex -20.7867 13.8893 5
      vertex -20.7867 13.8893 0
    endloop
  endfacet
  facet normal -0.844847 0.535007 0
    outer loop
      vertex -20.7867 13.8893 5
      vertex -21.4432 12.8526 0
      vertex -21.4432 12.8526 5
    endloop
  endfacet
  facet normal 0.963771 0.266732 0
    outer loop
      vertex 24.2508 6.0745 5
      vertex 23.9235 7.25712 0
      vertex 23.9235 7.25712 5
    endloop
  endfacet
  facet normal 0.963771 0.266732 0
    outer loop
      vertex 23.9235 7.25712 0
      vertex 24.2508 6.0745 5
      vertex 24.2508 6.0745 0
    endloop
  endfacet
  facet normal 0.219063 0.975711 -0
    outer loop
      vertex 6.0745 24.2508 0
      vertex 4.87726 24.5196 5
      vertex 6.0745 24.2508 5
    endloop
  endfacet
  facet normal 0.219063 0.975711 0
    outer loop
      vertex 4.87726 24.5196 5
      vertex 6.0745 24.2508 0
      vertex 4.87726 24.5196 0
    endloop
  endfacet
  facet normal -0.615238 0.788342 0
    outer loop
      vertex -14.8925 20.0802 0
      vertex -15.8598 19.3253 5
      vertex -14.8925 20.0802 5
    endloop
  endfacet
  facet normal -0.615238 0.788342 0
    outer loop
      vertex -15.8598 19.3253 5
      vertex -14.8925 20.0802 0
      vertex -15.8598 19.3253 0
    endloop
  endfacet
  facet normal 0.94953 -0.313677 0
    outer loop
      vertex 23.5386 -8.42225 5
      vertex 23.9235 -7.25712 0
      vertex 23.9235 -7.25712 5
    endloop
  endfacet
  facet normal 0.94953 -0.313677 0
    outer loop
      vertex 23.9235 -7.25712 0
      vertex 23.5386 -8.42225 5
      vertex 23.5386 -8.42225 0
    endloop
  endfacet
  facet normal 0.449624 0.893218 -0
    outer loop
      vertex 11.7849 22.048 0
      vertex 10.6889 22.5997 5
      vertex 11.7849 22.048 5
    endloop
  endfacet
  facet normal 0.449624 0.893218 0
    outer loop
      vertex 10.6889 22.5997 5
      vertex 11.7849 22.048 0
      vertex 10.6889 22.5997 0
    endloop
  endfacet
  facet normal -0.170977 0.985275 0
    outer loop
      vertex -3.66826 24.7294 0
      vertex -4.87726 24.5196 5
      vertex -3.66826 24.7294 5
    endloop
  endfacet
  facet normal -0.170977 0.985275 0
    outer loop
      vertex -4.87726 24.5196 5
      vertex -3.66826 24.7294 0
      vertex -4.87726 24.5196 0
    endloop
  endfacet
  facet normal -0.99248 0.122407 0
    outer loop
      vertex -24.8796 2.45043 0
      vertex -24.7294 3.66826 5
      vertex -24.7294 3.66826 0
    endloop
  endfacet
  facet normal -0.99248 0.122407 0
    outer loop
      vertex -24.7294 3.66826 5
      vertex -24.8796 2.45043 0
      vertex -24.8796 2.45043 5
    endloop
  endfacet
  facet normal -0.893218 0.449624 0
    outer loop
      vertex -22.5997 10.6889 0
      vertex -22.048 11.7849 5
      vertex -22.048 11.7849 0
    endloop
  endfacet
  facet normal -0.893218 0.449624 0
    outer loop
      vertex -22.048 11.7849 5
      vertex -22.5997 10.6889 0
      vertex -22.5997 10.6889 5
    endloop
  endfacet
  facet normal 0.757222 0.653157 0
    outer loop
      vertex 19.3253 15.8598 5
      vertex 18.5238 16.789 0
      vertex 18.5238 16.789 5
    endloop
  endfacet
  facet normal 0.757222 0.653157 0
    outer loop
      vertex 18.5238 16.789 0
      vertex 19.3253 15.8598 5
      vertex 19.3253 15.8598 0
    endloop
  endfacet
  facet normal 0.985275 0.170977 0
    outer loop
      vertex 24.7294 3.66826 5
      vertex 24.5196 4.87726 0
      vertex 24.5196 4.87726 5
    endloop
  endfacet
  facet normal 0.985275 0.170977 0
    outer loop
      vertex 24.5196 4.87726 0
      vertex 24.7294 3.66826 5
      vertex 24.7294 3.66826 0
    endloop
  endfacet
  facet normal 0.975711 -0.219063 0
    outer loop
      vertex 24.2508 -6.0745 5
      vertex 24.5196 -4.87726 0
      vertex 24.5196 -4.87726 5
    endloop
  endfacet
  facet normal 0.975711 -0.219063 0
    outer loop
      vertex 24.5196 -4.87726 0
      vertex 24.2508 -6.0745 5
      vertex 24.2508 -6.0745 0
    endloop
  endfacet
  facet normal 0.405266 -0.914199 0
    outer loop
      vertex 9.56709 -23.097 0
      vertex 10.6889 -22.5997 5
      vertex 9.56709 -23.097 5
    endloop
  endfacet
  facet normal 0.405266 -0.914199 0
    outer loop
      vertex 10.6889 -22.5997 5
      vertex 9.56709 -23.097 0
      vertex 10.6889 -22.5997 0
    endloop
  endfacet
  facet normal -0.844847 -0.535007 0
    outer loop
      vertex -20.7867 -13.8893 0
      vertex -21.4432 -12.8526 5
      vertex -21.4432 -12.8526 0
    endloop
  endfacet
  facet normal -0.844847 -0.535007 0
    outer loop
      vertex -21.4432 -12.8526 5
      vertex -20.7867 -13.8893 0
      vertex -20.7867 -13.8893 5
    endloop
  endfacet
  facet normal -0.359885 -0.932996 0
    outer loop
      vertex -9.56709 -23.097 0
      vertex -8.42225 -23.5386 5
      vertex -9.56709 -23.097 5
    endloop
  endfacet
  facet normal -0.359885 -0.932996 -0
    outer loop
      vertex -8.42225 -23.5386 5
      vertex -9.56709 -23.097 0
      vertex -8.42225 -23.5386 0
    endloop
  endfacet
  facet normal 0.122407 0.99248 -0
    outer loop
      vertex 3.66826 24.7294 0
      vertex 2.45043 24.8796 5
      vertex 3.66826 24.7294 5
    endloop
  endfacet
  facet normal 0.122407 0.99248 0
    outer loop
      vertex 2.45043 24.8796 5
      vertex 3.66826 24.7294 0
      vertex 2.45043 24.8796 0
    endloop
  endfacet
  facet normal -0.870103 -0.492871 0
    outer loop
      vertex -21.4432 -12.8526 0
      vertex -22.048 -11.7849 5
      vertex -22.048 -11.7849 0
    endloop
  endfacet
  facet normal -0.870103 -0.492871 0
    outer loop
      vertex -22.048 -11.7849 5
      vertex -21.4432 -12.8526 0
      vertex -21.4432 -12.8526 5
    endloop
  endfacet
  facet normal 0.653157 -0.757222 0
    outer loop
      vertex 15.8598 -19.3253 0
      vertex 16.789 -18.5238 5
      vertex 15.8598 -19.3253 5
    endloop
  endfacet
  facet normal 0.653157 -0.757222 0
    outer loop
      vertex 16.789 -18.5238 5
      vertex 15.8598 -19.3253 0
      vertex 16.789 -18.5238 0
    endloop
  endfacet
  facet normal 0.266732 -0.963771 0
    outer loop
      vertex 6.0745 -24.2508 0
      vertex 7.25712 -23.9235 5
      vertex 6.0745 -24.2508 5
    endloop
  endfacet
  facet normal 0.266732 -0.963771 0
    outer loop
      vertex 7.25712 -23.9235 5
      vertex 6.0745 -24.2508 0
      vertex 7.25712 -23.9235 0
    endloop
  endfacet
  facet normal -0.932996 -0.359885 0
    outer loop
      vertex -23.097 -9.56709 0
      vertex -23.5386 -8.42225 5
      vertex -23.5386 -8.42225 0
    endloop
  endfacet
  facet normal -0.932996 -0.359885 0
    outer loop
      vertex -23.5386 -8.42225 5
      vertex -23.097 -9.56709 0
      vertex -23.097 -9.56709 5
    endloop
  endfacet
  facet normal 0.57579 0.817598 -0
    outer loop
      vertex 14.8925 20.0802 0
      vertex 13.8893 20.7867 5
      vertex 14.8925 20.0802 5
    endloop
  endfacet
  facet normal 0.57579 0.817598 0
    outer loop
      vertex 13.8893 20.7867 5
      vertex 14.8925 20.0802 0
      vertex 13.8893 20.7867 0
    endloop
  endfacet
  facet normal -0.914199 0.405266 0
    outer loop
      vertex -23.097 9.56709 0
      vertex -22.5997 10.6889 5
      vertex -22.5997 10.6889 0
    endloop
  endfacet
  facet normal -0.914199 0.405266 0
    outer loop
      vertex -22.5997 10.6889 5
      vertex -23.097 9.56709 0
      vertex -23.097 9.56709 5
    endloop
  endfacet
  facet normal 0.449624 -0.893218 0
    outer loop
      vertex 10.6889 -22.5997 0
      vertex 11.7849 -22.048 5
      vertex 10.6889 -22.5997 5
    endloop
  endfacet
  facet normal 0.449624 -0.893218 0
    outer loop
      vertex 11.7849 -22.048 5
      vertex 10.6889 -22.5997 0
      vertex 11.7849 -22.048 0
    endloop
  endfacet
  facet normal -0.122407 0.99248 0
    outer loop
      vertex -2.45043 24.8796 0
      vertex -3.66826 24.7294 5
      vertex -2.45043 24.8796 5
    endloop
  endfacet
  facet normal -0.122407 0.99248 0
    outer loop
      vertex -3.66826 24.7294 5
      vertex -2.45043 24.8796 0
      vertex -3.66826 24.7294 0
    endloop
  endfacet
  facet normal -0.914199 -0.405266 0
    outer loop
      vertex -22.5997 -10.6889 0
      vertex -23.097 -9.56709 5
      vertex -23.097 -9.56709 0
    endloop
  endfacet
  facet normal -0.914199 -0.405266 0
    outer loop
      vertex -23.097 -9.56709 5
      vertex -22.5997 -10.6889 0
      vertex -22.5997 -10.6889 5
    endloop
  endfacet
  facet normal 0.492871 0.870103 -0
    outer loop
      vertex 12.8526 21.4432 0
      vertex 11.7849 22.048 5
      vertex 12.8526 21.4432 5
    endloop
  endfacet
  facet normal 0.492871 0.870103 0
    outer loop
      vertex 11.7849 22.048 5
      vertex 12.8526 21.4432 0
      vertex 11.7849 22.048 0
    endloop
  endfacet
  facet normal 0.615238 0.788342 -0
    outer loop
      vertex 15.8598 19.3253 0
      vertex 14.8925 20.0802 5
      vertex 15.8598 19.3253 5
    endloop
  endfacet
  facet normal 0.615238 0.788342 0
    outer loop
      vertex 14.8925 20.0802 5
      vertex 15.8598 19.3253 0
      vertex 14.8925 20.0802 0
    endloop
  endfacet
  facet normal -0.57579 0.817598 0
    outer loop
      vertex -13.8893 20.7867 0
      vertex -14.8925 20.0802 5
      vertex -13.8893 20.7867 5
    endloop
  endfacet
  facet normal -0.57579 0.817598 0
    outer loop
      vertex -14.8925 20.0802 5
      vertex -13.8893 20.7867 0
      vertex -14.8925 20.0802 0
    endloop
  endfacet
  facet normal 0.932996 -0.359885 0
    outer loop
      vertex 23.097 -9.56709 5
      vertex 23.5386 -8.42225 0
      vertex 23.5386 -8.42225 5
    endloop
  endfacet
  facet normal 0.932996 -0.359885 0
    outer loop
      vertex 23.5386 -8.42225 0
      vertex 23.097 -9.56709 5
      vertex 23.097 -9.56709 0
    endloop
  endfacet
  facet normal -0.219063 0.975711 0
    outer loop
      vertex -4.87726 24.5196 0
      vertex -6.0745 24.2508 5
      vertex -4.87726 24.5196 5
    endloop
  endfacet
  facet normal -0.219063 0.975711 0
    outer loop
      vertex -6.0745 24.2508 5
      vertex -4.87726 24.5196 0
      vertex -6.0745 24.2508 0
    endloop
  endfacet
  facet normal 0.492871 -0.870103 0
    outer loop
      vertex 11.7849 -22.048 0
      vertex 12.8526 -21.4432 5
      vertex 11.7849 -22.048 5
    endloop
  endfacet
  facet normal 0.492871 -0.870103 0
    outer loop
      vertex 12.8526 -21.4432 5
      vertex 11.7849 -22.048 0
      vertex 12.8526 -21.4432 0
    endloop
  endfacet
  facet normal -0.0735901 0.997289 0
    outer loop
      vertex -1.22669 24.9699 0
      vertex -2.45043 24.8796 5
      vertex -1.22669 24.9699 5
    endloop
  endfacet
  facet normal -0.0735901 0.997289 0
    outer loop
      vertex -2.45043 24.8796 5
      vertex -1.22669 24.9699 0
      vertex -2.45043 24.8796 0
    endloop
  endfacet
  facet normal 0 0 -1
    outer loop
      vertex 24.9699 -1.22669 0
      vertex 24.9699 1.22669 0
      vertex 25 0 0
    endloop
  endfacet
  facet normal 0 0 -1
    outer loop
      vertex 24.8796 -2.45043 0
      vertex 24.9699 1.22669 0
      vertex 24.9699 -1.22669 0
    endloop
  endfacet
  facet normal 0 0 -1
    outer loop
      vertex 24.8796 -2.45043 0
      vertex 24.8796 2.45043 0
      vertex 24.9699 1.22669 0
    endloop
  endfacet
  facet normal 0 0 -1
    outer loop
      vertex 24.7294 -3.66826 0
      vertex 24.8796 2.45043 0
      vertex 24.8796 -2.45043 0
    endloop
  endfacet
  facet normal 0 0 -1
    outer loop
      vertex 24.7294 -3.66826 0
      vertex 24.7294 3.66826 0
      vertex 24.8796 2.45043 0
    endloop
  endfacet
  facet normal 0 0 -1
    outer loop
      vertex 24.5196 -4.87726 0
      vertex 24.7294 3.66826 0
      vertex 24.7294 -3.66826 0
    endloop
  endfacet
  facet normal 0 0 -1
    outer loop
      vertex 24.5196 -4.87726 0
      vertex 24.5196 4.87726 0
      vertex 24.7294 3.66826 0
    endloop
  endfacet
  facet normal 0 0 -1
    outer loop
      vertex 24.2508 -6.0745 0
      vertex 24.5196 4.87726 0
      vertex 24.5196 -4.87726 0
    endloop
  endfacet
  facet normal 0 0 -1
    outer loop
      vertex 24.2508 -6.0745 0
      vertex 24.2508 6.0745 0
      vertex 24.5196 4.87726 0
    endloop
  endfacet
  facet normal 0 0 -1
    outer loop
      vertex 23.9235 -7.25712 0
      vertex 24.2508 6.0745 0
      vertex 24.2508 -6.0745 0
    endloop
  endfacet
  facet normal 0 0 -1
    outer loop
      vertex 23.9235 -7.25712 0
      vertex 23.9235 7.25712 0
      vertex 24.2508 6.0745 0
    endloop
  endfacet
  facet normal 0 0 -1
    outer loop
      vertex 23.5386 -8.42225 0
      vertex 23.9235 7.25712 0
      vertex 23.9235 -7.25712 0
    endloop
  endfacet
  facet normal 0 0 -1
    outer loop
      vertex 23.5386 -8.42225 0
      vertex 23.5386 8.42225 0
      vertex 23.9235 7.25712 0
    endloop
  endfacet
  facet normal 0 0 -1
    outer loop
      vertex 23.097 -9.56709 0
      vertex 23.5386 8.42225 0
      vertex 23.5386 -8.42225 0
    endloop
  endfacet
  facet normal 0 0 -1
    outer loop
      vertex 23.097 -9.56709 0
      vertex 23.097 9.56709 0
      vertex 23.5386 8.42225 0
    endloop
  endfacet
  facet normal 0 0 -1
    outer loop
      vertex 22.5997 -10.6889 0
      vertex 23.097 9.56709 0
      vertex 23.097 -9.56709 0
    endloop
  endfacet
  facet normal 0 0 -1
    outer loop
      vertex 22.5997 -10.6889 0
      vertex 22.5997 10.6889 0
      vertex 23.097 9.56709 0
    endloop
  endfacet
  facet normal 0 0 -1
    outer loop
      vertex 22.048 -11.7849 0
      vertex 22.5997 10.6889 0
      vertex 22.5997 -10.6889 0
    endloop
  endfacet
  facet normal 0 0 -1
    outer loop
      vertex 22.048 -11.7849 0
      vertex 22.048 11.7849 0
      vertex 22.5997 10.6889 0
    endloop
  endfacet
  facet normal 0 0 -1
    outer loop
      vertex 21.4432 -12.8526 0
      vertex 22.048 11.7849 0
      vertex 22.048 -11.7849 0
    endloop
  endfacet
  facet normal 0 0 -1
    outer loop
      vertex 21.4432 -12.8526 0
      vertex 21.4432 12.8526 0
      vertex 22.048 11.7849 0
    endloop
  endfacet
  facet normal 0 0 -1
    outer loop
      vertex 20.7867 -13.8893 0
      vertex 21.4432 12.8526 0
      vertex 21.4432 -12.8526 0
    endloop
  endfacet
  facet normal 0 0 -1
    outer loop
      vertex 20.7867 -13.8893 0
      vertex 20.7867 13.8893 0
      vertex 21.4432 12.8526 0
    endloop
  endfacet
  facet normal 0 0 -1
    outer loop
      vertex 20.0802 -14.8925 0
      vertex 20.7867 13.8893 0
      vertex 20.7867 -13.8893 0
    endloop
  endfacet
  facet normal 0 0 -1
    outer loop
      vertex 20.0802 -14.8925 0
      vertex 20.0802 14.8925 0
      vertex 20.7867 13.8893 0
    endloop
  endfacet
  facet normal 0 0 -1
    outer loop
      vertex 19.3253 -15.8598 0
      vertex 20.0802 14.8925 0
      vertex 20.0802 -14.8925 0
    endloop
  endfacet
  facet normal 0 0 -1
    outer loop
      vertex 19.3253 -15.8598 0
      vertex 19.3253 15.8598 0
      vertex 20.0802 14.8925 0
    endloop
  endfacet
  facet normal 0 0 -1
    outer loop
      vertex 18.5238 -16.789 0
      vertex 19.3253 15.8598 0
      vertex 19.3253 -15.8598 0
    endloop
  endfacet
  facet normal 0 0 -1
    outer loop
      vertex 18.5238 -16.789 0
      vertex 18.5238 16.789 0
      vertex 19.3253 15.8598 0
    endloop
  endfacet
  facet normal 0 0 -1
    outer loop
      vertex 17.6777 -17.6777 0
      vertex 18.5238 16.789 0
      vertex 18.5238 -16.789 0
    endloop
  endfacet
  facet normal 0 0 -1
    outer loop
      vertex 17.6777 -17.6777 0
      vertex 17.6777 17.6777 0
      vertex 18.5238 16.789 0
    endloop
  endfacet
  facet normal 0 0 -1
    outer loop
      vertex 16.789 -18.5238 0
      vertex 17.6777 17.6777 0
      vertex 17.6777 -17.6777 0
    endloop
  endfacet
  facet normal 0 0 -1
    outer loop
      vertex 16.789 -18.5238 0
      vertex 16.789 18.5238 0
      vertex 17.6777 17.6777 0
    endloop
  endfacet
  facet normal 0 0 -1
    outer loop
      vertex 15.8598 -19.3253 0
      vertex 16.789 18.5238 0
      vertex 16.789 -18.5238 0
    endloop
  endfacet
  facet normal 0 0 -1
    outer loop
      vertex 15.8598 -19.3253 0
      vertex 15.8598 19.3253 0
      vertex 16.789 18.5238 0
    endloop
  endfacet
  facet normal 0 0 -1
    outer loop
      vertex 14.8925 -20.0802 0
      vertex 15.8598 19.3253 0
      vertex 15.8598 -19.3253 0
    endloop
  endfacet
  facet normal 0 0 -1
    outer loop
      vertex 14.8925 -20.0802 0
      vertex 14.8925 20.0802 0
      vertex 15.8598 19.3253 0
    endloop
  endfacet
  facet normal 0 0 -1
    outer loop
      vertex 13.8893 -20.7867 0
      vertex 14.8925 20.0802 0
      vertex 14.8925 -20.0802 0
    endloop
  endfacet
  facet normal 0 0 -1
    outer loop
      vertex 13.8893 -20.7867 0
      vertex 13.8893 20.7867 0
      vertex 14.8925 20.0802 0
    endloop
  endfacet
  facet normal 0 0 -1
    outer loop
      vertex 12.8526 -21.4432 0
      vertex 13.8893 20.7867 0
      vertex 13.8893 -20.7867 0
    endloop
  endfacet
  facet normal 0 0 -1
    outer loop
      vertex 12.8526 -21.4432 0
      vertex 12.8526 21.4432 0
      vertex 13.8893 20.7867 0
    endloop
  endfacet
  facet normal 0 0 -1
    outer loop
      vertex 11.7849 -22.048 0
      vertex 12.8526 21.4432 0
      vertex 12.8526 -21.4432 0
    endloop
  endfacet
  facet normal 0 0 -1
    outer loop
      vertex 11.7849 -22.048 0
      vertex 11.7849 22.048 0
      vertex 12.8526 21.4432 0
    endloop
  endfacet
  facet normal 0 0 -1
    outer loop
      vertex 10.6889 -22.5997 0
      vertex 11.7849 22.048 0
      vertex 11.7849 -22.048 0
    endloop
  endfacet
  facet normal 0 0 -1
    outer loop
      vertex 10.6889 -22.5997 0
      vertex 10.6889 22.5997 0
      vertex 11.7849 22.048 0
    endloop
  endfacet
  facet normal 0 0 -1
    outer loop
      vertex 9.56709 -23.097 0
      vertex 10.6889 22.5997 0
      vertex 10.6889 -22.5997 0
    endloop
  endfacet
  facet normal 0 0 -1
    outer loop
      vertex 9.56709 -23.097 0
      vertex 9.56709 23.097 0
      vertex 10.6889 22.5997 0
    endloop
  endfacet
  facet normal 0 0 -1
    outer loop
      vertex 8.42225 -23.5386 0
      vertex 9.56709 23.097 0
      vertex 9.56709 -23.097 0
    endloop
  endfacet
  facet normal 0 0 -1
    outer loop
      vertex 8.42225 -23.5386 0
      vertex 8.42225 23.5386 0
      vertex 9.56709 23.097 0
    endloop
  endfacet
  facet normal 0 0 -1
    outer loop
      vertex 7.25712 -23.9235 0
      vertex 8.42225 23.5386 0
      vertex 8.42225 -23.5386 0
    endloop
  endfacet
  facet normal 0 0 -1
    outer loop
      vertex 7.25712 -23.9235 0
      vertex 7.25712 23.9235 0
      vertex 8.42225 23.5386 0
    endloop
  endfacet
  facet normal 0 0 -1
    outer loop
      vertex 6.0745 -24.2508 0
      vertex 7.25712 23.9235 0
      vertex 7.25712 -23.9235 0
    endloop
  endfacet
  facet normal 0 0 -1
    outer loop
      vertex 6.0745 -24.2508 0
      vertex 6.0745 24.2508 0
      vertex 7.25712 23.9235 0
    endloop
  endfacet
  facet normal 0 0 -1
    outer loop
      vertex 4.87726 -24.5196 0
      vertex 6.0745 24.2508 0
      vertex 6.0745 -24.2508 0
    endloop
  endfacet
  facet normal 0 0 -1
    outer loop
      vertex 4.87726 -24.5196 0
      vertex 4.87726 24.5196 0
      vertex 6.0745 24.2508 0
    endloop
  endfacet
  facet normal 0 0 -1
    outer loop
      vertex 3.66826 -24.7294 0
      vertex 4.87726 24.5196 0
      vertex 4.87726 -24.5196 0
    endloop
  endfacet
  facet normal 0 0 -1
    outer loop
      vertex 3.66826 -24.7294 0
      vertex 3.66826 24.7294 0
      vertex 4.87726 24.5196 0
    endloop
  endfacet
  facet normal 0 0 -1
    outer loop
      vertex 2.45043 -24.8796 0
      vertex 3.66826 24.7294 0
      vertex 3.66826 -24.7294 0
    endloop
  endfacet
  facet normal 0 0 -1
    outer loop
      vertex 2.45043 -24.8796 0
      vertex 2.45043 24.8796 0
      vertex 3.66826 24.7294 0
    endloop
  endfacet
  facet normal 0 0 -1
    outer loop
      vertex 1.22669 -24.9699 0
      vertex 2.45043 24.8796 0
      vertex 2.45043 -24.8796 0
    endloop
  endfacet
  facet normal 0 0 -1
    outer loop
      vertex 1.22669 -24.9699 0
      vertex 1.22669 24.9699 0
      vertex 2.45043 24.8796 0
    endloop
  endfacet
  facet normal 0 0 -1
    outer loop
      vertex 0 -25 0
      vertex 1.22669 24.9699 0
      vertex 1.22669 -24.9699 0
    endloop
  endfacet
  facet normal 0 0 -1
    outer loop
      vertex 0 -25 0
      vertex 0 25 0
      vertex 1.22669 24.9699 0
    endloop
  endfacet
  facet normal 0 0 -1
    outer loop
      vertex -1.22669 -24.9699 0
      vertex 0 25 0
      vertex 0 -25 0
    endloop
  endfacet
  facet normal 0 0 -1
    outer loop
      vertex -1.22669 -24.9699 0
      vertex -1.22669 24.9699 0
      vertex 0 25 0
    endloop
  endfacet
  facet normal 0 0 -1
    outer loop
      vertex -2.45043 -24.8796 0
      vertex -1.22669 24.9699 0
      vertex -1.22669 -24.9699 0
    endloop
  endfacet
  facet normal 0 0 -1
    outer loop
      vertex -2.45043 -24.8796 0
      vertex -2.45043 24.8796 0
      vertex -1.22669 24.9699 0
    endloop
  endfacet
  facet normal 0 0 -1
    outer loop
      vertex -3.66826 -24.7294 0
      vertex -2.45043 24.8796 0
      vertex -2.45043 -24.8796 0
    endloop
  endfacet
  facet normal 0 0 -1
    outer loop
      vertex -3.66826 -24.7294 0
      vertex -3.66826 24.7294 0
      vertex -2.45043 24.8796 0
    endloop
  endfacet
  facet normal 0 0 -1
    outer loop
      vertex -4.87726 -24.5196 0
      vertex -3.66826 24.7294 0
      vertex -3.66826 -24.7294 0
    endloop
  endfacet
  facet normal 0 0 -1
    outer loop
      vertex -4.87726 -24.5196 0
      vertex -4.87726 24.5196 0
      vertex -3.66826 24.7294 0
    endloop
  endfacet
  facet normal 0 0 -1
    outer loop
      vertex -6.0745 -24.2508 0
      vertex -4.87726 24.5196 0
      vertex -4.87726 -24.5196 0
    endloop
  endfacet
  facet normal 0 0 -1
    outer loop
      vertex -6.0745 -24.2508 0
      vertex -6.0745 24.2508 0
      vertex -4.87726 24.5196 0
    endloop
  endfacet
  facet normal 0 0 -1
    outer loop
      vertex -7.25712 -23.9235 0
      vertex -6.0745 24.2508 0
      vertex -6.0745 -24.2508 0
    endloop
  endfacet
  facet normal 0 0 -1
    outer loop
      vertex -7.25712 -23.9235 0
      vertex -7.25712 23.9235 0
      vertex -6.0745 24.2508 0
    endloop
  endfacet
  facet normal 0 0 -1
    outer loop
      vertex -8.42225 -23.5386 0
      vertex -7.25712 23.9235 0
      vertex -7.25712 -23.9235 0
    endloop
  endfacet
  facet normal 0 0 -1
    outer loop
      vertex -8.42225 -23.5386 0
      vertex -8.42225 23.5386 0
      vertex -7.25712 23.9235 0
    endloop
  endfacet
  facet normal 0 0 -1
    outer loop
      vertex -9.56709 -23.097 0
      vertex -8.42225 23.5386 0
      vertex -8.42225 -23.5386 0
    endloop
  endfacet
  facet normal 0 0 -1
    outer loop
      vertex -9.56709 -23.097 0
      vertex -9.56709 23.097 0
      vertex -8.42225 23.5386 0
    endloop
  endfacet
  facet normal 0 0 -1
    outer loop
      vertex -10.6889 -22.5997 0
      vertex -9.56709 23.097 0
      vertex -9.56709 -23.097 0
    endloop
  endfacet
  facet normal 0 0 -1
    outer loop
      vertex -10.6889 -22.5997 0
      vertex -10.6889 22.5997 0
      vertex -9.56709 23.097 0
    endloop
  endfacet
  facet normal 0 0 -1
    outer loop
      vertex -11.7849 -22.048 0
      vertex -10.6889 22.5997 0
      vertex -10.6889 -22.5997 0
    endloop
  endfacet
  facet normal 0 0 -1
    outer loop
      vertex -11.7849 -22.048 0
      vertex -11.7849 22.048 0
      vertex -10.6889 22.5997 0
    endloop
  endfacet
  facet normal 0 0 -1
    outer loop
      vertex -12.8526 -21.4432 0
      vertex -11.7849 22.048 0
      vertex -11.7849 -22.048 0
    endloop
  endfacet
  facet normal 0 0 -1
    outer loop
      vertex -12.8526 -21.4432 0
      vertex -12.8526 21.4432 0
      vertex -11.7849 22.048 0
    endloop
  endfacet
  facet normal 0 0 -1
    outer loop
      vertex -13.8893 -20.7867 0
      vertex -12.8526 21.4432 0
      vertex -12.8526 -21.4432 0
    endloop
  endfacet
  facet normal 0 0 -1
    outer loop
      vertex -13.8893 -20.7867 0
      vertex -13.8893 20.7867 0
      vertex -12.8526 21.4432 0
    endloop
  endfacet
  facet normal 0 0 -1
    outer loop
      vertex -14.8925 -20.0802 0
      vertex -13.8893 20.7867 0
      vertex -13.8893 -20.7867 0
    endloop
  endfacet
  facet normal 0 0 -1
    outer loop
      vertex -14.8925 -20.0802 0
      vertex -14.8925 20.0802 0
      vertex -13.8893 20.7867 0
    endloop
  endfacet
  facet normal 0 0 -1
    outer loop
      vertex -15.8598 -19.3253 0
      vertex -14.8925 20.0802 0
      vertex -14.8925 -20.0802 0
    endloop
  endfacet
  facet normal 0 0 -1
    outer loop
      vertex -15.8598 -19.3253 0
      vertex -15.8598 19.3253 0
      vertex -14.8925 20.0802 0
    endloop
  endfacet
  facet normal 0 0 -1
    outer loop
      vertex -16.789 -18.5238 0
      vertex -15.8598 19.3253 0
      vertex -15.8598 -19.3253 0
    endloop
  endfacet
  facet normal 0 0 -1
    outer loop
      vertex -16.789 -18.5238 0
      vertex -16.789 18.5238 0
      vertex -15.8598 19.3253 0
    endloop
  endfacet
  facet normal 0 0 -1
    outer loop
      vertex -17.6777 -17.6777 0
      vertex -16.789 18.5238 0
      vertex -16.789 -18.5238 0
    endloop
  endfacet
  facet normal 0 0 -1
    outer loop
      vertex -17.6777 -17.6777 0
      vertex -17.6777 17.6777 0
      vertex -16.789 18.5238 0
    endloop
  endfacet
  facet normal 0 0 -1
    outer loop
      vertex -18.5238 -16.789 0
      vertex -17.6777 17.6777 0
      vertex -17.6777 -17.6777 0
    endloop
  endfacet
  facet normal 0 0 -1
    outer loop
      vertex -18.5238 -16.789 0
      vertex -18.5238 16.789 0
      vertex -17.6777 17.6777 0
    endloop
  endfacet
  facet normal 0 0 -1
    outer loop
      vertex -19.3253 -15.8598 0
      vertex -18.5238 16.789 0
      vertex -18.5238 -16.789 0
    endloop
  endfacet
  facet normal 0 0 -1
    outer loop
      vertex -19.3253 -15.8598 0
      vertex -19.3253 15.8598 0
      vertex -18.5238 16.789 0
    endloop
  endfacet
  facet normal 0 0 -1
    outer loop
      vertex -20.0802 -14.8925 0
      vertex -19.3253 15.8598 0
      vertex -19.3253 -15.8598 0
    endloop
  endfacet
  facet normal 0 0 -1
    outer loop
      vertex -20.0802 -14.8925 0
      vertex -20.0802 14.8925 0
      vertex -19.3253 15.8598 0
    endloop
  endfacet
  facet normal 0 0 -1
    outer loop
      vertex -20.7867 -13.8893 0
      vertex -20.0802 14.8925 0
      vertex -20.0802 -14.8925 0
    endloop
  endfacet
  facet normal 0 0 -1
    outer loop
      vertex -20.7867 -13.8893 0
      vertex -20.7867 13.8893 0
      vertex -20.0802 14.8925 0
    endloop
  endfacet
  facet normal 0 0 -1
    outer loop
      vertex -21.4432 -12.8526 0
      vertex -20.7867 13.8893 0
      vertex -20.7867 -13.8893 0
    endloop
  endfacet
  facet normal 0 0 -1
    outer loop
      vertex -21.4432 -12.8526 0
      vertex -21.4432 12.8526 0
      vertex -20.7867 13.8893 0
    endloop
  endfacet
  facet normal 0 0 -1
    outer loop
      vertex -22.048 -11.7849 0
      vertex -21.4432 12.8526 0
      vertex -21.4432 -12.8526 0
    endloop
  endfacet
  facet normal 0 0 -1
    outer loop
      vertex -22.048 -11.7849 0
      vertex -22.048 11.7849 0
      vertex -21.4432 12.8526 0
    endloop
  endfacet
  facet normal 0 0 -1
    outer loop
      vertex -22.5997 -10.6889 0
      vertex -22.048 11.7849 0
      vertex -22.048 -11.7849 0
    endloop
  endfacet
  facet normal 0 0 -1
    outer loop
      vertex -22.5997 -10.6889 0
      vertex -22.5997 10.6889 0
      vertex -22.048 11.7849 0
    endloop
  endfacet
  facet normal 0 0 -1
    outer loop
      vertex -23.097 -9.56709 0
      vertex -22.5997 10.6889 0
      vertex -22.5997 -10.6889 0
    endloop
  endfacet
  facet normal 0 0 -1
    outer loop
      vertex -23.097 -9.56709 0
      vertex -23.097 9.56709 0
      vertex -22.5997 10.6889 0
    endloop
  endfacet
  facet normal 0 0 -1
    outer loop
      vertex -23.5386 -8.42225 0
      vertex -23.097 9.56709 0
      vertex -23.097 -9.56709 0
    endloop
  endfacet
  facet normal 0 0 -1
    outer loop
      vertex -23.5386 -8.42225 0
      vertex -23.5386 8.42225 0
      vertex -23.097 9.56709 0
    endloop
  endfacet
  facet normal 0 0 -1
    outer loop
      vertex -23.9235 -7.25712 0
      vertex -23.5386 8.42225 0
      vertex -23.5386 -8.42225 0
    endloop
  endfacet
  facet normal 0 0 -1
    outer loop
      vertex -23.9235 -7.25712 0
      vertex -23.9235 7.25712 0
      vertex -23.5386 8.42225 0
    endloop
  endfacet
  facet normal 0 0 -1
    outer loop
      vertex -24.2508 -6.0745 0
      vertex -23.9235 7.25712 0
      vertex -23.9235 -7.25712 0
    endloop
  endfacet
  facet normal 0 0 -1
    outer loop
      vertex -24.2508 -6.0745 0
      vertex -24.2508 6.0745 0
      vertex -23.9235 7.25712 0
    endloop
  endfacet
  facet normal 0 0 -1
    outer loop
      vertex -24.5196 -4.87726 0
      vertex -24.2508 6.0745 0
      vertex -24.2508 -6.0745 0
    endloop
  endfacet
  facet normal 0 0 -1
    outer loop
      vertex -24.5196 -4.87726 0
      vertex -24.5196 4.87726 0
      vertex -24.2508 6.0745 0
    endloop
  endfacet
  facet normal 0 0 -1
    outer loop
      vertex -24.7294 -3.66826 0
      vertex -24.5196 4.87726 0
      vertex -24.5196 -4.87726 0
    endloop
  endfacet
  facet normal 0 0 -1
    outer loop
      vertex -24.7294 -3.66826 0
      vertex -24.7294 3.66826 0
      vertex -24.5196 4.87726 0
    endloop
  endfacet
  facet normal 0 0 -1
    outer loop
      vertex -24.8796 -2.45043 0
      vertex -24.7294 3.66826 0
      vertex -24.7294 -3.66826 0
    endloop
  endfacet
  facet normal 0 0 -1
    outer loop
      vertex -24.8796 -2.45043 0
      vertex -24.8796 2.45043 0
      vertex -24.7294 3.66826 0
    endloop
  endfacet
  facet normal 0 0 -1
    outer loop
      vertex -24.9699 -1.22669 0
      vertex -24.8796 2.45043 0
      vertex -24.8796 -2.45043 0
    endloop
  endfacet
  facet normal 0 0 -1
    outer loop
      vertex -24.9699 -1.22669 0
      vertex -24.9699 1.22669 0
      vertex -24.8796 2.45043 0
    endloop
  endfacet
  facet normal 0 -0 -1
    outer loop
      vertex -24.9699 1.22669 0
      vertex -24.9699 -1.22669 0
      vertex -25 0 0
    endloop
  endfacet
  facet normal 0.0245302 0.999699 -0
    outer loop
      vertex 1.22669 24.9699 0
      vertex 0 25 5
      vertex 1.22669 24.9699 5
    endloop
  endfacet
  facet normal 0.0245302 0.999699 0
    outer loop
      vertex 0 25 5
      vertex 1.22669 24.9699 0
      vertex 0 25 0
    endloop
  endfacet
  facet normal 0.689535 0.724252 -0
    outer loop
      vertex 17.6777 17.6777 0
      vertex 16.789 18.5238 5
      vertex 17.6777 17.6777 5
    endloop
  endfacet
  facet normal 0.689535 0.724252 0
    outer loop
      vertex 16.789 18.5238 5
      vertex 17.6777 17.6777 0
      vertex 16.789 18.5238 0
    endloop
  endfacet
  facet normal 0.788342 0.615238 0
    outer loop
      vertex 20.0802 14.8925 5
      vertex 19.3253 15.8598 0
      vertex 19.3253 15.8598 5
    endloop
  endfacet
  facet normal 0.788342 0.615238 0
    outer loop
      vertex 19.3253 15.8598 0
      vertex 20.0802 14.8925 5
      vertex 20.0802 14.8925 0
    endloop
  endfacet
  facet normal 0.963771 -0.266732 0
    outer loop
      vertex 23.9235 -7.25712 5
      vertex 24.2508 -6.0745 0
      vertex 24.2508 -6.0745 5
    endloop
  endfacet
  facet normal 0.963771 -0.266732 0
    outer loop
      vertex 24.2508 -6.0745 0
      vertex 23.9235 -7.25712 5
      vertex 23.9235 -7.25712 0
    endloop
  endfacet
  facet normal 0.94953 0.313677 0
    outer loop
      vertex 23.9235 7.25712 5
      vertex 23.5386 8.42225 0
      vertex 23.5386 8.42225 5
    endloop
  endfacet
  facet normal 0.94953 0.313677 0
    outer loop
      vertex 23.5386 8.42225 0
      vertex 23.9235 7.25712 5
      vertex 23.9235 7.25712 0
    endloop
  endfacet
  facet normal 0.689535 -0.724252 0
    outer loop
      vertex 16.789 -18.5238 0
      vertex 17.6777 -17.6777 5
      vertex 16.789 -18.5238 5
    endloop
  endfacet
  facet normal 0.689535 -0.724252 0
    outer loop
      vertex 17.6777 -17.6777 5
      vertex 16.789 -18.5238 0
      vertex 17.6777 -17.6777 0
    endloop
  endfacet
  facet normal 0.985275 -0.170977 0
    outer loop
      vertex 24.5196 -4.87726 5
      vertex 24.7294 -3.66826 0
      vertex 24.7294 -3.66826 5
    endloop
  endfacet
  facet normal 0.985275 -0.170977 0
    outer loop
      vertex 24.7294 -3.66826 0
      vertex 24.5196 -4.87726 5
      vertex 24.5196 -4.87726 0
    endloop
  endfacet
  facet normal -0.313677 0.94953 0
    outer loop
      vertex -7.25712 23.9235 0
      vertex -8.42225 23.5386 5
      vertex -7.25712 23.9235 5
    endloop
  endfacet
  facet normal -0.313677 0.94953 0
    outer loop
      vertex -8.42225 23.5386 5
      vertex -7.25712 23.9235 0
      vertex -8.42225 23.5386 0
    endloop
  endfacet
  facet normal 0.914199 0.405266 0
    outer loop
      vertex 23.097 9.56709 5
      vertex 22.5997 10.6889 0
      vertex 22.5997 10.6889 5
    endloop
  endfacet
  facet normal 0.914199 0.405266 0
    outer loop
      vertex 22.5997 10.6889 0
      vertex 23.097 9.56709 5
      vertex 23.097 9.56709 0
    endloop
  endfacet
  facet normal -0.0735901 -0.997289 0
    outer loop
      vertex -2.45043 -24.8796 0
      vertex -1.22669 -24.9699 5
      vertex -2.45043 -24.8796 5
    endloop
  endfacet
  facet normal -0.0735901 -0.997289 -0
    outer loop
      vertex -1.22669 -24.9699 5
      vertex -2.45043 -24.8796 0
      vertex -1.22669 -24.9699 0
    endloop
  endfacet
  facet normal -0.689535 -0.724252 0
    outer loop
      vertex -17.6777 -17.6777 0
      vertex -16.789 -18.5238 5
      vertex -17.6777 -17.6777 5
    endloop
  endfacet
  facet normal -0.689535 -0.724252 -0
    outer loop
      vertex -16.789 -18.5238 5
      vertex -17.6777 -17.6777 0
      vertex -16.789 -18.5238 0
    endloop
  endfacet
  facet normal -0.535007 0.844847 0
    outer loop
      vertex -12.8526 21.4432 0
      vertex -13.8893 20.7867 5
      vertex -12.8526 21.4432 5
    endloop
  endfacet
  facet normal -0.535007 0.844847 0
    outer loop
      vertex -13.8893 20.7867 5
      vertex -12.8526 21.4432 0
      vertex -13.8893 20.7867 0
    endloop
  endfacet
  facet normal -0.724252 -0.689535 0
    outer loop
      vertex -17.6777 -17.6777 0
      vertex -18.5238 -16.789 5
      vertex -18.5238 -16.789 0
    endloop
  endfacet
  facet normal -0.724252 -0.689535 0
    outer loop
      vertex -18.5238 -16.789 5
      vertex -17.6777 -17.6777 0
      vertex -17.6777 -17.6777 5
    endloop
  endfacet
  facet normal -0.788342 0.615238 0
    outer loop
      vertex -20.0802 14.8925 0
      vertex -19.3253 15.8598 5
      vertex -19.3253 15.8598 0
    endloop
  endfacet
  facet normal -0.788342 0.615238 0
    outer loop
      vertex -19.3253 15.8598 5
      vertex -20.0802 14.8925 0
      vertex -20.0802 14.8925 5
    endloop
  endfacet
  facet normal 0.724252 0.689535 0
    outer loop
      vertex 18.5238 16.789 5
      vertex 17.6777 17.6777 0
      vertex 17.6777 17.6777 5
    endloop
  endfacet
  facet normal 0.724252 0.689535 0
    outer loop
      vertex 17.6777 17.6777 0
      vertex 18.5238 16.789 5
      vertex 18.5238 16.789 0
    endloop
  endfacet
  facet normal 0.975711 0.219063 0
    outer loop
      vertex 24.5196 4.87726 5
      vertex 24.2508 6.0745 0
      vertex 24.2508 6.0745 5
    endloop
  endfacet
  facet normal 0.975711 0.219063 0
    outer loop
      vertex 24.2508 6.0745 0
      vertex 24.5196 4.87726 5
      vertex 24.5196 4.87726 0
    endloop
  endfacet
  facet normal 0.170977 0.985275 -0
    outer loop
      vertex 4.87726 24.5196 0
      vertex 3.66826 24.7294 5
      vertex 4.87726 24.5196 5
    endloop
  endfacet
  facet normal 0.170977 0.985275 0
    outer loop
      vertex 3.66826 24.7294 5
      vertex 4.87726 24.5196 0
      vertex 3.66826 24.7294 0
    endloop
  endfacet
  facet normal 0.893218 -0.449624 0
    outer loop
      vertex 22.048 -11.7849 5
      vertex 22.5997 -10.6889 0
      vertex 22.5997 -10.6889 5
    endloop
  endfacet
  facet normal 0.893218 -0.449624 0
    outer loop
      vertex 22.5997 -10.6889 0
      vertex 22.048 -11.7849 5
      vertex 22.048 -11.7849 0
    endloop
  endfacet
  facet normal -0.963771 0.266732 0
    outer loop
      vertex -24.2508 6.0745 0
      vertex -23.9235 7.25712 5
      vertex -23.9235 7.25712 0
    endloop
  endfacet
  facet normal -0.963771 0.266732 0
    outer loop
      vertex -23.9235 7.25712 5
      vertex -24.2508 6.0745 0
      vertex -24.2508 6.0745 5
    endloop
  endfacet
  facet normal 0.535007 -0.844847 0
    outer loop
      vertex 12.8526 -21.4432 0
      vertex 13.8893 -20.7867 5
      vertex 12.8526 -21.4432 5
    endloop
  endfacet
  facet normal 0.535007 -0.844847 0
    outer loop
      vertex 13.8893 -20.7867 5
      vertex 12.8526 -21.4432 0
      vertex 13.8893 -20.7867 0
    endloop
  endfacet
  facet normal 0.870103 -0.492871 0
    outer loop
      vertex 21.4432 -12.8526 5
      vertex 22.048 -11.7849 0
      vertex 22.048 -11.7849 5
    endloop
  endfacet
  facet normal 0.870103 -0.492871 0
    outer loop
      vertex 22.048 -11.7849 0
      vertex 21.4432 -12.8526 5
      vertex 21.4432 -12.8526 0
    endloop
  endfacet
  facet normal -0.0245302 0.999699 0
    outer loop
      vertex 0 25 0
      vertex -1.22669 24.9699 5
      vertex 0 25 5
    endloop
  endfacet
  facet normal -0.0245302 0.999699 0
    outer loop
      vertex -1.22669 24.9699 5
      vertex 0 25 0
      vertex -1.22669 24.9699 0
    endloop
  endfacet
  facet normal 0.359885 -0.932996 0
    outer loop
      vertex 8.42225 -23.5386 0
      vertex 9.56709 -23.097 5
      vertex 8.42225 -23.5386 5
    endloop
  endfacet
  facet normal 0.359885 -0.932996 0
    outer loop
      vertex 9.56709 -23.097 5
      vertex 8.42225 -23.5386 0
      vertex 9.56709 -23.097 0
    endloop
  endfacet
  facet normal -0.405266 -0.914199 0
    outer loop
      vertex -10.6889 -22.5997 0
      vertex -9.56709 -23.097 5
      vertex -10.6889 -22.5997 5
    endloop
  endfacet
  facet normal -0.405266 -0.914199 -0
    outer loop
      vertex -9.56709 -23.097 5
      vertex -10.6889 -22.5997 0
      vertex -9.56709 -23.097 0
    endloop
  endfacet
  facet normal -0.689535 0.724252 0
    outer loop
      vertex -16.789 18.5238 0
      vertex -17.6777 17.6777 5
      vertex -16.789 18.5238 5
    endloop
  endfacet
  facet normal -0.689535 0.724252 0
    outer loop
      vertex -17.6777 17.6777 5
      vertex -16.789 18.5238 0
      vertex -17.6777 17.6777 0
    endloop
  endfacet
  facet normal -0.997289 -0.0735901 0
    outer loop
      vertex -24.8796 -2.45043 0
      vertex -24.9699 -1.22669 5
      vertex -24.9699 -1.22669 0
    endloop
  endfacet
  facet normal -0.997289 -0.0735901 0
    outer loop
      vertex -24.9699 -1.22669 5
      vertex -24.8796 -2.45043 0
      vertex -24.8796 -2.45043 5
    endloop
  endfacet
  facet normal -0.653157 0.757222 0
    outer loop
      vertex -15.8598 19.3253 0
      vertex -16.789 18.5238 5
      vertex -15.8598 19.3253 5
    endloop
  endfacet
  facet normal -0.653157 0.757222 0
    outer loop
      vertex -16.789 18.5238 5
      vertex -15.8598 19.3253 0
      vertex -16.789 18.5238 0
    endloop
  endfacet
  facet normal 0.219063 -0.975711 0
    outer loop
      vertex 4.87726 -24.5196 0
      vertex 6.0745 -24.2508 5
      vertex 4.87726 -24.5196 5
    endloop
  endfacet
  facet normal 0.219063 -0.975711 0
    outer loop
      vertex 6.0745 -24.2508 5
      vertex 4.87726 -24.5196 0
      vertex 6.0745 -24.2508 0
    endloop
  endfacet
  facet normal -0.94953 -0.313677 0
    outer loop
      vertex -23.5386 -8.42225 0
      vertex -23.9235 -7.25712 5
      vertex -23.9235 -7.25712 0
    endloop
  endfacet
  facet normal -0.94953 -0.313677 0
    outer loop
      vertex -23.9235 -7.25712 5
      vertex -23.5386 -8.42225 0
      vertex -23.5386 -8.42225 5
    endloop
  endfacet
  facet normal -0.653157 -0.757222 0
    outer loop
      vertex -16.789 -18.5238 0
      vertex -15.8598 -19.3253 5
      vertex -16.789 -18.5238 5
    endloop
  endfacet
  facet normal -0.653157 -0.757222 -0
    outer loop
      vertex -15.8598 -19.3253 5
      vertex -16.789 -18.5238 0
      vertex -15.8598 -19.3253 0
    endloop
  endfacet
  facet normal -0.817598 -0.57579 0
    outer loop
      vertex -20.0802 -14.8925 0
      vertex -20.7867 -13.8893 5
      vertex -20.7867 -13.8893 0
    endloop
  endfacet
  facet normal -0.817598 -0.57579 0
    outer loop
      vertex -20.7867 -13.8893 5
      vertex -20.0802 -14.8925 0
      vertex -20.0802 -14.8925 5
    endloop
  endfacet
  facet normal 0.266732 0.963771 -0
    outer loop
      vertex 7.25712 23.9235 0
      vertex 6.0745 24.2508 5
      vertex 7.25712 23.9235 5
    endloop
  endfacet
  facet normal 0.266732 0.963771 0
    outer loop
      vertex 6.0745 24.2508 5
      vertex 7.25712 23.9235 0
      vertex 6.0745 24.2508 0
    endloop
  endfacet
  facet normal -0.492871 -0.870103 0
    outer loop
      vertex -12.8526 -21.4432 0
      vertex -11.7849 -22.048 5
      vertex -12.8526 -21.4432 5
    endloop
  endfacet
  facet normal -0.492871 -0.870103 -0
    outer loop
      vertex -11.7849 -22.048 5
      vertex -12.8526 -21.4432 0
      vertex -11.7849 -22.048 0
    endloop
  endfacet
  facet normal -0.99248 -0.122407 0
    outer loop
      vertex -24.7294 -3.66826 0
      vertex -24.8796 -2.45043 5
      vertex -24.8796 -2.45043 0
    endloop
  endfacet
  facet normal -0.99248 -0.122407 0
    outer loop
      vertex -24.8796 -2.45043 5
      vertex -24.7294 -3.66826 0
      vertex -24.7294 -3.66826 5
    endloop
  endfacet
  facet normal -0.266732 -0.963771 0
    outer loop
      vertex -7.25712 -23.9235 0
      vertex -6.0745 -24.2508 5
      vertex -7.25712 -23.9235 5
    endloop
  endfacet
  facet normal -0.266732 -0.963771 -0
    outer loop
      vertex -6.0745 -24.2508 5
      vertex -7.25712 -23.9235 0
      vertex -6.0745 -24.2508 0
    endloop
  endfacet
  facet normal -0.724252 0.689535 0
    outer loop
      vertex -18.5238 16.789 0
      vertex -17.6777 17.6777 5
      vertex -17.6777 17.6777 0
    endloop
  endfacet
  facet normal -0.724252 0.689535 0
    outer loop
      vertex -17.6777 17.6777 5
      vertex -18.5238 16.789 0
      vertex -18.5238 16.789 5
    endloop
  endfacet
  facet normal 0.817598 -0.57579 0
    outer loop
      vertex 20.0802 -14.8925 5
      vertex 20.7867 -13.8893 0
      vertex 20.7867 -13.8893 5
    endloop
  endfacet
  facet normal 0.817598 -0.57579 0
    outer loop
      vertex 20.7867 -13.8893 0
      vertex 20.0802 -14.8925 5
      vertex 20.0802 -14.8925 0
    endloop
  endfacet
  facet normal 0.170977 -0.985275 0
    outer loop
      vertex 3.66826 -24.7294 0
      vertex 4.87726 -24.5196 5
      vertex 3.66826 -24.7294 5
    endloop
  endfacet
  facet normal 0.170977 -0.985275 0
    outer loop
      vertex 4.87726 -24.5196 5
      vertex 3.66826 -24.7294 0
      vertex 4.87726 -24.5196 0
    endloop
  endfacet
  facet normal 0.999699 -0.0245302 0
    outer loop
      vertex 24.9699 -1.22669 5
      vertex 25 0 0
      vertex 25 0 5
    endloop
  endfacet
  facet normal 0.999699 -0.0245302 0
    outer loop
      vertex 25 0 0
      vertex 24.9699 -1.22669 5
      vertex 24.9699 -1.22669 0
    endloop
  endfacet
  facet normal 0.122407 -0.99248 0
    outer loop
      vertex 2.45043 -24.8796 0
      vertex 3.66826 -24.7294 5
      vertex 2.45043 -24.8796 5
    endloop
  endfacet
  facet normal 0.122407 -0.99248 0
    outer loop
      vertex 3.66826 -24.7294 5
      vertex 2.45043 -24.8796 0
      vertex 3.66826 -24.7294 0
    endloop
  endfacet
  facet normal -0.219063 -0.975711 0
    outer loop
      vertex -6.0745 -24.2508 0
      vertex -4.87726 -24.5196 5
      vertex -6.0745 -24.2508 5
    endloop
  endfacet
  facet normal -0.219063 -0.975711 -0
    outer loop
      vertex -4.87726 -24.5196 5
      vertex -6.0745 -24.2508 0
      vertex -4.87726 -24.5196 0
    endloop
  endfacet
  facet normal 0.313677 0.94953 -0
    outer loop
      vertex 8.42225 23.5386 0
      vertex 7.25712 23.9235 5
      vertex 8.42225 23.5386 5
    endloop
  endfacet
  facet normal 0.313677 0.94953 0
    outer loop
      vertex 7.25712 23.9235 5
      vertex 8.42225 23.5386 0
      vertex 7.25712 23.9235 0
    endloop
  endfacet
  facet normal -0.893218 -0.449624 0
    outer loop
      vertex -22.048 -11.7849 0
      vertex -22.5997 -10.6889 5
      vertex -22.5997 -10.6889 0
    endloop
  endfacet
  facet normal -0.893218 -0.449624 0
    outer loop
      vertex -22.5997 -10.6889 5
      vertex -22.048 -11.7849 0
      vertex -22.048 -11.7849 5
    endloop
  endfacet
  facet normal -0.975711 0.219063 0
    outer loop
      vertex -24.5196 4.87726 0
      vertex -24.2508 6.0745 5
      vertex -24.2508 6.0745 0
    endloop
  endfacet
  facet normal -0.975711 0.219063 0
    outer loop
      vertex -24.2508 6.0745 5
      vertex -24.5196 4.87726 0
      vertex -24.5196 4.87726 5
    endloop
  endfacet
  facet normal -0.449624 0.893218 0
    outer loop
      vertex -10.6889 22.5997 0
      vertex -11.7849 22.048 5
      vertex -10.6889 22.5997 5
    endloop
  endfacet
  facet normal -0.449624 0.893218 0
    outer loop
      vertex -11.7849 22.048 5
      vertex -10.6889 22.5997 0
      vertex -11.7849 22.048 0
    endloop
  endfacet
  facet normal -0.615238 -0.788342 0
    outer loop
      vertex -15.8598 -19.3253 0
      vertex -14.8925 -20.0802 5
      vertex -15.8598 -19.3253 5
    endloop
  endfacet
  facet normal -0.615238 -0.788342 -0
    outer loop
      vertex -14.8925 -20.0802 5
      vertex -15.8598 -19.3253 0
      vertex -14.8925 -20.0802 0
    endloop
  endfacet
  facet normal 0.57579 -0.817598 0
    outer loop
      vertex 13.8893 -20.7867 0
      vertex 14.8925 -20.0802 5
      vertex 13.8893 -20.7867 5
    endloop
  endfacet
  facet normal 0.57579 -0.817598 0
    outer loop
      vertex 14.8925 -20.0802 5
      vertex 13.8893 -20.7867 0
      vertex 14.8925 -20.0802 0
    endloop
  endfacet
  facet normal -0.757222 0.653157 0
    outer loop
      vertex -19.3253 15.8598 0
      vertex -18.5238 16.789 5
      vertex -18.5238 16.789 0
    endloop
  endfacet
  facet normal -0.757222 0.653157 0
    outer loop
      vertex -18.5238 16.789 5
      vertex -19.3253 15.8598 0
      vertex -19.3253 15.8598 5
    endloop
  endfacet
  facet normal -0.817598 0.57579 0
    outer loop
      vertex -20.7867 13.8893 0
      vertex -20.0802 14.8925 5
      vertex -20.0802 14.8925 0
    endloop
  endfacet
  facet normal -0.817598 0.57579 0
    outer loop
      vertex -20.0802 14.8925 5
      vertex -20.7867 13.8893 0
      vertex -20.7867 13.8893 5
    endloop
  endfacet
  facet normal 0.817598 0.57579 0
    outer loop
      vertex 20.7867 13.8893 5
      vertex 20.0802 14.8925 0
      vertex 20.0802 14.8925 5
    endloop
  endfacet
  facet normal 0.817598 0.57579 0
    outer loop
      vertex 20.0802 14.8925 0
      vertex 20.7867 13.8893 5
      vertex 20.7867 13.8893 0
    endloop
  endfacet
  facet normal 0.914199 -0.405266 0
    outer loop
      vertex 22.5997 -10.6889 5
      vertex 23.097 -9.56709 0
      vertex 23.097 -9.56709 5
    endloop
  endfacet
  facet normal 0.914199 -0.405266 0
    outer loop
      vertex 23.097 -9.56709 0
      vertex 22.5997 -10.6889 5
      vertex 22.5997 -10.6889 0
    endloop
  endfacet
  facet normal -0.313677 -0.94953 0
    outer loop
      vertex -8.42225 -23.5386 0
      vertex -7.25712 -23.9235 5
      vertex -8.42225 -23.5386 5
    endloop
  endfacet
  facet normal -0.313677 -0.94953 -0
    outer loop
      vertex -7.25712 -23.9235 5
      vertex -8.42225 -23.5386 0
      vertex -7.25712 -23.9235 0
    endloop
  endfacet
  facet normal 0 0 1
    outer loop
      vertex 24.9699 1.22669 5
      vertex 24.9699 -1.22669 5
      vertex 25 0 5
    endloop
  endfacet
  facet normal 0 0 1
    outer loop
      vertex 24.8796 2.45043 5
      vertex 24.9699 -1.22669 5
      vertex 24.9699 1.22669 5
    endloop
  endfacet
  facet normal 0 0 1
    outer loop
      vertex 24.8796 2.45043 5
      vertex 24.8796 -2.45043 5
      vertex 24.9699 -1.22669 5
    endloop
  endfacet
  facet normal 0 0 1
    outer loop
      vertex 24.7294 3.66826 5
      vertex 24.8796 -2.45043 5
      vertex 24.8796 2.45043 5
    endloop
  endfacet
  facet normal 0 0 1
    outer loop
      vertex 24.7294 3.66826 5
      vertex 24.7294 -3.66826 5
      vertex 24.8796 -2.45043 5
    endloop
  endfacet
  facet normal 0 0 1
    outer loop
      vertex 24.5196 4.87726 5
      vertex 24.7294 -3.66826 5
      vertex 24.7294 3.66826 5
    endloop
  endfacet
  facet normal 0 0 1
    outer loop
      vertex 24.5196 4.87726 5
      vertex 24.5196 -4.87726 5
      vertex 24.7294 -3.66826 5
    endloop
  endfacet
  facet normal 0 0 1
    outer loop
      vertex 24.2508 6.0745 5
      vertex 24.5196 -4.87726 5
      vertex 24.5196 4.87726 5
    endloop
  endfacet
  facet normal 0 0 1
    outer loop
      vertex 24.2508 6.0745 5
      vertex 24.2508 -6.0745 5
      vertex 24.5196 -4.87726 5
    endloop
  endfacet
  facet normal 0 0 1
    outer loop
      vertex 23.9235 7.25712 5
      vertex 24.2508 -6.0745 5
      vertex 24.2508 6.0745 5
    endloop
  endfacet
  facet normal 0 0 1
    outer loop
      vertex 23.9235 7.25712 5
      vertex 23.9235 -7.25712 5
      vertex 24.2508 -6.0745 5
    endloop
  endfacet
  facet normal 0 0 1
    outer loop
      vertex 23.5386 8.42225 5
      vertex 23.9235 -7.25712 5
      vertex 23.9235 7.25712 5
    endloop
  endfacet
  facet normal 0 0 1
    outer loop
      vertex 23.5386 8.42225 5
      vertex 23.5386 -8.42225 5
      vertex 23.9235 -7.25712 5
    endloop
  endfacet
  facet normal 0 0 1
    outer loop
      vertex 23.097 9.56709 5
      vertex 23.5386 -8.42225 5
      vertex 23.5386 8.42225 5
    endloop
  endfacet
  facet normal 0 0 1
    outer loop
      vertex 23.097 9.56709 5
      vertex 23.097 -9.56709 5
      vertex 23.5386 -8.42225 5
    endloop
  endfacet
  facet normal 0 0 1
    outer loop
      vertex 22.5997 10.6889 5
      vertex 23.097 -9.56709 5
      vertex 23.097 9.56709 5
    endloop
  endfacet
  facet normal 0 0 1
    outer loop
      vertex 22.5997 10.6889 5
      vertex 22.5997 -10.6889 5
      vertex 23.097 -9.56709 5
    endloop
  endfacet
  facet normal 0 0 1
    outer loop
      vertex 22.048 11.7849 5
      vertex 22.5997 -10.6889 5
      vertex 22.5997 10.6889 5
    endloop
  endfacet
  facet normal 0 0 1
    outer loop
      vertex 22.048 11.7849 5
      vertex 22.048 -11.7849 5
      vertex 22.5997 -10.6889 5
    endloop
  endfacet
  facet normal 0 0 1
    outer loop
      vertex 21.4432 12.8526 5
      vertex 22.048 -11.7849 5
      vertex 22.048 11.7849 5
    endloop
  endfacet
  facet normal 0 0 1
    outer loop
      vertex 21.4432 12.8526 5
      vertex 21.4432 -12.8526 5
      vertex 22.048 -11.7849 5
    endloop
  endfacet
  facet normal 0 0 1
    outer loop
      vertex 20.7867 13.8893 5
      vertex 21.4432 -12.8526 5
      vertex 21.4432 12.8526 5
    endloop
  endfacet
  facet normal 0 0 1
    outer loop
      vertex 20.7867 13.8893 5
      vertex 20.7867 -13.8893 5
      vertex 21.4432 -12.8526 5
    endloop
  endfacet
  facet normal 0 0 1
    outer loop
      vertex 20.0802 14.8925 5
      vertex 20.7867 -13.8893 5
      vertex 20.7867 13.8893 5
    endloop
  endfacet
  facet normal 0 0 1
    outer loop
      vertex 20.0802 14.8925 5
      vertex 20.0802 -14.8925 5
      vertex 20.7867 -13.8893 5
    endloop
  endfacet
  facet normal 0 0 1
    outer loop
      vertex 19.3253 15.8598 5
      vertex 20.0802 -14.8925 5
      vertex 20.0802 14.8925 5
    endloop
  endfacet
  facet normal 0 0 1
    outer loop
      vertex 19.3253 15.8598 5
      vertex 19.3253 -15.8598 5
      vertex 20.0802 -14.8925 5
    endloop
  endfacet
  facet normal 0 0 1
    outer loop
      vertex 18.5238 16.789 5
      vertex 19.3253 -15.8598 5
      vertex 19.3253 15.8598 5
    endloop
  endfacet
  facet normal 0 0 1
    outer loop
      vertex 18.5238 16.789 5
      vertex 18.5238 -16.789 5
      vertex 19.3253 -15.8598 5
    endloop
  endfacet
  facet normal 0 0 1
    outer loop
      vertex 17.6777 17.6777 5
      vertex 18.5238 -16.789 5
      vertex 18.5238 16.789 5
    endloop
  endfacet
  facet normal 0 0 1
    outer loop
      vertex 17.6777 17.6777 5
      vertex 17.6777 -17.6777 5
      vertex 18.5238 -16.789 5
    endloop
  endfacet
  facet normal 0 0 1
    outer loop
      vertex 16.789 18.5238 5
      vertex 17.6777 -17.6777 5
      vertex 17.6777 17.6777 5
    endloop
  endfacet
  facet normal 0 0 1
    outer loop
      vertex 16.789 18.5238 5
      vertex 16.789 -18.5238 5
      vertex 17.6777 -17.6777 5
    endloop
  endfacet
  facet normal 0 0 1
    outer loop
      vertex 15.8598 19.3253 5
      vertex 16.789 -18.5238 5
      vertex 16.789 18.5238 5
    endloop
  endfacet
  facet normal 0 0 1
    outer loop
      vertex 15.8598 19.3253 5
      vertex 15.8598 -19.3253 5
      vertex 16.789 -18.5238 5
    endloop
  endfacet
  facet normal 0 0 1
    outer loop
      vertex 14.8925 20.0802 5
      vertex 15.8598 -19.3253 5
      vertex 15.8598 19.3253 5
    endloop
  endfacet
  facet normal 0 0 1
    outer loop
      vertex 14.8925 20.0802 5
      vertex 14.8925 -20.0802 5
      vertex 15.8598 -19.3253 5
    endloop
  endfacet
  facet normal 0 0 1
    outer loop
      vertex 13.8893 20.7867 5
      vertex 14.8925 -20.0802 5
      vertex 14.8925 20.0802 5
    endloop
  endfacet
  facet normal 0 0 1
    outer loop
      vertex 13.8893 20.7867 5
      vertex 13.8893 -20.7867 5
      vertex 14.8925 -20.0802 5
    endloop
  endfacet
  facet normal 0 0 1
    outer loop
      vertex 12.8526 21.4432 5
      vertex 13.8893 -20.7867 5
      vertex 13.8893 20.7867 5
    endloop
  endfacet
  facet normal 0 0 1
    outer loop
      vertex 12.8526 21.4432 5
      vertex 12.8526 -21.4432 5
      vertex 13.8893 -20.7867 5
    endloop
  endfacet
  facet normal 0 0 1
    outer loop
      vertex 11.7849 22.048 5
      vertex 12.8526 -21.4432 5
      vertex 12.8526 21.4432 5
    endloop
  endfacet
  facet normal 0 0 1
    outer loop
      vertex 11.7849 22.048 5
      vertex 11.7849 -22.048 5
      vertex 12.8526 -21.4432 5
    endloop
  endfacet
  facet normal 0 0 1
    outer loop
      vertex 10.6889 22.5997 5
      vertex 11.7849 -22.048 5
      vertex 11.7849 22.048 5
    endloop
  endfacet
  facet normal 0 0 1
    outer loop
      vertex 10.6889 22.5997 5
      vertex 10.6889 -22.5997 5
      vertex 11.7849 -22.048 5
    endloop
  endfacet
  facet normal 0 0 1
    outer loop
      vertex 9.56709 23.097 5
      vertex 10.6889 -22.5997 5
      vertex 10.6889 22.5997 5
    endloop
  endfacet
  facet normal 0 0 1
    outer loop
      vertex 9.56709 23.097 5
      vertex 9.56709 -23.097 5
      vertex 10.6889 -22.5997 5
    endloop
  endfacet
  facet normal 0 0 1
    outer loop
      vertex 8.42225 23.5386 5
      vertex 9.56709 -23.097 5
      vertex 9.56709 23.097 5
    endloop
  endfacet
  facet normal 0 0 1
    outer loop
      vertex 8.42225 23.5386 5
      vertex 8.42225 -23.5386 5
      vertex 9.56709 -23.097 5
    endloop
  endfacet
  facet normal 0 0 1
    outer loop
      vertex 7.25712 23.9235 5
      vertex 8.42225 -23.5386 5
      vertex 8.42225 23.5386 5
    endloop
  endfacet
  facet normal 0 0 1
    outer loop
      vertex 7.25712 23.9235 5
      vertex 7.25712 -23.9235 5
      vertex 8.42225 -23.5386 5
    endloop
  endfacet
  facet normal 0 0 1
    outer loop
      vertex 6.0745 24.2508 5
      vertex 7.25712 -23.9235 5
      vertex 7.25712 23.9235 5
    endloop
  endfacet
  facet normal 0 0 1
    outer loop
      vertex 6.0745 24.2508 5
      vertex 6.0745 -24.2508 5
      vertex 7.25712 -23.9235 5
    endloop
  endfacet
  facet normal 0 0 1
    outer loop
      vertex 4.87726 24.5196 5
      vertex 6.0745 -24.2508 5
      vertex 6.0745 24.2508 5
    endloop
  endfacet
  facet normal 0 0 1
    outer loop
      vertex 4.87726 24.5196 5
      vertex 4.87726 -24.5196 5
      vertex 6.0745 -24.2508 5
    endloop
  endfacet
  facet normal 0 0 1
    outer loop
      vertex 3.66826 24.7294 5
      vertex 4.87726 -24.5196 5
      vertex 4.87726 24.5196 5
    endloop
  endfacet
  facet normal 0 0 1
    outer loop
      vertex 3.66826 24.7294 5
      vertex 3.66826 -24.7294 5
      vertex 4.87726 -24.5196 5
    endloop
  endfacet
  facet normal 0 0 1
    outer loop
      vertex 2.45043 24.8796 5
      vertex 3.66826 -24.7294 5
      vertex 3.66826 24.7294 5
    endloop
  endfacet
  facet normal 0 0 1
    outer loop
      vertex 2.45043 24.8796 5
      vertex 2.45043 -24.8796 5
      vertex 3.66826 -24.7294 5
    endloop
  endfacet
  facet normal 0 0 1
    outer loop
      vertex 1.22669 24.9699 5
      vertex 2.45043 -24.8796 5
      vertex 2.45043 24.8796 5
    endloop
  endfacet
  facet normal 0 0 1
    outer loop
      vertex 1.22669 24.9699 5
      vertex 1.22669 -24.9699 5
      vertex 2.45043 -24.8796 5
    endloop
  endfacet
  facet normal 0 0 1
    outer loop
      vertex 0 25 5
      vertex 1.22669 -24.9699 5
      vertex 1.22669 24.9699 5
    endloop
  endfacet
  facet normal 0 0 1
    outer loop
      vertex 0 25 5
      vertex 0 -25 5
      vertex 1.22669 -24.9699 5
    endloop
  endfacet
  facet normal -0 0 1
    outer loop
      vertex -1.22669 24.9699 5
      vertex 0 -25 5
      vertex 0 25 5
    endloop
  endfacet
  facet normal 0 0 1
    outer loop
      vertex -1.22669 24.9699 5
      vertex -1.22669 -24.9699 5
      vertex 0 -25 5
    endloop
  endfacet
  facet normal -0 0 1
    outer loop
      vertex -2.45043 24.8796 5
      vertex -1.22669 -24.9699 5
      vertex -1.22669 24.9699 5
    endloop
  endfacet
  facet normal 0 0 1
    outer loop
      vertex -2.45043 24.8796 5
      vertex -2.45043 -24.8796 5
      vertex -1.22669 -24.9699 5
    endloop
  endfacet
  facet normal -0 0 1
    outer loop
      vertex -3.66826 24.7294 5
      vertex -2.45043 -24.8796 5
      vertex -2.45043 24.8796 5
    endloop
  endfacet
  facet normal 0 0 1
    outer loop
      vertex -3.66826 24.7294 5
      vertex -3.66826 -24.7294 5
      vertex -2.45043 -24.8796 5
    endloop
  endfacet
  facet normal -0 0 1
    outer loop
      vertex -4.87726 24.5196 5
      vertex -3.66826 -24.7294 5
      vertex -3.66826 24.7294 5
    endloop
  endfacet
  facet normal 0 0 1
    outer loop
      vertex -4.87726 24.5196 5
      vertex -4.87726 -24.5196 5
      vertex -3.66826 -24.7294 5
    endloop
  endfacet
  facet normal -0 0 1
    outer loop
      vertex -6.0745 24.2508 5
      vertex -4.87726 -24.5196 5
      vertex -4.87726 24.5196 5
    endloop
  endfacet
  facet normal 0 0 1
    outer loop
      vertex -6.0745 24.2508 5
      vertex -6.0745 -24.2508 5
      vertex -4.87726 -24.5196 5
    endloop
  endfacet
  facet normal -0 0 1
    outer loop
      vertex -7.25712 23.9235 5
      vertex -6.0745 -24.2508 5
      vertex -6.0745 24.2508 5
    endloop
  endfacet
  facet normal 0 0 1
    outer loop
      vertex -7.25712 23.9235 5
      vertex -7.25712 -23.9235 5
      vertex -6.0745 -24.2508 5
    endloop
  endfacet
  facet normal -0 0 1
    outer loop
      vertex -8.42225 23.5386 5
      vertex -7.25712 -23.9235 5
      vertex -7.25712 23.9235 5
    endloop
  endfacet
  facet normal 0 0 1
    outer loop
      vertex -8.42225 23.5386 5
      vertex -8.42225 -23.5386 5
      vertex -7.25712 -23.9235 5
    endloop
  endfacet
  facet normal -0 0 1
    outer loop
      vertex -9.56709 23.097 5
      vertex -8.42225 -23.5386 5
      vertex -8.42225 23.5386 5
    endloop
  endfacet
  facet normal 0 0 1
    outer loop
      vertex -9.56709 23.097 5
      vertex -9.56709 -23.097 5
      vertex -8.42225 -23.5386 5
    endloop
  endfacet
  facet normal -0 0 1
    outer loop
      vertex -10.6889 22.5997 5
      vertex -9.56709 -23.097 5
      vertex -9.56709 23.097 5
    endloop
  endfacet
  facet normal 0 0 1
    outer loop
      vertex -10.6889 22.5997 5
      vertex -10.6889 -22.5997 5
      vertex -9.56709 -23.097 5
    endloop
  endfacet
  facet normal -0 0 1
    outer loop
      vertex -11.7849 22.048 5
      vertex -10.6889 -22.5997 5
      vertex -10.6889 22.5997 5
    endloop
  endfacet
  facet normal 0 0 1
    outer loop
      vertex -11.7849 22.048 5
      vertex -11.7849 -22.048 5
      vertex -10.6889 -22.5997 5
    endloop
  endfacet
  facet normal -0 0 1
    outer loop
      vertex -12.8526 21.4432 5
      vertex -11.7849 -22.048 5
      vertex -11.7849 22.048 5
    endloop
  endfacet
  facet normal 0 0 1
    outer loop
      vertex -12.8526 21.4432 5
      vertex -12.8526 -21.4432 5
      vertex -11.7849 -22.048 5
    endloop
  endfacet
  facet normal -0 0 1
    outer loop
      vertex -13.8893 20.7867 5
      vertex -12.8526 -21.4432 5
      vertex -12.8526 21.4432 5
    endloop
  endfacet
  facet normal 0 0 1
    outer loop
      vertex -13.8893 20.7867 5
      vertex -13.8893 -20.7867 5
      vertex -12.8526 -21.4432 5
    endloop
  endfacet
  facet normal -0 0 1
    outer loop
      vertex -14.8925 20.0802 5
      vertex -13.8893 -20.7867 5
      vertex -13.8893 20.7867 5
    endloop
  endfacet
  facet normal 0 0 1
    outer loop
      vertex -14.8925 20.0802 5
      vertex -14.8925 -20.0802 5
      vertex -13.8893 -20.7867 5
    endloop
  endfacet
  facet normal -0 0 1
    outer loop
      vertex -15.8598 19.3253 5
      vertex -14.8925 -20.0802 5
      vertex -14.8925 20.0802 5
    endloop
  endfacet
  facet normal 0 0 1
    outer loop
      vertex -15.8598 19.3253 5
      vertex -15.8598 -19.3253 5
      vertex -14.8925 -20.0802 5
    endloop
  endfacet
  facet normal -0 0 1
    outer loop
      vertex -16.789 18.5238 5
      vertex -15.8598 -19.3253 5
      vertex -15.8598 19.3253 5
    endloop
  endfacet
  facet normal 0 0 1
    outer loop
      vertex -16.789 18.5238 5
      vertex -16.789 -18.5238 5
      vertex -15.8598 -19.3253 5
    endloop
  endfacet
  facet normal -0 0 1
    outer loop
      vertex -17.6777 17.6777 5
      vertex -16.789 -18.5238 5
      vertex -16.789 18.5238 5
    endloop
  endfacet
  facet normal 0 0 1
    outer loop
      vertex -17.6777 17.6777 5
      vertex -17.6777 -17.6777 5
      vertex -16.789 -18.5238 5
    endloop
  endfacet
  facet normal -0 0 1
    outer loop
      vertex -18.5238 16.789 5
      vertex -17.6777 -17.6777 5
      vertex -17.6777 17.6777 5
    endloop
  endfacet
  facet normal 0 0 1
    outer loop
      vertex -18.5238 16.789 5
      vertex -18.5238 -16.789 5
      vertex -17.6777 -17.6777 5
    endloop
  endfacet
  facet normal -0 0 1
    outer loop
      vertex -19.3253 15.8598 5
      vertex -18.5238 -16.789 5
      vertex -18.5238 16.789 5
    endloop
  endfacet
  facet normal 0 0 1
    outer loop
      vertex -19.3253 15.8598 5
      vertex -19.3253 -15.8598 5
      vertex -18.5238 -16.789 5
    endloop
  endfacet
  facet normal -0 0 1
    outer loop
      vertex -20.0802 14.8925 5
      vertex -19.3253 -15.8598 5
      vertex -19.3253 15.8598 5
    endloop
  endfacet
  facet normal 0 0 1
    outer loop
      vertex -20.0802 14.8925 5
      vertex -20.0802 -14.8925 5
      vertex -19.3253 -15.8598 5
    endloop
  endfacet
  facet normal -0 0 1
    outer loop
      vertex -20.7867 13.8893 5
      vertex -20.0802 -14.8925 5
      vertex -20.0802 14.8925 5
    endloop
  endfacet
  facet normal 0 0 1
    outer loop
      vertex -20.7867 13.8893 5
      vertex -20.7867 -13.8893 5
      vertex -20.0802 -14.8925 5
    endloop
  endfacet
  facet normal -0 0 1
    outer loop
      vertex -21.4432 12.8526 5
      vertex -20.7867 -13.8893 5
      vertex -20.7867 13.8893 5
    endloop
  endfacet
  facet normal 0 0 1
    outer loop
      vertex -21.4432 12.8526 5
      vertex -21.4432 -12.8526 5
      vertex -20.7867 -13.8893 5
    endloop
  endfacet
  facet normal -0 0 1
    outer loop
      vertex -22.048 11.7849 5
      vertex -21.4432 -12.8526 5
      vertex -21.4432 12.8526 5
    endloop
  endfacet
  facet normal 0 0 1
    outer loop
      vertex -22.048 11.7849 5
      vertex -22.048 -11.7849 5
      vertex -21.4432 -12.8526 5
    endloop
  endfacet
  facet normal -0 0 1
    outer loop
      vertex -22.5997 10.6889 5
      vertex -22.048 -11.7849 5
      vertex -22.048 11.7849 5
    endloop
  endfacet
  facet normal 0 0 1
    outer loop
      vertex -22.5997 10.6889 5
      vertex -22.5997 -10.6889 5
      vertex -22.048 -11.7849 5
    endloop
  endfacet
  facet normal -0 0 1
    outer loop
      vertex -23.097 9.56709 5
      vertex -22.5997 -10.6889 5
      vertex -22.5997 10.6889 5
    endloop
  endfacet
  facet normal 0 0 1
    outer loop
      vertex -23.097 9.56709 5
      vertex -23.097 -9.56709 5
      vertex -22.5997 -10.6889 5
    endloop
  endfacet
  facet normal -0 0 1
    outer loop
      vertex -23.5386 8.42225 5
      vertex -23.097 -9.56709 5
      vertex -23.097 9.56709 5
    endloop
  endfacet
  facet normal 0 0 1
    outer loop
      vertex -23.5386 8.42225 5
      vertex -23.5386 -8.42225 5
      vertex -23.097 -9.56709 5
    endloop
  endfacet
  facet normal -0 0 1
    outer loop
      vertex -23.9235 7.25712 5
      vertex -23.5386 -8.42225 5
      vertex -23.5386 8.42225 5
    endloop
  endfacet
  facet normal 0 0 1
    outer loop
      vertex -23.9235 7.25712 5
      vertex -23.9235 -7.25712 5
      vertex -23.5386 -8.42225 5
    endloop
  endfacet
  facet normal -0 0 1
    outer loop
      vertex -24.2508 6.0745 5
      vertex -23.9235 -7.25712 5
      vertex -23.9235 7.25712 5
    endloop
  endfacet
  facet normal 0 0 1
    outer loop
      vertex -24.2508 6.0745 5
      vertex -24.2508 -6.0745 5
      vertex -23.9235 -7.25712 5
    endloop
  endfacet
  facet normal -0 0 1
    outer loop
      vertex -24.5196 4.87726 5
      vertex -24.2508 -6.0745 5
      vertex -24.2508 6.0745 5
    endloop
  endfacet
  facet normal 0 0 1
    outer loop
      vertex -24.5196 4.87726 5
      vertex -24.5196 -4.87726 5
      vertex -24.2508 -6.0745 5
    endloop
  endfacet
  facet normal -0 0 1
    outer loop
      vertex -24.7294 3.66826 5
      vertex -24.5196 -4.87726 5
      vertex -24.5196 4.87726 5
    endloop
  endfacet
  facet normal 0 0 1
    outer loop
      vertex -24.7294 3.66826 5
      vertex -24.7294 -3.66826 5
      vertex -24.5196 -4.87726 5
    endloop
  endfacet
  facet normal -0 0 1
    outer loop
      vertex -24.8796 2.45043 5
      vertex -24.7294 -3.66826 5
      vertex -24.7294 3.66826 5
    endloop
  endfacet
  facet normal 0 0 1
    outer loop
      vertex -24.8796 2.45043 5
      vertex -24.8796 -2.45043 5
      vertex -24.7294 -3.66826 5
    endloop
  endfacet
  facet normal -0 0 1
    outer loop
      vertex -24.9699 1.22669 5
      vertex -24.8796 -2.45043 5
      vertex -24.8796 2.45043 5
    endloop
  endfacet
  facet normal 0 0 1
    outer loop
      vertex -24.9699 1.22669 5
      vertex -24.9699 -1.22669 5
      vertex -24.8796 -2.45043 5
    endloop
  endfacet
  facet normal 0 -0 1
    outer loop
      vertex -24.9699 -1.22669 5
      vertex -24.9699 1.22669 5
      vertex -25 0 5
    endloop
  endfacet
  facet normal -0.997289 0.0735901 0
    outer loop
      vertex -24.9699 1.22669 0
      vertex -24.8796 2.45043 5
      vertex -24.8796 2.45043 0
    endloop
  endfacet
  facet normal -0.997289 0.0735901 0
    outer loop
      vertex -24.8796 2.45043 5
      vertex -24.9699 1.22669 0
      vertex -24.9699 1.22669 5
    endloop
  endfacet
  facet normal -0.985275 0.170977 0
    outer loop
      vertex -24.7294 3.66826 0
      vertex -24.5196 4.87726 5
      vertex -24.5196 4.87726 0
    endloop
  endfacet
  facet normal -0.985275 0.170977 0
    outer loop
      vertex -24.5196 4.87726 5
      vertex -24.7294 3.66826 0
      vertex -24.7294 3.66826 5
    endloop
  endfacet
  facet normal -0.170977 -0.985275 0
    outer loop
      vertex -4.87726 -24.5196 0
      vertex -3.66826 -24.7294 5
      vertex -4.87726 -24.5196 5
    endloop
  endfacet
  facet normal -0.170977 -0.985275 -0
    outer loop
      vertex -3.66826 -24.7294 5
      vertex -4.87726 -24.5196 0
      vertex -3.66826 -24.7294 0
    endloop
  endfacet
  facet normal 0.313677 -0.94953 0
    outer loop
      vertex 7.25712 -23.9235 0
      vertex 8.42225 -23.5386 5
      vertex 7.25712 -23.9235 5
    endloop
  endfacet
  facet normal 0.313677 -0.94953 0
    outer loop
      vertex 8.42225 -23.5386 5
      vertex 7.25712 -23.9235 0
      vertex 8.42225 -23.5386 0
    endloop
  endfacet
  facet normal -0.266732 0.963771 0
    outer loop
      vertex -6.0745 24.2508 0
      vertex -7.25712 23.9235 5
      vertex -6.0745 24.2508 5
    endloop
  endfacet
  facet normal -0.266732 0.963771 0
    outer loop
      vertex -7.25712 23.9235 5
      vertex -6.0745 24.2508 0
      vertex -7.25712 23.9235 0
    endloop
  endfacet
  facet normal -0.788342 -0.615238 0
    outer loop
      vertex -19.3253 -15.8598 0
      vertex -20.0802 -14.8925 5
      vertex -20.0802 -14.8925 0
    endloop
  endfacet
  facet normal -0.788342 -0.615238 0
    outer loop
      vertex -20.0802 -14.8925 5
      vertex -19.3253 -15.8598 0
      vertex -19.3253 -15.8598 5
    endloop
  endfacet
  facet normal -0.963771 -0.266732 0
    outer loop
      vertex -23.9235 -7.25712 0
      vertex -24.2508 -6.0745 5
      vertex -24.2508 -6.0745 0
    endloop
  endfacet
  facet normal -0.963771 -0.266732 0
    outer loop
      vertex -24.2508 -6.0745 5
      vertex -23.9235 -7.25712 0
      vertex -23.9235 -7.25712 5
    endloop
  endfacet
  facet normal -0.449624 -0.893218 0
    outer loop
      vertex -11.7849 -22.048 0
      vertex -10.6889 -22.5997 5
      vertex -11.7849 -22.048 5
    endloop
  endfacet
  facet normal -0.449624 -0.893218 -0
    outer loop
      vertex -10.6889 -22.5997 5
      vertex -11.7849 -22.048 0
      vertex -10.6889 -22.5997 0
    endloop
  endfacet
  facet normal -0.870103 0.492871 0
    outer loop
      vertex -22.048 11.7849 0
      vertex -21.4432 12.8526 5
      vertex -21.4432 12.8526 0
    endloop
  endfacet
  facet normal -0.870103 0.492871 0
    outer loop
      vertex -21.4432 12.8526 5
      vertex -22.048 11.7849 0
      vertex -22.048 11.7849 5
    endloop
  endfacet
  facet normal -0.405266 0.914199 0
    outer loop
      vertex -9.56709 23.097 0
      vertex -10.6889 22.5997 5
      vertex -9.56709 23.097 5
    endloop
  endfacet
  facet normal -0.405266 0.914199 0
    outer loop
      vertex -10.6889 22.5997 5
      vertex -9.56709 23.097 0
      vertex -10.6889 22.5997 0
    endloop
  endfacet
  facet normal -0.57579 -0.817598 0
    outer loop
      vertex -14.8925 -20.0802 0
      vertex -13.8893 -20.7867 5
      vertex -14.8925 -20.0802 5
    endloop
  endfacet
  facet normal -0.57579 -0.817598 -0
    outer loop
      vertex -13.8893 -20.7867 5
      vertex -14.8925 -20.0802 0
      vertex -13.8893 -20.7867 0
    endloop
  endfacet
  facet normal -0.535007 -0.844847 0
    outer loop
      vertex -13.8893 -20.7867 0
      vertex -12.8526 -21.4432 5
      vertex -13.8893 -20.7867 5
    endloop
  endfacet
  facet normal -0.535007 -0.844847 -0
    outer loop
      vertex -12.8526 -21.4432 5
      vertex -13.8893 -20.7867 0
      vertex -12.8526 -21.4432 0
    endloop
  endfacet
endsolid OpenSCAD_Model
