<?xml version="1.0" encoding="UTF-8"?>
<svg xmlns="http://www.w3.org/2000/svg" viewBox="0 0 100 100" width="100mm" height="100mm">
  <path d="M 45.25 53.75 L 44.62 54.38 L 43.62 57.62 L 40.38 62.00 L 39.25 65.25 L 39.88 68.62 L 44.50 76.00 L 45.75 79.25 L 45.75 81.62 L 45.12 83.62 L 41.38 92.12 L 40.88 95.38 L 41.12 97.50 L 45.62 98.25 L 54.25 98.25 L 58.88 97.38 L 58.62 92.62 L 57.62 89.62 L 54.75 83.62 L 54.12 81.62 L 54.12 79.25 L 55.38 76.00 L 60.00 68.62 L 60.62 66.12 L 60.38 63.88 L 59.50 62.00 L 56.25 57.62 L 54.88 53.88 L 48.75 54.50 Z" fill="black" stroke="none"/>
  <path d="M 27.00 18.00 L 30.38 22.88 L 32.50 27.12 L 33.25 27.25 L 40.75 24.38 L 49.25 23.25 L 58.00 24.12 L 66.62 27.25 L 67.38 27.12 L 69.50 22.88 L 72.88 18.00 L 68.38 18.88 L 63.75 21.25 L 67.75 13.12 L 61.50 14.75 L 56.50 18.12 L 54.25 12.25 L 59.00 8.00 L 52.50 7.50 L 50.00 1.62 L 47.38 7.50 L 40.88 8.00 L 45.50 12.12 L 43.62 17.88 L 43.25 18.12 L 38.38 14.75 L 32.12 13.12 L 35.12 18.50 L 35.88 21.38 L 31.50 18.88 Z" fill="black" stroke="none"/>
  <path d="M 48.25 25.75 L 45.50 26.50 L 43.62 27.50 L 41.88 29.00 L 40.50 31.38 L 40.50 31.88 L 43.00 31.25 L 45.00 31.38 L 47.25 32.38 L 48.38 33.88 L 48.25 37.75 L 47.75 38.00 L 46.50 37.25 L 44.62 37.75 L 42.75 37.75 L 41.88 37.25 L 40.88 37.25 L 40.25 38.12 L 40.25 40.75 L 41.25 44.12 L 43.75 48.12 L 45.88 50.12 L 47.38 51.00 L 49.12 51.50 L 50.75 51.50 L 53.62 50.38 L 56.25 48.00 L 58.62 44.12 L 59.62 40.75 L 59.62 38.25 L 58.75 37.12 L 57.25 37.75 L 55.38 37.75 L 53.75 37.25 L 52.88 38.62 L 52.00 39.25 L 51.50 38.25 L 51.25 36.38 L 51.62 33.50 L 53.00 32.12 L 54.88 31.38 L 56.88 31.25 L 59.38 31.88 L 59.38 31.38 L 58.00 29.00 L 55.88 27.25 L 53.38 26.12 L 51.62 25.75 Z" fill="black" stroke="none"/>
  <path d="M 58.75 26.88 L 61.62 32.00 L 62.50 37.88 L 61.62 42.00 L 58.38 49.88 L 58.12 54.12 L 59.50 57.62 L 63.38 63.00 L 64.00 66.00 L 62.62 70.12 L 58.12 77.50 L 57.62 81.25 L 58.38 83.88 L 62.12 91.88 L 62.88 96.62 L 66.38 95.50 L 66.38 93.50 L 65.38 90.12 L 61.88 83.25 L 61.12 79.50 L 62.50 75.62 L 66.75 68.62 L 67.25 64.75 L 66.12 61.88 L 62.25 56.75 L 61.12 54.00 L 61.50 49.38 L 64.75 40.50 L 64.62 35.50 L 62.25 30.12 L 59.75 27.38 Z" fill="black" stroke="none"/>
  <path d="M 41.12 26.88 L 40.12 27.38 L 37.62 30.12 L 35.25 35.50 L 35.12 40.50 L 38.38 49.38 L 38.75 54.00 L 37.62 56.75 L 33.75 61.88 L 32.62 64.75 L 33.12 68.62 L 37.38 75.62 L 38.75 79.50 L 38.00 83.25 L 34.62 89.88 L 33.50 93.62 L 33.50 95.50 L 37.00 96.62 L 37.75 91.88 L 41.50 83.88 L 42.25 81.25 L 41.75 77.50 L 37.25 70.12 L 35.88 66.00 L 36.50 63.00 L 40.38 57.62 L 41.75 54.12 L 41.50 49.88 L 38.25 42.00 L 37.38 37.88 L 38.38 31.62 Z" fill="black" stroke="none"/>
  <path d="M 28.25 30.12 L 26.25 29.50 L 23.12 29.25 L 20.25 29.75 L 18.50 30.38 L 16.75 31.38 L 16.38 31.25 L 15.75 28.75 L 14.50 26.25 L 12.38 23.75 L 11.25 22.88 L 10.62 23.00 L 10.50 27.25 L 9.00 32.25 L 6.25 37.12 L 3.88 40.25 L 1.50 42.88 L 2.25 43.12 L 5.25 42.88 L 11.62 40.12 L 13.88 39.50 L 16.62 39.38 L 18.75 39.88 L 21.75 36.00 L 25.00 32.75 Z" fill="black" stroke="none"/>
  <path d="M 71.62 30.25 L 74.88 32.75 L 78.12 36.00 L 80.88 39.62 L 81.75 39.75 L 83.25 39.38 L 86.00 39.50 L 88.25 40.12 L 94.62 42.88 L 95.88 43.12 L 97.62 43.12 L 98.38 42.88 L 93.88 37.50 L 92.12 34.75 L 90.75 32.00 L 89.38 27.25 L 89.25 23.00 L 89.00 22.75 L 87.38 23.88 L 85.38 26.25 L 84.12 28.75 L 83.38 31.38 L 79.62 29.75 L 76.75 29.25 L 73.62 29.50 Z" fill="black" stroke="none"/>
  <path d="M 67.50 30.38 L 70.38 34.88 L 71.75 39.75 L 71.50 44.25 L 69.62 51.00 L 69.62 54.12 L 70.75 56.62 L 75.00 62.38 L 76.00 65.12 L 75.75 67.88 L 73.50 72.75 L 77.38 75.62 L 80.50 76.88 L 83.50 77.00 L 84.62 74.88 L 85.12 74.62 L 86.88 75.25 L 89.88 78.00 L 90.25 77.88 L 91.50 75.88 L 87.88 73.00 L 85.75 72.38 L 86.38 69.50 L 82.25 68.75 L 78.12 66.12 L 78.00 64.00 L 77.25 62.12 L 71.75 54.25 L 71.62 51.25 L 73.38 44.12 L 73.25 39.62 L 72.38 36.75 L 70.88 33.88 Z" fill="black" stroke="none"/>
  <path d="M 32.38 30.38 L 29.00 33.88 L 27.50 36.75 L 26.62 39.62 L 26.50 44.12 L 28.25 51.25 L 28.12 54.25 L 22.62 62.12 L 21.88 64.00 L 21.75 66.12 L 17.62 68.75 L 13.50 69.50 L 14.12 72.38 L 12.00 73.00 L 8.38 75.88 L 9.62 77.88 L 10.00 78.00 L 13.00 75.25 L 14.75 74.62 L 15.25 74.88 L 16.38 77.00 L 19.38 76.88 L 23.12 75.25 L 26.38 72.75 L 24.12 67.88 L 23.88 65.12 L 24.88 62.38 L 29.12 56.62 L 30.25 54.12 L 30.25 50.88 L 28.38 44.25 L 28.12 39.75 L 29.50 34.88 Z" fill="black" stroke="none"/>
  <path d="M 36.75 28.25 L 33.38 31.38 L 30.88 36.50 L 30.50 42.25 L 33.00 50.62 L 33.12 53.75 L 32.12 56.12 L 27.88 61.88 L 26.75 64.75 L 27.38 69.00 L 31.12 75.38 L 32.38 79.00 L 31.88 81.75 L 28.50 88.50 L 27.38 92.00 L 27.50 93.00 L 29.62 94.00 L 31.00 89.62 L 34.62 82.62 L 35.25 79.88 L 34.62 76.75 L 29.88 68.62 L 29.25 65.38 L 30.25 62.38 L 34.38 56.88 L 35.50 54.38 L 35.50 50.50 L 32.75 42.12 L 32.50 37.75 L 33.75 32.88 Z" fill="black" stroke="none"/>
  <path d="M 63.12 28.25 L 66.12 32.88 L 67.38 37.75 L 67.12 42.12 L 64.38 50.50 L 64.38 54.25 L 65.50 56.88 L 69.62 62.38 L 70.62 65.38 L 70.00 68.62 L 65.25 76.75 L 64.62 80.00 L 65.50 83.25 L 68.88 89.62 L 70.25 94.00 L 72.38 93.00 L 72.50 92.00 L 71.38 88.50 L 68.00 81.75 L 67.50 79.00 L 68.12 76.62 L 72.50 69.00 L 73.12 64.75 L 72.00 61.88 L 67.75 56.12 L 66.75 53.75 L 66.88 50.50 L 69.38 42.12 L 69.00 36.50 L 66.50 31.38 Z" fill="black" stroke="none"/>
  <path d="M 83.00 43.00 L 84.00 44.88 L 84.00 45.12 L 84.88 47.00 L 87.12 47.00 L 89.38 47.62 L 93.88 50.00 L 94.12 50.00 L 94.75 50.38 L 95.88 50.75 L 98.12 51.12 L 99.88 51.00 L 99.88 47.00 L 97.75 47.12 L 95.25 46.62 L 94.88 46.38 L 94.00 46.12 L 90.75 44.50 L 90.50 44.25 L 90.25 44.25 L 89.38 43.75 L 87.62 43.12 L 86.25 42.88 L 83.50 42.88 Z" fill="black" stroke="none"/>
  <path d="M 16.88 43.00 L 13.62 42.88 L 12.25 43.12 L 10.50 43.75 L 9.88 44.12 L 9.62 44.12 L 8.62 44.62 L 8.38 44.88 L 4.62 46.62 L 3.12 47.00 L 2.00 47.12 L 0.00 47.00 L 0.00 51.00 L 1.75 51.12 L 4.00 50.75 L 5.12 50.38 L 5.75 50.00 L 6.00 50.00 L 10.50 47.62 L 12.75 47.00 L 15.00 47.00 L 15.88 45.12 L 15.88 44.88 Z" fill="black" stroke="none"/>
  <path d="M 86.25 50.88 L 86.25 51.38 L 86.75 53.00 L 86.75 53.62 L 87.00 54.50 L 88.62 54.62 L 89.12 54.75 L 89.50 55.00 L 89.75 55.00 L 90.12 55.25 L 90.38 55.25 L 90.88 55.62 L 91.12 55.62 L 91.38 55.88 L 92.38 56.38 L 92.62 56.62 L 93.25 56.88 L 93.50 57.12 L 94.50 57.62 L 94.75 57.62 L 95.12 57.88 L 95.88 58.12 L 97.38 58.38 L 98.38 58.38 L 98.88 58.25 L 99.00 58.00 L 99.00 57.38 L 99.38 55.88 L 99.50 54.75 L 97.62 54.88 L 96.25 54.62 L 95.12 54.25 L 90.00 51.50 L 88.38 51.00 L 87.62 50.88 Z" fill="black" stroke="none"/>
  <path d="M 13.62 50.88 L 12.25 50.88 L 11.00 51.12 L 9.88 51.50 L 7.88 52.50 L 7.62 52.75 L 7.00 53.00 L 6.75 53.25 L 4.75 54.25 L 3.62 54.62 L 2.25 54.88 L 0.38 54.75 L 0.88 58.00 L 1.00 58.25 L 2.50 58.38 L 4.00 58.12 L 4.75 57.88 L 5.12 57.62 L 5.38 57.62 L 6.38 57.12 L 6.62 56.88 L 7.25 56.62 L 7.50 56.38 L 7.88 56.25 L 8.75 55.62 L 9.00 55.62 L 9.50 55.25 L 9.75 55.25 L 10.12 55.00 L 10.38 55.00 L 10.75 54.75 L 11.25 54.62 L 12.88 54.50 L 13.00 54.25 L 13.12 53.00 L 13.62 51.38 Z" fill="black" stroke="none"/>
  <path d="M 87.50 58.75 L 87.50 62.00 L 88.62 62.00 L 89.88 62.38 L 90.88 62.88 L 91.12 63.12 L 91.50 63.25 L 93.00 64.38 L 93.38 64.50 L 93.62 64.75 L 94.38 65.12 L 95.62 65.50 L 96.50 65.62 L 96.88 65.50 L 97.62 63.38 L 97.75 62.50 L 96.62 62.50 L 95.25 62.12 L 94.00 61.50 L 93.38 61.00 L 93.00 60.88 L 92.00 60.12 L 90.25 59.25 L 88.88 58.88 Z" fill="black" stroke="none"/>
  <path d="M 12.38 58.75 L 11.00 58.88 L 9.62 59.25 L 7.88 60.12 L 7.25 60.62 L 6.88 60.75 L 5.88 61.50 L 4.62 62.12 L 3.25 62.50 L 2.12 62.50 L 2.25 63.38 L 3.00 65.50 L 3.38 65.62 L 4.38 65.50 L 5.50 65.12 L 6.25 64.75 L 6.50 64.50 L 6.88 64.38 L 8.38 63.25 L 8.75 63.12 L 9.00 62.88 L 10.00 62.38 L 11.25 62.00 L 12.38 61.88 Z" fill="black" stroke="none"/>
  <path d="M 28.25 76.25 L 28.38 78.00 L 28.12 79.38 L 27.75 80.12 L 27.75 80.38 L 27.25 81.38 L 27.00 81.62 L 26.88 82.00 L 26.12 83.12 L 25.38 84.00 L 23.88 86.12 L 23.75 86.50 L 23.12 87.38 L 23.12 87.62 L 22.75 88.25 L 22.50 89.00 L 22.38 90.00 L 24.12 91.12 L 24.38 91.12 L 24.38 90.50 L 24.62 89.62 L 25.25 88.38 L 25.25 88.12 L 25.62 87.62 L 26.25 86.38 L 27.12 85.12 L 27.25 84.75 L 27.50 84.50 L 27.62 84.12 L 27.88 83.88 L 28.62 82.38 L 29.12 80.88 L 29.25 80.12 L 29.25 78.75 L 28.88 77.38 Z" fill="black" stroke="none"/>
  <path d="M 71.62 76.25 L 71.00 77.38 L 70.62 78.75 L 70.62 80.12 L 70.75 80.88 L 71.25 82.38 L 72.00 83.88 L 72.25 84.12 L 72.38 84.50 L 72.62 84.75 L 72.75 85.12 L 73.00 85.38 L 73.12 85.75 L 73.62 86.38 L 73.75 86.75 L 74.00 87.00 L 74.25 87.62 L 74.62 88.12 L 74.62 88.38 L 75.25 89.62 L 75.50 90.50 L 75.50 91.12 L 75.75 91.12 L 77.50 90.00 L 77.38 89.00 L 77.12 88.25 L 76.00 86.12 L 73.75 83.12 L 73.00 82.00 L 72.88 81.62 L 72.62 81.38 L 72.12 80.38 L 72.12 80.12 L 71.75 79.38 L 71.50 78.00 Z" fill="black" stroke="none"/>
  <path d="M 12.75 66.12 L 11.38 66.12 L 10.38 66.38 L 8.88 67.12 L 6.75 68.88 L 6.38 69.00 L 6.12 69.25 L 5.50 69.50 L 4.75 69.62 L 5.75 71.75 L 6.00 72.00 L 6.12 72.25 L 6.75 72.12 L 7.50 71.75 L 8.50 71.00 L 9.25 70.25 L 10.00 69.62 L 10.38 69.50 L 10.62 69.25 L 11.12 69.00 L 12.00 68.75 L 13.12 68.75 L 13.12 68.12 L 13.00 67.38 L 12.75 66.62 Z" fill="black" stroke="none"/>
  <path d="M 87.12 66.12 L 87.12 66.62 L 86.75 68.12 L 86.75 68.75 L 87.88 68.75 L 88.75 69.00 L 89.00 69.25 L 89.25 69.25 L 90.00 69.75 L 90.62 70.25 L 91.38 71.00 L 92.38 71.75 L 93.12 72.12 L 93.75 72.25 L 93.88 72.00 L 94.12 71.75 L 95.12 69.62 L 94.75 69.62 L 94.00 69.38 L 93.50 69.12 L 92.50 68.38 L 91.50 67.50 L 90.75 67.00 L 89.50 66.38 L 88.50 66.12 Z" fill="black" stroke="none"/>
  <path d="M 16.62 78.12 L 16.25 78.00 L 15.88 78.12 L 15.38 78.38 L 14.50 79.00 L 13.12 80.38 L 12.38 81.25 L 14.00 82.88 L 14.38 82.50 L 14.75 81.88 L 16.12 80.50 L 16.88 80.00 L 17.12 80.00 L 17.50 79.75 L 17.25 79.25 L 17.00 79.00 L 17.00 78.75 L 16.75 78.50 Z" fill="black" stroke="none"/>
  <path d="M 83.25 78.12 L 83.12 78.50 L 82.88 78.75 L 82.88 79.00 L 82.62 79.25 L 82.38 79.75 L 83.00 80.00 L 83.75 80.50 L 85.12 81.88 L 85.50 82.50 L 86.00 82.88 L 87.00 81.88 L 87.50 81.25 L 86.75 80.50 L 85.38 79.00 L 84.50 78.38 L 84.00 78.12 L 83.62 78.00 Z" fill="black" stroke="none"/>
  <path d="M 80.25 83.00 L 80.00 83.25 L 79.62 83.88 L 79.00 84.50 L 80.12 85.50 L 80.62 86.12 L 80.88 86.62 L 81.12 87.00 L 81.38 87.12 L 81.75 86.88 L 82.38 86.38 L 82.88 85.75 L 82.62 85.50 L 82.25 84.88 L 81.75 84.25 L 81.00 83.50 L 80.50 83.12 Z" fill="black" stroke="none"/>
  <path d="M 19.62 83.00 L 19.38 83.12 L 18.88 83.50 L 18.12 84.25 L 17.25 85.38 L 17.00 85.88 L 17.50 86.38 L 18.12 86.88 L 18.75 87.00 L 19.00 86.62 L 19.25 86.12 L 19.75 85.50 L 20.88 84.50 L 20.25 83.88 L 19.88 83.25 Z" fill="black" stroke="none"/>
  <path d="M 40.62 33.75 L 40.62 34.75 L 40.75 35.00 L 41.25 35.12 L 41.62 34.88 L 42.38 34.62 L 44.38 34.62 L 45.00 34.75 L 45.62 35.00 L 45.88 35.00 L 46.12 35.12 L 46.12 34.75 L 46.00 34.50 L 45.50 34.00 L 45.12 33.75 L 44.62 33.50 L 43.88 33.25 L 43.38 33.12 L 41.75 33.12 L 41.25 33.25 L 41.00 33.38 Z" fill="black" stroke="none"/>
  <path d="M 54.12 34.38 L 54.12 35.00 L 54.50 35.00 L 55.00 34.75 L 55.62 34.62 L 57.62 34.62 L 58.00 34.75 L 58.50 35.00 L 58.88 35.25 L 59.12 35.00 L 59.25 34.75 L 59.25 33.75 L 58.88 33.38 L 58.62 33.25 L 58.12 33.12 L 56.50 33.12 L 55.88 33.25 L 55.50 33.38 L 54.75 33.75 Z" fill="black" stroke="none"/>
</svg>