<?xml version="1.0" encoding="UTF-8" standalone="no"?>
<!-- Created with Inkscape (http://www.inkscape.org/) -->

<svg
   xmlns:dc="http://purl.org/dc/elements/1.1/"
   xmlns:cc="http://creativecommons.org/ns#"
   xmlns:rdf="http://www.w3.org/1999/02/22-rdf-syntax-ns#"
   xmlns:svg="http://www.w3.org/2000/svg"
   xmlns="http://www.w3.org/2000/svg"
   xmlns:sodipodi="http://sodipodi.sourceforge.net/DTD/sodipodi-0.dtd"
   xmlns:inkscape="http://www.inkscape.org/namespaces/inkscape"
   id="svg5285"
   version="1.1"
   inkscape:version="0.91 r13725"
   xml:space="preserve"
   width="400"
   height="1172.5398"
   viewBox="0 0 400 1172.5398"
   sodipodi:docname="Trident.svg"><metadata
     id="metadata5291"><rdf:RDF><cc:Work
         rdf:about=""><dc:format>image/svg+xml</dc:format><dc:type
           rdf:resource="http://purl.org/dc/dcmitype/StillImage" /><dc:title></dc:title></cc:Work></rdf:RDF></metadata><defs
     id="defs5289" /><sodipodi:namedview
     pagecolor="#ffffff"
     bordercolor="#666666"
     borderopacity="1"
     objecttolerance="10"
     gridtolerance="10"
     guidetolerance="10"
     inkscape:pageopacity="0"
     inkscape:pageshadow="2"
     inkscape:window-width="1600"
     inkscape:window-height="837"
     id="namedview5287"
     showgrid="true"
     inkscape:snap-smooth-nodes="true"
     inkscape:object-nodes="true"
     fit-margin-top="0"
     fit-margin-left="0"
     fit-margin-right="0"
     fit-margin-bottom="0"
     inkscape:zoom="0.5714092"
     inkscape:cx="200"
     inkscape:cy="586.26988"
     inkscape:window-x="-8"
     inkscape:window-y="-8"
     inkscape:window-maximized="1"
     inkscape:current-layer="g5293" /><g
     id="g5293"
     inkscape:groupmode="layer"
     inkscape:label="flag-1040529"
     transform="matrix(1.25,0,0,-1.25,-321.18261,1896.2898)"><path
       d="m 435.55502,579 0,684.7224 c 18.17609,-1.1966 41.80322,-5.3848 59.74764,-9.2726 3.58731,73.57 23.92502,154.9156 81.64343,213.8332 -39.47615,-1.4945 -70.28051,-18.5427 -94.50342,-46.3555 7.62534,1.1966 16.89541,1.497 24.8212,0.7485 -21.53173,-35.8888 -34.69217,-87.4764 -39.47615,-132.3374 -8.6743,2.0928 -23.41074,3.7376 -32.2327,4.1857 l 0,137.8699 c 8.52156,-0.746 18.77442,-3.2895 27.51238,-7.1773 -16.51352,27.2145 -32.96343,58.0189 -46.12131,91.8149 -13.15788,-33.796 -29.60774,-64.6004 -46.12381,-91.8149 8.74051,3.8878 18.99081,6.4313 27.51488,7.1773 l 0,-137.8699 c -8.82196,-0.4479 -23.56091,-2.0929 -32.2327,-4.1857 -4.78398,44.861 -17.94437,96.4486 -39.47615,132.3374 7.92579,0.7485 17.19586,0.4479 24.82125,-0.7485 -24.22291,27.8128 -55.02732,44.861 -94.50347,46.3555 57.71846,-58.9176 78.05612,-140.2632 81.64348,-213.8332 17.94437,3.8878 41.5715,8.076 59.74759,9.2726 L 398.01232,579 Z"
       style="fill:#000000;fill-opacity:1;fill-rule:nonzero;stroke:none"
       id="path5301"
       inkscape:connector-curvature="0"
       sodipodi:nodetypes="cccccccccccccccccccccc" /></g></svg>