<?xml version="1.0" encoding="UTF-8"?>
<svg xmlns="http://www.w3.org/2000/svg" viewBox="0 0 100 100" width="100mm" height="100mm">
  <path d="M 37.62 92.41 L 49.75 99.10 L 62.00 92.54 Z" fill="black" stroke="none"/>
  <path d="M 36.38 89.96 L 36.88 91.38 L 62.62 91.38 L 63.00 89.83 Z" fill="black" stroke="none"/>
  <path d="M 57.88 82.11 L 57.88 88.55 L 60.00 88.55 L 60.12 88.42 L 60.12 84.43 L 60.00 84.17 L 58.00 82.11 Z" fill="black" stroke="none"/>
  <path d="M 42.00 82.11 L 41.88 82.11 L 39.75 84.30 L 39.75 88.55 L 41.88 88.55 L 42.00 88.42 Z" fill="black" stroke="none"/>
  <path d="M 53.37 77.99 L 53.37 88.55 L 55.50 88.55 L 55.62 88.42 L 55.62 80.31 Z" fill="black" stroke="none"/>
  <path d="M 46.50 77.99 L 44.25 80.18 L 44.25 88.55 L 46.38 88.55 L 46.50 88.42 Z" fill="black" stroke="none"/>
  <path d="M 48.62 76.71 L 48.50 76.83 L 48.50 88.55 L 51.25 88.55 L 51.25 76.71 Z" fill="black" stroke="none"/>
  <path d="M 10.38 85.33 L 28.62 82.88 L 31.13 90.48 L 35.38 90.73 L 32.38 89.58 L 27.38 71.43 L 34.12 87.90 L 50.12 69.88 L 65.75 87.90 L 72.50 71.43 L 67.50 89.58 L 64.50 90.73 L 68.75 90.48 L 71.25 82.88 L 89.50 85.84 L 79.88 58.17 L 74.25 50.97 L 67.75 47.75 L 71.38 55.08 L 60.62 58.94 L 55.38 58.82 L 55.88 55.08 L 50.50 58.94 L 44.00 54.95 L 44.38 58.82 L 36.38 58.43 L 28.38 54.95 L 32.50 47.75 L 27.25 49.68 L 18.38 61.26 Z" fill="black" stroke="none"/>
  <path d="M 33.12 5.53 L 24.75 15.96 L 20.38 41.31 L 7.12 62.42 L 1.50 81.34 L 8.38 89.19 L 17.00 60.88 L 26.25 48.65 L 37.12 47.49 L 50.75 58.04 L 60.38 48.78 L 68.12 46.98 L 74.88 49.55 L 82.50 60.10 L 91.50 89.19 L 99.12 79.67 L 91.25 59.33 L 79.50 41.31 L 72.75 11.58 L 64.00 3.99 L 54.00 2.06 L 53.50 40.28 L 53.12 0.90 L 46.75 0.90 L 46.38 40.15 L 45.75 1.93 Z" fill="black" stroke="none"/>
</svg>
