<?xml version="1.0" encoding="UTF-8"?>
<svg xmlns="http://www.w3.org/2000/svg" viewBox="0 0 100 100" width="100mm" height="100mm">
  <path d="M 32.67 4.83 L 23.83 16.17 L 19.83 40.17 L 0.00 78.83 L 7.83 87.17 L 8.83 81.67 L 28.33 80.83 L 30.83 88.33 L 50.83 96.83 L 63.33 87.67 L 35.00 88.00 L 30.33 81.33 L 33.83 85.83 L 39.67 81.33 L 41.83 86.33 L 40.83 78.83 L 50.83 68.17 L 59.00 78.83 L 58.00 86.33 L 60.33 81.17 L 66.00 85.83 L 69.50 80.33 L 64.50 88.83 L 72.67 80.67 L 91.17 82.00 L 92.00 87.17 L 99.83 75.83 L 79.83 39.83 L 72.83 10.33 L 53.17 0.00 Z" fill="black" stroke="none"/>
</svg>