<?xml version="1.0" encoding="UTF-8"?>
<svg xmlns="http://www.w3.org/2000/svg" viewBox="0 0 100 100" width="100mm" height="100mm">
  <path d="M 71.50 64.35 L 67.75 68.47 L 62.88 67.44 L 60.00 67.44 L 57.38 68.08 L 60.38 69.63 L 62.62 72.33 L 64.25 76.45 L 64.88 82.37 L 63.25 76.45 L 61.12 72.20 L 59.88 70.79 L 55.38 68.60 L 55.12 67.95 L 57.38 66.80 L 60.75 66.15 L 64.00 66.28 L 67.75 67.18 Z" fill="black" stroke="none"/>
  <path d="M 28.38 64.35 L 32.12 67.18 L 35.88 66.28 L 39.12 66.15 L 42.50 66.80 L 44.75 68.08 L 44.50 68.60 L 40.75 70.27 L 38.75 72.20 L 36.50 76.71 L 35.00 82.37 L 35.50 76.96 L 37.25 72.33 L 39.50 69.63 L 42.50 68.21 L 39.88 67.44 L 36.88 67.44 L 32.12 68.47 Z" fill="black" stroke="none"/>
  <path d="M 47.25 63.84 L 48.75 62.81 L 49.00 62.81 L 49.12 62.68 L 49.50 62.68 L 49.62 62.55 L 50.62 62.55 L 50.75 62.68 L 51.38 62.81 L 51.88 63.19 L 52.25 63.32 L 52.62 63.71 L 52.75 63.71 L 52.88 63.84 L 52.88 63.96 L 52.75 64.09 L 52.62 64.09 L 52.50 63.96 L 52.25 63.96 L 52.12 63.84 L 51.75 63.84 L 51.62 63.71 L 51.25 63.71 L 51.12 63.58 L 50.75 63.58 L 50.62 63.45 L 49.50 63.45 L 49.38 63.58 L 49.00 63.58 L 48.88 63.71 L 48.50 63.71 L 48.38 63.84 L 48.00 63.84 L 47.88 63.96 L 47.62 63.96 L 47.50 64.09 L 47.38 64.09 L 47.25 63.96 Z" fill="black" stroke="none"/>
  <path d="M 46.12 62.29 L 46.62 61.78 L 47.38 61.26 L 47.75 61.13 L 48.25 60.75 L 48.50 60.75 L 49.00 60.49 L 51.00 60.49 L 51.12 60.62 L 51.75 60.75 L 53.37 61.78 L 53.87 62.29 L 53.75 62.42 L 53.50 62.42 L 53.00 62.16 L 52.62 62.16 L 52.50 62.03 L 52.12 62.03 L 51.62 61.78 L 50.62 61.65 L 50.50 61.52 L 49.50 61.52 L 49.38 61.65 L 48.88 61.65 L 48.75 61.78 L 47.88 61.90 L 47.75 62.03 L 47.00 62.16 L 46.88 62.29 L 46.50 62.29 L 46.38 62.42 Z" fill="black" stroke="none"/>
  <path d="M 71.75 57.79 L 69.12 61.26 L 67.88 62.29 L 65.75 63.19 L 63.75 63.45 L 60.12 63.32 L 57.38 62.55 L 55.25 61.39 L 55.50 61.13 L 59.50 62.03 L 63.75 62.03 L 65.50 61.78 L 68.00 60.75 L 71.62 57.66 Z" fill="black" stroke="none"/>
  <path d="M 28.00 57.79 L 28.25 57.66 L 31.87 60.75 L 34.38 61.78 L 36.12 62.03 L 40.25 62.03 L 43.38 61.52 L 44.38 61.13 L 44.62 61.26 L 43.38 62.16 L 39.75 63.32 L 36.12 63.45 L 34.12 63.19 L 32.62 62.68 L 30.88 61.39 Z" fill="black" stroke="none"/>
</svg>
