<?xml version="1.0" encoding="utf-8"?>
<svg xmlns="http://www.w3.org/2000/svg">
  <path d="M235.52,137.91c-0.06-0.46-0.14-0.91-0.22-1.37c-0.04,0-0.08,0-0.12,0c-2.05,0.27-4.12,0.39-6.15,0.82     c-3.19,0.67-6.38,1.4-9.65,1.65c0.03,0.15,0.06,0.3,0.09,0.46c0.28,1.36,0.72,2.72,1.58,3.8c1.69,2.11,4.64,2.47,7.17,2.44     c2.5-0.04,5.21-0.86,6.56-3.12C235.61,141.2,235.72,139.5,235.52,137.91z"/>
  <path d="M205.74,145.48c1.58,0.28,3.24,0.52,4.76,0.32c1.86-0.24,3.61-1.48,4.26-3.24c0.85-2.29-0.41-4.45-2.4-5.58     c-0.36-0.2-0.63-0.44-0.84-0.69c-0.12,0.12-0.23,0.25-0.32,0.4c-1.28,1.99-2.59,3.97-3.84,5.99     C206.8,143.6,206.05,144.43,205.74,145.48z"/>
  <path d="M279.92,45.33c-0.02-0.08-0.03-0.16-0.05-0.25c-0.46-2.5-1.8-4.72-4.09-5.96c-3.44-1.86-7.64-0.9-9.77,2.37     c-1.87,2.88-2.1,6.6-2.06,9.93c0.03,2.25,0.2,4.54,0.99,6.65c1.46,3.86,5.66,6.73,9.83,5.32c3.53-1.2,5.34-5.84,5.74-9.23     C280.88,51.25,280.45,48.21,279.92,45.33z"/>
  <path d="M233.46,22.23c2.18,1.42,4.03,3.88,4.22,5.75c0.19,1.86-0.56,3.69-1.61,5.2c-0.31,0.44-0.67,0.87-1.16,1.08     c-0.51,0.22-1.09,0.19-1.64,0.11c-2.28-0.33-4.48-1.44-6.01-3.17c-0.92-1.04-1.61-2.33-1.71-3.71c-0.12-1.79,0.75-3.46,1.75-4.88     C228.83,20.43,231.31,20.83,233.46,22.23z"/>
  <path d="M244.19,25.85c0-0.06,0-0.1-0.01-0.16c-0.1-0.25-0.2-0.49-0.29-0.74c-0.55-1.45-2.08-2.39-3.56-2.16     c-1.53,0.24-2.19,1.09-2.27,2.98c-0.01,0.12,0.01,0.22,0.03,0.32C240.12,25.86,242.17,25.81,244.19,25.85z"/>
  <path d="M273.04,56.64c-0.29-2.37-0.1-4.76-0.32-7.13c-0.05-0.57-0.47-0.79-0.8-1.13c-0.94-0.94-1.75-1.94-1.79-3.37     c-0.02-0.7,0.33-1.15,0.97-1.28c0.69-0.14,1.29,0.03,1.49,0.84c0.14,0.55,0.42,1.04,0.78,1.48c0.43,0.53,0.79,0.46,1.07-0.17     c0.21-0.48,0.21-0.99,0.22-1.5c0.01-1.06,0.55-1.77,1.34-1.79c0.79-0.02,1.62,0.86,1.53,1.83c-0.15,1.6-0.35,3.23-1.92,4.19     c-0.49,0.3-0.33,0.76-0.28,1.16c0.14,1.19,0.29,2.39,0.28,3.59c-0.01,1.23,0.28,2.45,0.17,3.69c-0.06,0.64-0.24,1.25-0.94,1.44     c-0.63,0.17-1.22,0.08-1.64-0.52C272.9,57.55,273.09,57.08,273.04,56.64z"/>
  <path d="M251.21,38.35c0,0.73-0.43,1.12-1.06,1.33c-1.36,0.45-2.78,0.54-4.19,0.61c-0.71,0.03-1.42,0.25-2.15,0.07     c-0.54-0.13-0.98-0.31-1.1-0.89c-0.13-0.61,0.28-0.97,0.74-1.2c1.36-0.67,2.84-0.89,4.31-1.16c0.82-0.15,1.65-0.26,2.45,0.03     C250.77,37.34,251.21,37.66,251.21,38.35z"/>
  <path d="M176.16,79.77c0.3-1.65,1.3-3.26,3.09-4.31c0.71-0.42,1.32-0.23,1.6,0.34c0.33,0.68-0.12,1.06-0.6,1.38     c-0.91,0.61-1.47,1.46-1.89,2.44c-0.08,0.18-0.15,0.37-0.03,0.53c0.18,0.23,0.39,0.04,0.58-0.01c0.42-0.13,0.73-0.43,1.08-0.68     c0.49-0.34,0.99-0.67,1.63-0.32c0.65,0.36,0.72,0.95,0.66,1.6c-0.03,0.34-0.13,0.69-0.12,1.03c0,0.25,0.03,0.58,0.28,0.71     c0.27,0.14,0.52-0.08,0.71-0.26c0.44-0.39,0.88-0.79,1.17-1.32c0.28-0.52,0.6-1.02,1.07-1.39c0.4-0.32,0.85-0.3,1.28-0.06     c0.42,0.24,0.62,0.71,0.42,1.11c-0.92,1.77-1.91,3.51-3.97,4.2c-1.7,0.57-2.88-0.7-3.05-2.05c-0.07-0.59-0.19-0.6-0.72-0.43     C177.67,82.84,176.17,81.81,176.16,79.77z"/>
  <path d="M184.06,127.45c-0.08-1.47,0.36-2.54,1.08-3.51c0.45-0.61,1.15-0.78,1.7-0.46c0.66,0.38,0.78,1.13,0.17,1.59     c-0.97,0.75-1,1.74-0.84,2.8c0.04,0.26,0.19,0.46,0.43,0.54c0.28,0.11,0.46-0.1,0.61-0.29c0.2-0.25,0.38-0.52,0.55-0.79     c0.26-0.42,0.62-0.71,1.12-0.62c0.52,0.09,0.83,0.46,0.96,0.97c0.11,0.42,0.14,0.87,0.71,0.93c0.47,0.05,0.78-0.15,0.96-0.56     c0.26-0.61,0.51-1.24,0.77-1.85c0.18-0.42,0.42-0.8,0.89-0.98c0.42-0.17,0.8-0.1,1.12,0.19c0.29,0.26,0.44,0.63,0.29,1.02     c-0.43,1.09-0.75,2.24-1.43,3.22c-0.88,1.27-2.69,1.69-3.98,0.84c-0.51-0.33-0.88-0.43-1.43-0.1c-1.62,0.98-3.46-0.63-3.65-2.36     C184.03,127.77,184.06,127.49,184.06,127.45z"/>
  <path d="M243.65,82.71c-0.83,0.07-1.45-0.31-1.93-0.88c-0.38-0.45-0.73-0.54-1.3-0.36c-1.67,0.5-3.28-0.81-3.24-2.54     c0.01-0.56,0.25-0.93,0.8-1.05c0.55-0.12,1,0.08,1.27,0.6c0.16,0.3,0.04,0.8,0.58,0.85c0.47,0.04,0.62-0.33,0.85-0.63     c0.32-0.43,0.77-0.6,1.28-0.47c0.46,0.12,0.65,0.48,0.76,0.94c0.13,0.55,0.13,1.4,0.84,1.38c0.7-0.01,0.64-0.89,0.8-1.41     c0.22-0.7,0.35-1.39,1.32-1.27c0.4,0.05,0.68,0.26,0.69,0.65c0.07,1.42-0.29,2.71-1.34,3.73     C244.63,82.61,244.15,82.78,243.65,82.71z"/>
  <path d="M214.96,102.93c0.25-1.11,0.55-2.54,0.92-3.96c0.14-0.56,0.62-0.82,1.19-0.69c0.61,0.14,0.9,0.6,0.77,1.21     c-0.28,1.36-0.59,2.71-0.9,4.06c-0.13,0.58-0.38,1.09-1.12,0.99C215.16,104.45,214.95,104.12,214.96,102.93z"/>
  <path d="M221.4,63.47c0.06,0.39-0.17,0.71-0.3,1.05c-0.37,1-0.74,2-1.13,3c-0.12,0.3-0.29,0.57-0.54,0.79     c-0.35,0.31-0.75,0.28-1.14,0.15c-0.42-0.15-0.48-0.54-0.44-0.93c0.02-0.18,0.06-0.37,0.13-0.54c0.5-1.3,0.99-2.6,1.5-3.89     c0.21-0.54,0.63-0.82,1.2-0.67C221.18,62.56,221.44,62.92,221.4,63.47z"/>
  <path d="M163.3,105.09c0.46,0.02,0.83,0.18,1.02,0.63c0.19,0.44,0.06,0.85-0.28,1.08c-0.91,0.6-1.41,1.52-1.97,2.38     c-0.4,0.62-0.91,0.78-1.49,0.46c-0.58-0.32-0.63-0.92-0.32-1.47c0.58-1.03,1.29-1.96,2.16-2.76     C162.66,105.19,162.96,105.07,163.3,105.09z"/>
  <path d="M210.27,101.13c0.24-1.12,0.91-2.02,1.55-2.93c0.21-0.3,0.51-0.55,0.78-0.81c0.41-0.38,0.85-0.45,1.29-0.06     c0.41,0.36,0.57,0.81,0.21,1.27c-0.77,0.96-1.41,2-1.99,3.08c-0.22,0.42-0.7,0.53-1.2,0.36     C210.46,101.9,210.26,101.61,210.27,101.13z"/>
  <path d="M164.58,108.57c0.37-0.95,0.63-2.16,1.38-3.16c0.41-0.54,0.99-0.69,1.55-0.31c0.59,0.4,0.45,0.95,0.1,1.47     c-0.54,0.81-0.73,1.77-1.11,2.64c-0.25,0.57-0.66,0.83-1.27,0.68C164.65,109.76,164.54,109.3,164.58,108.57z"/>
  <path d="M214.08,58.32c0.53,0.02,0.86,0.28,1.01,0.72c0.13,0.42-0.01,0.83-0.39,1.06c-0.97,0.57-1.96,1.11-2.95,1.63     c-0.51,0.27-0.93,0.06-1.26-0.37c-0.29-0.38-0.24-0.77,0.07-1.1C211.53,59.26,212.82,58.82,214.08,58.32z"/>
  <path d="M218.19,61.63c0.01,0.54-0.32,0.89-0.59,1.23c-0.49,0.63-1.04,1.21-1.58,1.8c-0.4,0.44-0.87,0.41-1.29,0.08     c-0.43-0.33-0.58-0.85-0.25-1.28c0.7-0.93,1.43-1.87,2.33-2.62c0.31-0.26,0.66-0.14,0.98,0.01     C218.1,61.02,218.22,61.31,218.19,61.63z"/>
</svg>
