<?xml version="1.0" encoding="utf-8"?>
<svg xmlns="http://www.w3.org/2000/svg">
  <path d="M275.96,62.04c0.04-0.05,0.07-0.09,0.11-0.14C276.09,62,276.05,62.04,275.96,62.04z"/>
  <path d="M279.92,45.33c-0.02-0.08-0.03-0.16-0.05-0.25c-0.46-2.5-1.8-4.72-4.09-5.96c-0.62-0.34-1.27-0.58-1.93-0.73    c-0.58-0.73-1.31-1.86-1.6-2.15c-0.85-0.85-7.57-9.06-25.22-10.27c-4.7-0.32-9.72-0.18-14.39,1.15c-4.52,1.3-8.71,3.56-11.93,7.01    c-2.64,2.83-4.23,6.16-6.34,9.33c-4.14,6.22-9.72,11.43-16.6,14.47c-3.68,1.62-7.59,2.22-11.38,3.5    c-4.05,1.37-7.92,3.25-11.53,5.54c-21.6,13.76-32.73,44.23-21.76,68.15c1.06,2.32,2.64,4.46,4.82,5.79    c3.62,2.2,8.07,1.76,12.12,1.87c4.83,0.13,9.68,0.37,14.52,0.37c4.42,0,8.83,0.02,13.21,0.77c2.14,0.37,4.26,0.87,6.39,1.26    c2,0.37,4.3,0.88,6.34,0.62c1.86-0.24,3.61-1.48,4.26-3.24c0.85-2.29-0.41-4.45-2.4-5.58c-1.81-1.03-1.84-2.82-0.07-3.88    c0.98-0.59,2.02-1.08,2.87-1.87c0.59-0.55,1.25-1,1.97-1.37c0.74-0.38,1.71,0.06,1.62,0.74c-0.37,2.98,0.11,5.94,0.7,8.86    c0.28,1.36,0.72,2.72,1.58,3.8c1.69,2.11,4.64,2.47,7.17,2.44c2.5-0.04,5.21-0.86,6.56-3.12c0.83-1.38,0.93-3.08,0.73-4.67    c-0.32-2.57-1.06-5.09-1.51-7.64c-0.38-2.15-0.44-4.34-0.32-6.51c0.32-5.45,9.1-27,12.4-32.17c7.57-11.86,7.31-22.36,7.72-22.21    c6.2,2.21,17.11-1.03,19.91-3.85c0.67-0.68,1.29-1.52,1.75-2.42c3.08-1.53,4.68-5.78,5.05-8.94    C280.88,51.25,280.45,48.21,279.92,45.33z"/>
</svg>
