<?xml version="1.0" standalone="no"?>
<!DOCTYPE svg PUBLIC "-//W3C//DTD SVG 20010904//EN"
 "http://www.w3.org/TR/2001/REC-SVG-20010904/DTD/svg10.dtd">
<svg version="1.0" xmlns="http://www.w3.org/2000/svg"
 width="792.000000pt" height="870.000000pt" viewBox="0 0 792.000000 870.000000"
 preserveAspectRatio="xMidYMid meet">
<metadata>
Created by potrace 1.16, written by Peter Selinger 2001-2019
</metadata>
<g transform="translate(0.000000,870.000000) scale(0.100000,-0.100000)"
fill="#000000" stroke="none">
<path d="M4110 8445 c0 -12 -18 -15 -105 -15 -87 0 -105 -3 -105 -15 0 -12
-15 -15 -75 -15 -60 0 -75 -3 -75 -15 0 -12 -13 -15 -60 -15 -47 0 -60 -3 -60
-15 0 -11 -12 -15 -45 -15 -33 0 -45 -4 -45 -15 0 -10 -10 -15 -30 -15 -20 0
-30 -5 -30 -15 0 -11 -12 -15 -45 -15 -33 0 -45 -4 -45 -15 0 -10 -10 -15 -30
-15 -20 0 -30 -5 -30 -15 0 -10 -10 -15 -30 -15 -20 0 -30 -5 -30 -15 0 -10
-10 -15 -30 -15 -20 0 -30 -5 -30 -15 0 -10 -10 -15 -30 -15 -20 0 -30 -5 -30
-15 0 -8 -7 -15 -15 -15 -8 0 -15 -7 -15 -15 0 -10 -10 -15 -30 -15 -20 0 -30
-5 -30 -15 0 -10 -10 -15 -30 -15 -20 0 -30 -5 -30 -15 0 -8 -7 -15 -15 -15
-8 0 -15 -7 -15 -15 0 -10 -10 -15 -30 -15 -20 0 -30 -5 -30 -15 0 -8 -7 -15
-15 -15 -8 0 -15 -7 -15 -15 0 -8 -7 -15 -15 -15 -8 0 -15 -7 -15 -15 0 -8 -7
-15 -15 -15 -8 0 -15 -7 -15 -15 0 -10 -10 -15 -30 -15 -20 0 -30 -5 -30 -15
0 -8 -7 -15 -15 -15 -8 0 -15 -7 -15 -15 0 -8 -7 -15 -15 -15 -8 0 -15 -7 -15
-15 0 -8 -7 -15 -15 -15 -8 0 -15 -7 -15 -15 0 -8 -7 -15 -15 -15 -8 0 -15 -7
-15 -15 0 -8 -7 -15 -15 -15 -8 0 -15 -7 -15 -15 0 -8 -7 -15 -15 -15 -8 0
-15 -7 -15 -15 0 -8 -7 -15 -15 -15 -8 0 -15 -7 -15 -15 0 -8 -7 -15 -15 -15
-8 0 -15 -7 -15 -15 0 -8 -7 -15 -15 -15 -10 0 -15 -10 -15 -30 0 -20 -5 -30
-15 -30 -8 0 -15 -7 -15 -15 0 -8 -7 -15 -15 -15 -8 0 -15 -7 -15 -15 0 -8 -7
-15 -15 -15 -8 0 -15 -7 -15 -15 0 -8 -7 -15 -15 -15 -10 0 -15 -10 -15 -30 0
-20 -5 -30 -15 -30 -8 0 -15 -7 -15 -15 0 -8 -7 -15 -15 -15 -8 0 -15 -7 -15
-15 0 -8 -7 -15 -15 -15 -10 0 -15 -10 -15 -30 0 -20 -5 -30 -15 -30 -8 0 -15
-7 -15 -15 0 -8 -7 -15 -15 -15 -10 0 -15 -10 -15 -30 0 -20 -5 -30 -15 -30
-10 0 -15 -10 -15 -30 0 -20 -5 -30 -15 -30 -8 0 -15 -7 -15 -15 0 -8 -7 -15
-15 -15 -10 0 -15 -10 -15 -30 0 -20 -5 -30 -15 -30 -10 0 -15 -10 -15 -30 0
-20 -5 -30 -15 -30 -8 0 -15 -7 -15 -15 0 -8 -7 -15 -15 -15 -10 0 -15 -10
-15 -30 0 -20 -5 -30 -15 -30 -8 0 -15 -7 -15 -15 0 -8 -7 -15 -15 -15 -10 0
-15 -10 -15 -30 0 -20 -5 -30 -15 -30 -10 0 -15 -10 -15 -30 0 -20 -5 -30 -15
-30 -8 0 -15 -7 -15 -15 0 -8 -7 -15 -15 -15 -10 0 -15 -10 -15 -30 0 -20 -5
-30 -15 -30 -10 0 -15 -10 -15 -30 0 -20 -5 -30 -15 -30 -10 0 -15 -10 -15
-30 0 -20 -5 -30 -15 -30 -11 0 -15 -12 -15 -45 0 -33 -4 -45 -15 -45 -11 0
-15 -12 -15 -45 0 -33 -4 -45 -15 -45 -11 0 -15 -12 -15 -45 0 -33 -4 -45 -15
-45 -11 0 -15 -12 -15 -45 0 -33 -4 -45 -15 -45 -11 0 -15 -12 -15 -45 0 -33
-4 -45 -15 -45 -12 0 -15 -13 -15 -60 0 -47 -3 -60 -15 -60 -12 0 -15 -13 -15
-60 0 -47 -3 -60 -15 -60 -12 0 -15 -17 -15 -90 0 -73 -3 -90 -15 -90 -12 0
-15 -17 -15 -90 0 -73 -3 -90 -15 -90 -13 0 -15 -25 -15 -165 0 -140 -2 -165
-15 -165 -13 0 -15 -35 -15 -255 0 -220 2 -255 15 -255 13 0 15 -23 15 -150 0
-127 2 -150 15 -150 12 0 15 -18 15 -105 0 -87 3 -105 15 -105 12 0 15 -15 15
-75 0 -60 3 -75 15 -75 12 0 15 -15 15 -75 0 -60 3 -75 15 -75 11 0 15 -12 15
-45 0 -33 4 -45 15 -45 12 0 15 -13 15 -60 0 -47 3 -60 15 -60 11 0 15 -12 15
-45 0 -33 4 -45 15 -45 11 0 15 -12 15 -45 0 -33 4 -45 15 -45 11 0 15 -12 15
-45 0 -33 4 -45 15 -45 10 0 15 -10 15 -30 0 -20 5 -30 15 -30 11 0 15 -12 15
-45 0 -33 4 -45 15 -45 10 0 15 -10 15 -30 0 -20 5 -30 15 -30 10 0 15 -10 15
-30 0 -20 5 -30 15 -30 10 0 15 -10 15 -30 0 -20 5 -30 15 -30 10 0 15 -10 15
-30 0 -20 5 -30 15 -30 10 0 15 -10 15 -30 0 -20 5 -30 15 -30 10 0 15 -10 15
-30 0 -20 5 -30 15 -30 10 0 15 -10 15 -30 0 -20 5 -30 15 -30 8 0 15 -7 15
-15 0 -8 7 -15 15 -15 10 0 15 -10 15 -30 0 -20 5 -30 15 -30 8 0 15 -7 15
-15 0 -8 7 -15 15 -15 10 0 15 -10 15 -30 0 -20 5 -30 15 -30 8 0 15 -7 15
-15 0 -8 7 -15 15 -15 10 0 15 -10 15 -30 0 -20 5 -30 15 -30 8 0 15 -7 15
-15 0 -8 7 -15 15 -15 10 0 15 -10 15 -30 0 -20 5 -30 15 -30 8 0 15 -7 15
-15 0 -8 7 -15 15 -15 8 0 15 -7 15 -15 0 -8 7 -15 15 -15 8 0 15 -7 15 -15 0
-8 7 -15 15 -15 8 0 15 -7 15 -15 0 -8 7 -15 15 -15 10 0 15 -10 15 -30 0 -20
5 -30 15 -30 8 0 15 -7 15 -15 0 -8 7 -15 15 -15 8 0 15 -7 15 -15 0 -8 7 -15
15 -15 8 0 15 -7 15 -15 0 -8 7 -15 15 -15 8 0 15 -7 15 -15 0 -8 7 -15 15
-15 8 0 15 -7 15 -15 0 -8 7 -15 15 -15 8 0 15 -7 15 -15 0 -8 7 -15 15 -15 8
0 15 -7 15 -15 0 -8 7 -15 15 -15 8 0 15 -7 15 -15 0 -8 7 -15 15 -15 8 0 15
-7 15 -15 0 -10 10 -15 30 -15 20 0 30 -5 30 -15 0 -8 7 -15 15 -15 8 0 15 -7
15 -15 0 -8 7 -15 15 -15 8 0 15 -7 15 -15 0 -8 7 -15 15 -15 8 0 15 -7 15
-15 0 -10 10 -15 30 -15 20 0 30 -5 30 -15 0 -8 7 -15 15 -15 8 0 15 -7 15
-15 0 -8 7 -15 15 -15 8 0 15 -7 15 -15 0 -10 10 -15 30 -15 20 0 30 -5 30
-15 0 -10 10 -15 30 -15 20 0 30 -5 30 -15 0 -8 7 -15 15 -15 8 0 15 -7 15
-15 0 -10 10 -15 30 -15 20 0 30 -5 30 -15 0 -10 10 -15 30 -15 20 0 30 -5 30
-15 0 -10 10 -15 30 -15 20 0 30 -5 30 -15 0 -10 10 -15 30 -15 20 0 30 -5 30
-15 0 -10 10 -15 30 -15 20 0 30 -5 30 -15 0 -11 12 -15 45 -15 33 0 45 -4 45
-15 0 -11 12 -15 45 -15 33 0 45 -4 45 -15 0 -11 12 -15 45 -15 33 0 45 -4 45
-15 0 -12 13 -15 60 -15 47 0 60 -3 60 -15 0 -12 15 -15 75 -15 60 0 75 -3 75
-15 0 -13 43 -15 330 -15 287 0 330 2 330 15 0 12 15 15 75 15 60 0 75 3 75
15 0 12 13 15 60 15 47 0 60 3 60 15 0 12 13 15 60 15 47 0 60 3 60 15 0 10
10 15 30 15 20 0 30 5 30 15 0 11 12 15 45 15 33 0 45 4 45 15 0 10 10 15 30
15 20 0 30 5 30 15 0 10 10 15 30 15 20 0 30 5 30 15 0 10 10 15 30 15 20 0
30 5 30 15 0 10 10 15 30 15 20 0 30 5 30 15 0 10 10 15 30 15 20 0 30 5 30
15 0 10 10 15 30 15 20 0 30 5 30 15 0 8 7 15 15 15 8 0 15 7 15 15 0 10 10
15 30 15 20 0 30 5 30 15 0 8 7 15 15 15 8 0 15 7 15 15 0 8 7 15 15 15 8 0
15 7 15 15 0 10 10 15 30 15 20 0 30 5 30 15 0 8 7 15 15 15 8 0 15 7 15 15 0
8 7 15 15 15 8 0 15 7 15 15 0 10 10 15 30 15 20 0 30 5 30 15 0 8 7 15 15 15
8 0 15 7 15 15 0 8 7 15 15 15 8 0 15 7 15 15 0 8 7 15 15 15 8 0 15 7 15 15
0 8 7 15 15 15 8 0 15 7 15 15 0 8 7 15 15 15 8 0 15 7 15 15 0 8 7 15 15 15
8 0 15 7 15 15 0 8 7 15 15 15 8 0 15 7 15 15 0 8 7 15 15 15 8 0 15 7 15 15
0 8 7 15 15 15 8 0 15 7 15 15 0 8 7 15 15 15 8 0 15 7 15 15 0 8 7 15 15 15
10 0 15 10 15 30 0 20 5 30 15 30 8 0 15 7 15 15 0 8 7 15 15 15 8 0 15 7 15
15 0 8 7 15 15 15 8 0 15 7 15 15 0 8 7 15 15 15 10 0 15 10 15 30 0 20 5 30
15 30 8 0 15 7 15 15 0 8 7 15 15 15 8 0 15 7 15 15 0 8 7 15 15 15 10 0 15
10 15 30 0 20 5 30 15 30 8 0 15 7 15 15 0 8 7 15 15 15 10 0 15 10 15 30 0
20 5 30 15 30 10 0 15 10 15 30 0 20 5 30 15 30 8 0 15 7 15 15 0 8 7 15 15
15 10 0 15 10 15 30 0 20 5 30 15 30 10 0 15 10 15 30 0 20 5 30 15 30 10 0
15 10 15 30 0 20 5 30 15 30 10 0 15 10 15 30 0 20 5 30 15 30 10 0 15 10 15
30 0 20 5 30 15 30 10 0 15 10 15 30 0 20 5 30 15 30 10 0 15 10 15 30 0 20 5
30 15 30 11 0 15 12 15 45 0 33 4 45 15 45 10 0 15 10 15 30 0 20 5 30 15 30
11 0 15 12 15 45 0 33 4 45 15 45 11 0 15 12 15 45 0 33 4 45 15 45 11 0 15
12 15 45 0 33 4 45 15 45 11 0 15 12 15 45 0 33 4 45 15 45 12 0 15 13 15 60
0 47 3 60 15 60 12 0 15 13 15 60 0 47 3 60 15 60 12 0 15 15 15 75 0 60 3 75
15 75 12 0 15 18 15 105 0 87 3 105 15 105 13 0 15 22 15 135 0 113 2 135 15
135 13 0 15 42 15 315 0 273 -2 315 -15 315 -13 0 -15 23 -15 150 0 127 -2
150 -15 150 -12 0 -15 17 -15 90 0 73 -3 90 -15 90 -12 0 -15 15 -15 75 0 60
-3 75 -15 75 -12 0 -15 13 -15 60 0 47 -3 60 -15 60 -12 0 -15 13 -15 60 0 47
-3 60 -15 60 -12 0 -15 13 -15 60 0 47 -3 60 -15 60 -11 0 -15 12 -15 45 0 33
-4 45 -15 45 -11 0 -15 12 -15 45 0 33 -4 45 -15 45 -10 0 -15 10 -15 30 0 20
-5 30 -15 30 -11 0 -15 12 -15 45 0 33 -4 45 -15 45 -10 0 -15 10 -15 30 0 20
-5 30 -15 30 -11 0 -15 12 -15 45 0 33 -4 45 -15 45 -10 0 -15 10 -15 30 0 20
-5 30 -15 30 -10 0 -15 10 -15 30 0 20 -5 30 -15 30 -10 0 -15 10 -15 30 0 20
-5 30 -15 30 -10 0 -15 10 -15 30 0 20 -5 30 -15 30 -8 0 -15 7 -15 15 0 8 -7
15 -15 15 -10 0 -15 10 -15 30 0 20 -5 30 -15 30 -8 0 -15 7 -15 15 0 8 -7 15
-15 15 -10 0 -15 10 -15 30 0 20 -5 30 -15 30 -8 0 -15 7 -15 15 0 8 -7 15
-15 15 -8 0 -15 7 -15 15 0 8 -7 15 -15 15 -10 0 -15 10 -15 30 0 20 -5 30
-15 30 -8 0 -15 7 -15 15 0 8 -7 15 -15 15 -8 0 -15 7 -15 15 0 8 -7 15 -15
15 -10 0 -15 10 -15 30 0 20 -5 30 -15 30 -8 0 -15 7 -15 15 0 8 -7 15 -15 15
-10 0 -15 10 -15 30 0 20 -5 30 -15 30 -8 0 -15 7 -15 15 0 8 -7 15 -15 15 -8
0 -15 7 -15 15 0 8 -7 15 -15 15 -10 0 -15 10 -15 30 0 20 -5 30 -15 30 -8 0
-15 7 -15 15 0 8 -7 15 -15 15 -8 0 -15 7 -15 15 0 8 -7 15 -15 15 -8 0 -15 7
-15 15 0 8 -7 15 -15 15 -8 0 -15 7 -15 15 0 8 -7 15 -15 15 -8 0 -15 7 -15
15 0 8 -7 15 -15 15 -8 0 -15 7 -15 15 0 8 -7 15 -15 15 -8 0 -15 7 -15 15 0
8 -7 15 -15 15 -8 0 -15 7 -15 15 0 8 -7 15 -15 15 -8 0 -15 7 -15 15 0 8 -7
15 -15 15 -8 0 -15 7 -15 15 0 8 -7 15 -15 15 -8 0 -15 7 -15 15 0 8 -7 15
-15 15 -8 0 -15 7 -15 15 0 10 -10 15 -30 15 -20 0 -30 5 -30 15 0 8 -7 15
-15 15 -8 0 -15 7 -15 15 0 8 -7 15 -15 15 -8 0 -15 7 -15 15 0 10 -10 15 -30
15 -20 0 -30 5 -30 15 0 8 -7 15 -15 15 -8 0 -15 7 -15 15 0 10 -10 15 -30 15
-20 0 -30 5 -30 15 0 8 -7 15 -15 15 -8 0 -15 7 -15 15 0 10 -10 15 -30 15
-20 0 -30 5 -30 15 0 10 -10 15 -30 15 -20 0 -30 5 -30 15 0 10 -10 15 -30 15
-20 0 -30 5 -30 15 0 10 -10 15 -30 15 -20 0 -30 5 -30 15 0 10 -10 15 -30 15
-20 0 -30 5 -30 15 0 11 -12 15 -45 15 -33 0 -45 4 -45 15 0 10 -10 15 -30 15
-20 0 -30 5 -30 15 0 11 -12 15 -45 15 -33 0 -45 4 -45 15 0 12 -13 15 -60 15
-47 0 -60 3 -60 15 0 12 -15 15 -75 15 -60 0 -75 3 -75 15 0 12 -18 15 -105
15 -87 0 -105 3 -105 15 0 13 -27 15 -180 15 -153 0 -180 -2 -180 -15z m606
-480 c90 -29 122 -31 210 -9 57 15 71 15 107 3 39 -13 110 -64 181 -130 34
-32 131 -81 206 -105 66 -21 125 -62 204 -144 33 -34 112 -100 175 -147 122
-91 218 -183 307 -294 30 -37 62 -74 72 -81 48 -34 142 -155 191 -244 30 -54
70 -121 89 -149 87 -127 244 -507 282 -685 29 -133 56 -412 65 -680 3 -85 8
-164 10 -175 6 -30 -14 -339 -30 -445 -8 -52 -23 -137 -34 -188 -11 -52 -23
-153 -26 -225 -7 -134 -25 -256 -51 -337 -25 -82 -54 -262 -54 -346 0 -126
-14 -177 -94 -339 -41 -82 -97 -197 -125 -255 -50 -104 -208 -328 -331 -470
-72 -83 -231 -226 -355 -320 -117 -88 -330 -222 -435 -274 -41 -21 -83 -42
-92 -47 -32 -17 -224 -87 -309 -112 -307 -93 -545 -105 -964 -51 -334 42 -624
149 -822 301 -34 27 -108 84 -165 127 -282 217 -399 340 -537 569 -69 114 -86
156 -110 262 -30 136 -34 195 -21 261 15 72 33 109 73 152 31 32 32 32 128 32
114 0 187 12 248 42 105 51 154 127 171 265 19 161 39 372 44 473 3 58 12 193
19 300 19 291 10 609 -22 753 -5 23 -17 80 -27 127 -28 143 -45 177 -134 268
-75 76 -80 84 -80 125 0 23 9 83 20 133 10 49 24 137 29 194 6 58 18 132 27
165 12 41 17 97 17 175 -1 97 -6 131 -30 215 l-30 100 20 26 c12 18 39 33 76
44 31 10 70 23 86 30 65 26 132 45 185 50 30 4 109 15 175 25 66 10 161 22
210 25 101 8 230 42 308 82 32 16 90 65 152 127 79 79 110 119 143 183 23 44
42 88 42 97 0 9 4 24 10 34 5 9 22 49 37 87 23 57 28 83 26 141 l-2 72 62 23
c46 17 80 39 133 89 110 104 195 122 340 75z"/>
<path d="M4755 6455 c-114 -16 -178 -35 -279 -84 -108 -52 -166 -98 -219 -174
-77 -107 -135 -282 -144 -430 l-6 -88 32 -33 c27 -28 42 -34 90 -39 121 -13
231 -100 231 -183 0 -36 -6 -47 -42 -81 -79 -74 -87 -110 -32 -142 43 -26 134
-30 134 -6 0 9 9 15 23 15 36 1 67 34 67 72 1 18 10 44 20 57 18 21 25 23 76
16 98 -12 184 -64 184 -110 0 -13 4 -26 9 -29 14 -9 33 -191 25 -243 -3 -26
-14 -56 -23 -67 -24 -28 -88 -66 -111 -66 -12 0 -34 -7 -51 -15 -21 -12 -34
-13 -49 -5 -11 6 -91 9 -207 8 -156 -3 -196 0 -233 14 -25 9 -57 19 -71 22
-14 3 -37 16 -50 28 -58 54 -135 98 -181 104 -42 6 -51 3 -80 -21 -37 -31 -77
-127 -77 -185 -1 -35 28 -160 48 -213 16 -41 117 -137 181 -172 52 -28 62 -30
166 -30 69 0 116 4 125 12 28 23 189 83 223 83 19 0 50 -6 68 -14 18 -8 53
-20 78 -26 25 -7 67 -21 94 -31 27 -10 54 -19 60 -19 6 0 22 -12 35 -25 13
-14 51 -41 86 -60 53 -30 71 -35 127 -35 36 0 85 7 108 15 48 17 364 22 374 6
9 -13 150 -79 208 -96 69 -20 96 -19 163 7 119 45 215 174 215 289 0 39 -5 55
-30 83 -25 28 -39 35 -88 40 -66 8 -132 30 -184 63 -20 12 -56 27 -79 32 -23
5 -46 14 -52 20 -6 6 -23 11 -37 11 -14 0 -30 4 -35 8 -6 5 -31 17 -58 26 -26
10 -53 23 -60 29 -20 20 -103 57 -125 57 -11 0 -24 5 -27 10 -3 6 -15 10 -26
10 -10 0 -29 10 -41 22 -43 43 -12 174 57 243 39 39 97 54 233 57 68 2 92 0
92 -9 0 -7 4 -13 8 -13 5 0 9 -29 10 -64 0 -55 4 -67 27 -90 14 -14 35 -26 45
-26 11 0 20 -4 20 -10 0 -5 11 -10 25 -10 19 0 25 5 25 20 0 14 6 20 18 18 14
-2 16 3 14 32 -1 19 -11 44 -21 55 -10 11 -24 30 -30 42 -7 14 -17 20 -26 17
-12 -5 -15 2 -15 30 0 29 5 38 28 50 15 8 40 26 55 40 28 24 145 66 186 66 31
0 86 54 99 98 15 48 15 116 2 202 -34 218 -158 427 -324 544 -124 87 -222 129
-377 160 -88 18 -75 14 -199 59 -100 37 -272 68 -363 66 -29 -1 -92 -7 -142
-14z"/>
<path d="M4828 3720 c-70 -21 -157 -129 -158 -195 0 -11 -20 -51 -45 -89 -49
-75 -61 -117 -50 -173 33 -179 246 -302 429 -248 47 14 71 29 117 74 85 83 97
141 54 263 -16 45 -25 94 -25 132 0 77 -24 129 -82 183 -64 58 -156 78 -240
53z"/>
</g>
</svg>
