<?xml version="1.0" standalone="no"?>
<!DOCTYPE svg PUBLIC "-//W3C//DTD SVG 20010904//EN"
 "http://www.w3.org/TR/2001/REC-SVG-20010904/DTD/svg10.dtd">
<svg version="1.0" xmlns="http://www.w3.org/2000/svg"
 width="792.000000pt" height="870.000000pt" viewBox="0 0 792.000000 870.000000"
 preserveAspectRatio="xMidYMid meet">
<metadata>
Created by potrace 1.16, written by Peter Selinger 2001-2019
</metadata>
<g transform="translate(0.000000,870.000000) scale(0.100000,-0.100000)"
fill="#000000" stroke="none">
<path d="M4537 7796 c-28 -26 -28 -26 -10 -57 10 -17 32 -42 48 -55 52 -42 85
-78 85 -95 0 -22 -37 -68 -96 -123 -68 -61 -77 -68 -229 -170 -102 -69 -158
-116 -260 -220 -139 -141 -216 -195 -311 -216 -65 -14 -143 -44 -228 -86 -39
-19 -79 -34 -90 -34 -23 0 -92 -22 -102 -33 -4 -4 -20 -7 -36 -7 -15 0 -28 -5
-28 -11 0 -5 -4 -8 -9 -4 -5 3 -16 -2 -25 -11 -9 -8 -20 -13 -25 -9 -6 3 -18
-6 -27 -20 -9 -14 -21 -25 -26 -25 -22 0 -104 -44 -118 -64 -30 -42 -60 -98
-60 -115 0 -9 -11 -52 -25 -96 -29 -91 -51 -294 -49 -450 1 -88 5 -109 32
-173 17 -40 43 -120 56 -177 14 -58 41 -137 60 -175 32 -67 92 -140 115 -140
6 0 26 13 44 30 33 28 34 33 40 116 4 71 9 90 28 110 32 34 77 33 85 -3 8 -37
89 -169 127 -211 27 -28 37 -32 76 -30 33 1 52 9 78 31 46 41 99 156 118 257
24 126 45 202 66 228 26 33 58 137 69 223 17 133 26 163 77 270 108 227 220
329 429 389 102 30 392 38 529 16 55 -10 131 -21 168 -26 97 -14 138 -26 218
-66 85 -43 139 -59 244 -74 44 -6 100 -17 125 -25 25 -8 81 -24 124 -36 153
-42 207 -76 376 -236 130 -124 157 -180 217 -443 8 -38 18 -162 23 -295 4
-126 13 -246 19 -265 5 -19 15 -101 21 -182 11 -147 43 -287 67 -295 11 -4 38
48 71 137 33 87 16 415 -29 583 -23 84 -31 158 -38 317 l-6 165 -43 90 c-31
64 -46 111 -52 160 -25 200 -48 273 -139 432 -37 65 -83 147 -101 183 -39 75
-117 187 -136 194 -6 2 -39 40 -72 83 -69 90 -132 152 -217 214 -141 103 -345
224 -482 286 -82 37 -181 87 -221 111 -72 43 -75 44 -186 51 -107 7 -116 9
-187 48 -102 56 -136 62 -172 29z"/>
<path d="M3191 4526 c-45 -47 -71 -153 -71 -297 0 -90 -5 -121 -29 -199 -38
-118 -49 -194 -60 -406 -10 -183 -16 -208 -68 -256 -55 -51 -118 -64 -403 -84
-127 -8 -133 -11 -128 -82 11 -154 112 -429 195 -530 33 -41 239 -218 487
-420 130 -106 282 -183 501 -253 160 -51 541 -84 904 -77 229 5 252 7 334 32
49 14 107 36 129 47 81 41 261 165 367 252 99 82 108 87 237 141 85 36 132 64
215 129 124 96 146 121 267 300 84 125 150 241 167 297 7 22 78 182 135 305
36 76 43 100 61 210 10 61 29 164 43 230 36 171 33 335 -7 320 -7 -3 -37 -53
-66 -112 -64 -130 -150 -261 -201 -307 -34 -30 -45 -34 -116 -41 -46 -4 -90
-2 -104 3 -14 6 -52 40 -84 76 -74 81 -126 106 -223 106 -87 0 -137 18 -221
79 -109 79 -126 86 -222 86 -104 0 -174 -24 -196 -67 -14 -27 -13 -29 27 -73
53 -58 132 -109 225 -147 40 -17 94 -48 119 -70 39 -35 45 -45 45 -79 0 -24
-10 -58 -25 -85 -30 -54 -32 -103 -5 -132 27 -29 57 -35 117 -24 45 8 52 6 70
-12 11 -12 23 -33 27 -48 8 -33 -36 -233 -64 -293 -10 -22 -31 -69 -45 -105
-31 -73 -92 -170 -190 -296 -105 -137 -193 -163 -425 -127 -77 12 -144 58
-148 102 -2 18 4 43 12 56 42 64 3 132 -81 141 -43 5 -51 3 -72 -20 -24 -25
-24 -29 -12 -69 7 -23 15 -54 18 -69 5 -25 4 -26 -39 -24 -43 2 -67 9 -100 27
-10 5 -26 9 -37 9 -10 0 -24 6 -30 14 -6 7 -31 26 -55 41 -35 22 -51 42 -75
94 -16 36 -35 89 -41 116 -13 56 -16 66 -67 215 -60 179 -56 359 10 436 21 24
32 27 96 30 84 3 121 26 121 74 0 79 63 135 192 170 101 27 192 64 252 103 46
29 48 32 43 68 -14 105 -188 167 -337 121 -174 -55 -209 -61 -318 -55 -78 4
-123 1 -167 -10 -33 -9 -87 -22 -120 -31 -33 -8 -95 -15 -137 -16 -42 0 -79
-4 -82 -8 -2 -4 -22 -9 -44 -10 -53 -3 -92 39 -92 101 0 57 -17 148 -46 244
-32 104 -64 136 -154 151 -35 7 -73 18 -86 27 -40 26 -86 19 -123 -19z"/>
</g>
</svg>
