<?xml version="1.0" encoding="UTF-8"?>
<svg xmlns="http://www.w3.org/2000/svg" viewBox="0 0 200 250" width="200" height="250">
  <!-- McCloud portrait silhouette: broad shoulders, hoodie, full beard, headphones -->
  <!-- Single unified path for clean OpenSCAD import -->
  <path d="
    M 30,250
    L 30,210
    C 25,200 15,185 10,172
    C 5,160 8,150 15,142
    C 20,136 28,132 35,128
    C 30,124 26,118 24,110
    C 22,102 22,92 24,84
    C 26,76 30,70 36,65
    C 42,60 48,58 52,56
    C 48,52 45,46 44,40
    C 43,34 44,28 48,23
    C 52,18 58,14 66,12
    C 74,10 82,9 92,9
    C 102,9 110,10 118,12
    C 126,14 132,18 136,23
    C 140,28 141,34 140,40
    C 139,46 136,52 132,56
    C 136,58 142,60 148,65
    C 154,70 158,76 160,84
    C 162,92 162,102 160,110
    C 158,118 154,124 149,128
    C 156,132 164,136 169,142
    C 176,150 179,160 174,172
    C 169,185 159,200 154,210
    L 154,250
    Z
  " fill="black"/>
  <!-- Beard extension below chin -->
  <path d="
    M 68,110
    C 68,118 72,128 78,136
    C 84,142 89,145 92,146
    C 95,145 100,142 106,136
    C 112,128 116,118 116,110
    C 112,114 104,118 92,118
    C 80,118 72,114 68,110
    Z
  " fill="black"/>
  <!-- Headphone band arching over top of head -->
  <path d="
    M 28,82
    C 28,40 55,6 92,6
    C 129,6 156,40 156,82
    L 150,82
    C 150,44 126,12 92,12
    C 58,12 34,44 34,82
    Z
  " fill="black"/>
  <!-- Left ear cup -->
  <ellipse cx="26" cy="88" rx="12" ry="16" fill="black"/>
  <!-- Right ear cup -->
  <ellipse cx="158" cy="88" rx="12" ry="16" fill="black"/>
</svg>
