<?xml version="1.0" standalone="no"?>
<!DOCTYPE svg PUBLIC "-//W3C//DTD SVG 20010904//EN"
 "http://www.w3.org/TR/2001/REC-SVG-20010904/DTD/svg10.dtd">
<svg version="1.0" xmlns="http://www.w3.org/2000/svg"
 width="792.000000pt" height="870.000000pt" viewBox="0 0 792.000000 870.000000"
 preserveAspectRatio="xMidYMid meet">
<metadata>
Created by potrace 1.16, written by Peter Selinger 2001-2019
</metadata>
<g transform="translate(0.000000,870.000000) scale(0.100000,-0.100000)"
fill="#000000" stroke="none">
<path d="M4491 7973 c-27 -10 -71 -41 -115 -83 -53 -50 -87 -72 -133 -89 l-62
-23 2 -72 c2 -58 -3 -84 -26 -141 -15 -38 -32 -78 -37 -87 -6 -10 -10 -25 -10
-34 0 -9 -19 -53 -42 -97 -33 -64 -64 -104 -143 -183 -62 -62 -120 -111 -152
-127 -78 -40 -207 -74 -308 -82 -49 -3 -144 -15 -210 -25 -66 -10 -145 -21
-175 -25 -53 -5 -120 -24 -185 -50 -16 -7 -55 -20 -86 -30 -37 -11 -64 -26
-76 -44 l-20 -26 30 -100 c24 -84 29 -118 30 -215 0 -78 -5 -134 -17 -175 -9
-33 -21 -107 -27 -165 -5 -57 -19 -145 -29 -194 -11 -50 -20 -110 -20 -133 0
-41 5 -49 80 -125 89 -91 106 -125 134 -268 10 -47 22 -104 27 -127 32 -144
41 -462 22 -753 -7 -107 -16 -242 -19 -300 -5 -101 -25 -312 -44 -473 -17
-138 -66 -214 -171 -265 -61 -30 -134 -42 -248 -42 -96 0 -97 0 -128 -32 -40
-43 -58 -80 -73 -152 -13 -66 -9 -125 21 -261 24 -106 41 -148 110 -262 138
-229 255 -352 537 -569 57 -43 131 -100 165 -127 198 -152 488 -259 822 -301
419 -54 657 -42 964 51 85 25 277 95 309 112 9 5 51 26 92 47 105 52 318 186
435 274 124 94 283 237 355 320 123 142 281 366 331 470 28 58 84 173 125 255
80 162 94 213 94 339 0 84 29 264 54 346 26 81 44 203 51 337 3 72 15 173 26
225 11 51 26 136 34 188 16 106 36 415 30 445 -2 11 -7 90 -10 175 -9 268 -36
547 -65 680 -38 178 -195 558 -282 685 -19 28 -59 95 -89 149 -49 89 -143 210
-191 244 -10 7 -42 44 -72 81 -89 111 -185 203 -307 294 -63 47 -142 113 -175
147 -79 82 -138 123 -204 144 -75 24 -172 73 -206 105 -71 66 -142 117 -181
130 -36 12 -50 12 -107 -3 -88 -22 -120 -20 -210 9 -87 28 -160 31 -225 8z
m218 -206 c71 -39 80 -41 187 -48 111 -7 114 -8 186 -51 40 -24 139 -74 221
-111 137 -62 341 -183 482 -286 85 -62 148 -124 217 -214 33 -43 66 -81 72
-83 19 -7 97 -119 136 -194 18 -36 64 -118 101 -183 91 -159 114 -232 139
-432 6 -49 21 -96 52 -160 l43 -90 6 -165 c7 -159 15 -233 38 -317 45 -168 62
-496 29 -583 -33 -89 -60 -141 -71 -137 -24 8 -56 148 -67 295 -6 81 -16 163
-21 182 -6 19 -15 139 -19 265 -5 133 -15 257 -23 295 -60 263 -87 319 -217
443 -169 160 -223 194 -376 236 -43 12 -99 28 -124 36 -25 8 -81 19 -125 25
-105 15 -159 31 -244 74 -80 40 -121 52 -218 66 -37 5 -113 16 -168 26 -137
22 -427 14 -529 -16 -209 -60 -321 -162 -429 -389 -51 -107 -60 -137 -77 -270
-11 -86 -43 -190 -69 -223 -21 -26 -42 -102 -66 -228 -19 -101 -72 -216 -118
-257 -26 -22 -45 -30 -78 -31 -39 -2 -49 2 -76 30 -38 42 -119 174 -127 211
-8 36 -53 37 -85 3 -19 -20 -24 -39 -28 -110 -6 -83 -7 -88 -40 -116 -18 -17
-38 -30 -44 -30 -23 0 -83 73 -115 140 -19 38 -46 117 -60 175 -13 57 -39 137
-56 177 -27 64 -31 85 -32 173 -2 156 20 359 49 450 14 44 25 87 25 96 0 17
30 73 60 115 14 20 96 64 118 64 5 0 17 11 26 25 9 14 21 23 27 20 5 -4 16 1
25 9 9 9 20 14 25 11 5 -4 9 -1 9 4 0 6 13 11 28 11 16 0 32 3 36 7 10 11 79
33 102 33 11 0 51 15 90 34 85 42 163 72 228 86 95 21 172 75 311 216 102 104
158 151 260 220 152 102 161 109 229 170 59 55 96 101 96 123 0 17 -33 53 -85
95 -16 13 -38 38 -48 55 -18 31 -18 31 10 57 36 33 70 27 172 -29z m348 -1313
c62 -9 148 -31 203 -51 124 -45 111 -41 199 -59 155 -31 253 -73 377 -160 166
-117 290 -326 324 -544 13 -86 13 -154 -2 -202 -13 -44 -68 -98 -99 -98 -41 0
-158 -42 -186 -66 -15 -14 -40 -32 -55 -40 -23 -12 -28 -21 -28 -50 0 -28 3
-35 15 -30 9 3 19 -3 26 -17 6 -12 20 -31 30 -42 10 -11 20 -36 21 -55 2 -29
0 -34 -14 -32 -12 2 -18 -4 -18 -18 0 -15 -6 -20 -25 -20 -14 0 -25 5 -25 10
0 6 -9 10 -20 10 -10 0 -31 12 -45 26 -23 23 -27 35 -27 90 -1 35 -5 64 -10
64 -4 0 -8 6 -8 13 0 9 -24 11 -92 9 -136 -3 -194 -18 -233 -57 -69 -69 -100
-200 -57 -243 12 -12 31 -22 41 -22 11 0 23 -4 26 -10 3 -5 16 -10 27 -10 22
0 105 -37 125 -57 7 -6 34 -19 60 -29 27 -9 52 -21 58 -26 5 -4 21 -8 35 -8
14 0 31 -5 37 -11 6 -6 29 -15 52 -20 23 -5 59 -20 79 -32 52 -33 118 -55 184
-63 49 -5 63 -12 88 -40 25 -28 30 -44 30 -83 0 -115 -96 -244 -215 -289 -67
-26 -94 -27 -163 -7 -58 17 -199 83 -208 96 -10 16 -326 11 -374 -6 -23 -8
-72 -15 -108 -15 -56 0 -74 5 -127 35 -35 19 -73 46 -86 60 -13 13 -29 25 -35
25 -6 0 -33 9 -60 19 -27 10 -69 24 -94 31 -25 6 -60 18 -78 26 -18 8 -49 14
-68 14 -34 0 -195 -60 -223 -83 -9 -8 -56 -12 -125 -12 -104 0 -114 2 -166 30
-64 35 -165 131 -181 172 -20 53 -49 178 -48 213 0 58 40 154 77 185 29 24 38
27 80 21 46 -6 123 -50 181 -104 13 -12 36 -25 50 -28 14 -3 46 -13 71 -22 37
-14 77 -17 233 -14 116 1 196 -2 207 -8 15 -8 28 -7 49 5 17 8 39 15 51 15 23
0 87 38 111 66 9 11 20 41 23 67 8 52 -11 234 -25 243 -5 3 -9 16 -9 29 0 46
-86 98 -184 110 -51 7 -58 5 -76 -16 -10 -13 -19 -39 -20 -57 0 -38 -31 -71
-67 -72 -14 0 -23 -6 -23 -15 0 -24 -91 -20 -134 6 -55 32 -47 68 32 142 36
34 42 45 42 81 0 83 -110 170 -231 183 -48 5 -63 11 -90 39 l-32 33 6 88 c9
148 67 323 144 430 53 76 111 122 219 174 101 49 165 68 279 84 126 18 178 17
302 -1z m-1743 -1909 c13 -9 51 -20 86 -27 90 -15 122 -47 154 -151 29 -96 46
-187 46 -244 0 -62 39 -104 92 -101 22 1 42 6 44 10 3 4 40 8 82 8 42 1 104 8
137 16 33 9 87 22 120 31 44 11 89 14 167 10 109 -6 144 0 318 55 149 46 323
-16 337 -121 5 -36 3 -39 -43 -68 -60 -39 -151 -76 -252 -103 -129 -35 -192
-91 -192 -170 0 -48 -37 -71 -121 -74 -64 -3 -75 -6 -96 -30 -66 -77 -70 -257
-10 -436 51 -149 54 -159 67 -215 6 -27 25 -80 41 -116 24 -52 40 -72 75 -94
24 -15 49 -34 55 -41 6 -8 20 -14 30 -14 11 0 27 -4 37 -9 33 -18 57 -25 100
-27 43 -2 44 -1 39 24 -3 15 -11 46 -18 69 -12 40 -12 44 12 69 21 23 29 25
72 20 84 -9 123 -77 81 -141 -8 -13 -14 -38 -12 -56 4 -44 71 -90 148 -102
232 -36 320 -10 425 127 98 126 159 223 190 296 14 36 35 83 45 105 28 60 72
260 64 293 -4 15 -16 36 -27 48 -18 18 -25 20 -70 12 -60 -11 -90 -5 -117 24
-27 29 -25 78 5 132 15 27 25 61 25 85 0 34 -6 44 -45 79 -25 22 -79 53 -119
70 -93 38 -172 89 -225 147 -40 44 -41 46 -27 73 22 43 92 67 196 67 96 0 113
-7 222 -86 84 -61 134 -79 221 -79 97 0 149 -25 223 -106 32 -36 70 -70 84
-76 14 -5 58 -7 104 -3 71 7 82 11 116 41 51 46 137 177 201 307 29 59 59 109
66 112 40 15 43 -149 7 -320 -14 -66 -33 -169 -43 -230 -18 -110 -25 -134 -61
-210 -57 -123 -128 -283 -135 -305 -17 -56 -83 -172 -167 -297 -121 -179 -143
-204 -267 -300 -83 -65 -130 -93 -215 -129 -129 -54 -138 -59 -237 -141 -106
-87 -286 -211 -367 -252 -22 -11 -80 -33 -129 -47 -82 -25 -105 -27 -334 -32
-363 -7 -744 26 -904 77 -219 70 -371 147 -501 253 -248 202 -454 379 -487
420 -83 101 -184 376 -195 530 -5 71 1 74 128 82 285 20 348 33 403 84 52 48
58 73 68 256 11 212 22 288 60 406 24 78 29 109 29 199 0 204 53 331 137 331
19 0 44 -7 57 -15z m1670 -826 c48 -13 123 -82 147 -134 11 -24 19 -64 19
-101 0 -38 9 -87 25 -132 43 -122 31 -180 -54 -263 -46 -45 -70 -60 -117 -74
-183 -54 -396 69 -429 248 -11 56 1 98 50 173 25 38 45 78 45 89 1 66 88 174
158 195 39 12 111 12 156 -1z"/>
</g>
</svg>
