<?xml version="1.0" standalone="no"?>
<!DOCTYPE svg PUBLIC "-//W3C//DTD SVG 20010904//EN"
 "http://www.w3.org/TR/2001/REC-SVG-20010904/DTD/svg10.dtd">
<svg version="1.0" xmlns="http://www.w3.org/2000/svg"
 width="1024.000000pt" height="1024.000000pt" viewBox="0 0 1024.000000 1024.000000"
 preserveAspectRatio="xMidYMid meet">
<metadata>
Created by potrace 1.16, written by Peter Selinger 2001-2019
</metadata>
<g transform="translate(0.000000,1024.000000) scale(0.100000,-0.100000)"
fill="#000000" stroke="none">
<path d="M5989 9740 c-124 -15 -287 -71 -382 -132 -34 -22 -60 -31 -82 -30
-40 3 -170 -37 -288 -89 -49 -22 -92 -37 -95 -34 -8 8 15 47 59 100 44 53 45
57 23 76 -22 18 -90 -1 -184 -54 -61 -34 -108 -75 -247 -217 -175 -178 -198
-191 -153 -91 24 52 25 70 5 77 -21 9 -85 -38 -150 -108 -72 -77 -103 -133
-119 -209 l-13 -63 -46 3 c-61 3 -134 -21 -183 -62 -21 -18 -58 -45 -82 -61
-47 -32 -82 -75 -82 -100 0 -15 17 -22 68 -28 19 -3 9 -13 -55 -58 -63 -45
-78 -60 -75 -79 1 -17 -18 -46 -74 -107 -61 -68 -75 -89 -70 -107 3 -14 -1
-33 -10 -45 -19 -27 -11 -42 22 -42 13 0 24 -2 24 -6 0 -3 -17 -31 -38 -62
-57 -85 -104 -181 -98 -198 3 -7 12 -14 21 -14 20 0 19 -4 -9 -64 -34 -74 -41
-114 -23 -134 14 -15 13 -27 -14 -117 -16 -55 -29 -120 -29 -145 0 -25 -9 -77
-20 -115 -11 -39 -21 -96 -23 -127 -2 -56 -3 -58 -30 -58 -45 0 -96 -30 -124
-71 -29 -45 -75 -175 -109 -314 -22 -91 -24 -120 -24 -331 0 -250 -7 -290 -64
-388 -38 -65 -59 -151 -53 -213 10 -97 82 -183 152 -183 l27 0 -8 -57 c-5 -32
-7 -105 -5 -163 7 -154 6 -264 -3 -360 -10 -108 6 -167 43 -162 23 4 24 2 17
-45 -21 -156 -21 -157 13 -216 l31 -55 -92 -51 c-185 -100 -574 -425 -742
-619 l-84 -98 -122 -22 c-169 -31 -253 -65 -315 -127 -28 -27 -61 -70 -72 -94
-21 -42 -28 -47 -125 -88 -267 -114 -559 -252 -623 -294 -157 -102 -168 -186
-56 -414 191 -388 575 -825 1016 -1156 381 -286 867 -541 1316 -689 692 -229
1377 -309 2071 -244 971 90 1868 446 2590 1026 427 344 807 814 912 1130 67
199 13 263 -366 431 -91 41 -189 82 -216 91 -48 16 -49 18 -66 78 -26 92 -60
143 -176 259 -270 272 -714 563 -1162 762 l-57 26 34 78 c19 43 42 112 51 154
l17 75 46 0 c81 1 159 56 192 139 6 17 15 98 18 181 l7 151 88 174 c75 147 94
195 123 309 40 155 55 340 33 419 -13 51 -58 101 -90 101 -17 0 -21 4 -17 18
20 61 59 224 77 322 14 71 31 130 46 156 18 31 26 65 34 143 10 110 14 121 35
121 20 0 31 27 39 95 4 33 12 76 18 96 8 30 6 56 -11 139 -13 56 -20 104 -18
106 2 3 10 -2 17 -11 19 -23 49 -18 62 10 13 30 -2 119 -39 215 -38 102 -38
98 -10 93 18 -4 28 1 36 16 21 38 -23 113 -149 262 -46 54 -44 57 26 28 17 -7
39 -9 49 -6 24 10 14 43 -38 131 -53 89 -134 176 -266 284 -98 81 -102 86 -80
95 97 35 142 78 107 101 -12 7 -5 17 35 50 28 23 52 46 54 51 9 27 -27 47
-137 74 -63 16 -159 50 -213 74 -107 49 -109 57 -22 72 47 8 85 30 85 48 0 22
-41 54 -110 86 -97 45 -173 63 -297 68 -62 3 -113 9 -113 14 0 4 21 20 48 35
66 38 81 52 75 74 -8 32 -61 42 -241 47 l-173 6 40 24 c42 25 50 40 29 61 -14
14 -135 16 -191 3 -30 -7 -40 -6 -44 5 -9 24 -180 13 -317 -22 -32 -8 -61 -13
-64 -9 -9 8 57 73 110 106 25 16 49 36 52 44 6 17 -2 45 -14 45 -5 0 -14 2
-22 4 -7 2 -43 0 -79 -4z m-225 -222 c-98 -100 -236 -288 -193 -263 10 6 9 3
-2 -11 -9 -10 -31 -48 -49 -84 -18 -36 -36 -67 -40 -70 -3 -3 -10 -14 -15 -25
-8 -17 -10 -14 -13 16 -4 44 37 165 78 232 16 26 27 47 24 47 -3 0 -30 -24
-61 -52 -89 -85 -154 -236 -171 -403 -8 -76 -9 -79 -21 -50 -19 45 -15 161 7
235 63 210 171 330 417 462 111 59 121 50 39 -34z m486 -103 c0 -2 -12 -11
-27 -19 -16 -8 -68 -44 -118 -80 -49 -36 -123 -89 -163 -118 -41 -29 -108 -91
-150 -138 -43 -46 -91 -97 -108 -111 -16 -15 -43 -54 -60 -86 l-29 -58 -5 40
c-7 55 13 156 39 199 12 19 44 55 72 80 69 62 281 204 357 238 82 37 192 68
192 53z m-1015 -43 c-6 -5 -47 -34 -92 -66 -99 -69 -126 -99 -172 -196 -30
-65 -35 -85 -35 -152 -1 -43 -4 -78 -8 -78 -14 0 -38 97 -38 155 0 49 6 74 29
116 32 62 65 88 211 170 103 57 124 68 105 51z m195 -9 c0 -5 -37 -46 -82 -93
-101 -106 -138 -159 -173 -249 -32 -84 -50 -84 -42 -2 10 114 95 243 211 319
46 30 86 42 86 25z m1220 0 c0 -5 -33 -25 -73 -45 -136 -71 -309 -220 -389
-338 -84 -121 -104 -138 -246 -206 -74 -36 -136 -63 -139 -61 -7 8 71 70 111
88 23 10 59 37 82 61 56 59 167 208 155 208 -5 0 -13 -5 -16 -10 -10 -17 -103
-82 -190 -134 -44 -26 -113 -73 -153 -103 -41 -30 -76 -52 -79 -50 -17 18 100
136 189 189 34 21 98 71 142 111 166 149 244 201 371 246 101 36 235 61 235
44z m-930 -18 c0 -9 -70 -69 -96 -83 -32 -17 -30 -2 4 30 47 43 92 69 92 53z
m1354 -178 l50 -13 -60 -13 c-88 -19 -241 -70 -309 -104 -89 -44 -147 -89
-278 -215 -65 -63 -121 -111 -124 -108 -4 4 7 21 23 39 33 35 117 151 92 127
-8 -8 -39 -42 -69 -75 -73 -83 -183 -172 -253 -206 -33 -16 -62 -26 -65 -23
-3 3 2 10 11 15 51 29 165 141 283 279 151 176 185 210 253 244 136 69 307 89
446 53z m50 -212 c49 -7 92 -18 97 -22 4 -4 -29 -9 -74 -9 -178 -3 -312 -55
-473 -185 -166 -134 -206 -141 -100 -17 116 135 206 200 326 234 61 17 118 17
224 -1z m-2826 -116 c-4 -11 -124 -47 -160 -48 -33 -1 -18 16 30 37 52 22 136
29 130 11z m702 -146 c93 -38 147 -52 136 -35 -3 6 -1 12 5 14 6 2 2 14 -10
30 -37 46 2 43 75 -7 87 -60 88 -60 84 15 l-2 35 30 -40 c16 -22 41 -50 54
-63 l25 -23 -4 25 c-7 36 4 32 47 -16 l37 -42 8 49 c11 74 17 75 31 6 7 -35
16 -66 19 -69 3 -3 21 13 41 36 19 23 39 42 43 42 4 0 5 -16 3 -37 l-5 -36 35
21 c52 32 64 27 34 -12 -33 -43 -33 -47 2 -36 15 5 60 14 100 20 48 8 82 20
100 35 36 30 132 78 132 65 0 -5 -24 -25 -54 -44 -30 -19 -57 -39 -60 -45 -4
-6 -36 -27 -71 -47 -36 -19 -65 -38 -65 -41 0 -2 18 -2 40 2 21 4 45 3 51 -1
7 -4 46 -7 88 -6 84 1 70 -5 -64 -28 -95 -17 -106 -22 -70 -30 77 -19 200 -3
358 46 9 3 17 1 17 -5 0 -10 -187 -73 -258 -87 -22 -4 -30 -10 -23 -17 6 -6
56 -8 128 -5 92 4 136 11 203 33 47 15 108 28 135 28 85 0 245 -14 250 -23 6
-9 -43 -20 -104 -21 l-46 -2 45 -8 c25 -5 90 -15 145 -24 174 -27 217 -37 244
-61 l26 -23 -32 -1 c-44 0 -42 -18 5 -36 76 -29 218 -108 250 -138 31 -28 92
-120 92 -138 0 -5 -7 -8 -15 -8 -8 0 -15 -2 -15 -5 0 -3 23 -64 50 -137 28
-72 49 -133 47 -135 -2 -1 -12 6 -22 17 -10 11 -22 20 -27 20 -15 0 -9 -58 12
-110 11 -28 20 -72 20 -98 l-1 -47 -19 37 c-43 81 -54 48 -15 -47 28 -69 28
-68 15 -60 -12 8 -12 3 0 -32 9 -26 7 -25 -25 11 -42 47 -43 37 -10 -69 14
-44 25 -82 25 -84 0 -12 -34 28 -50 58 l-19 36 0 -40 c-1 -40 10 -92 25 -130
7 -18 6 -18 -9 -6 -16 12 -17 9 -17 -35 0 -30 11 -72 26 -109 82 -191 98 -274
83 -434 -4 -53 -15 -197 -24 -321 -17 -246 -21 -270 -70 -380 -55 -127 -93
-260 -101 -354 -4 -54 -10 -82 -15 -74 -5 7 -9 26 -9 41 0 16 -4 26 -10 22 -5
-3 -10 -38 -10 -76 0 -39 -5 -80 -12 -92 -11 -21 -11 -21 -19 -2 -4 11 -8 32
-8 46 -1 15 -7 32 -15 38 -11 9 -15 4 -20 -26 -3 -21 -6 -58 -6 -83 0 -32 -3
-41 -10 -30 -7 11 -11 4 -16 -28 -4 -23 -10 -42 -15 -42 -15 0 -10 -28 25
-133 18 -57 36 -136 40 -179 6 -67 4 -83 -14 -119 -12 -22 -24 -38 -28 -34 -4
4 -10 77 -13 163 -4 123 -10 167 -25 202 l-19 45 -6 -103 c-5 -105 -21 -147
-37 -102 -7 20 -11 16 -26 -35 -10 -31 -22 -52 -26 -46 -14 24 -29 -60 -20
-122 5 -34 11 -82 14 -107 5 -44 4 -44 -12 -22 -17 22 -18 21 -41 -75 -13 -54
-32 -116 -42 -138 -9 -22 -20 -49 -24 -60 -5 -16 -8 -17 -15 -5 -6 8 -10 27
-10 41 0 38 -30 130 -52 162 -23 33 -14 36 13 5 l20 -23 -5 45 c-3 25 -8 86
-11 135 l-6 90 24 -60 c13 -33 28 -59 33 -58 5 2 12 60 15 130 4 71 9 137 12
148 3 11 8 32 12 48 10 50 22 28 30 -54 3 -45 10 -91 14 -101 10 -27 2 159 -9
200 -8 30 5 48 15 20 30 -86 48 -128 53 -123 4 4 7 115 8 248 0 163 -2 232 -9
212 -5 -16 -15 -43 -22 -60 -7 -16 -16 -40 -20 -53 -9 -30 -21 -20 -30 25 -4
21 -10 33 -12 26 -2 -6 0 -28 6 -47 13 -48 5 -46 -15 4 -18 45 -29 45 -38 -1
-3 -17 -15 -42 -26 -56 -11 -14 -20 -31 -20 -37 0 -6 -12 -19 -25 -29 -25 -18
-25 -18 -26 5 0 13 -7 -9 -14 -49 -7 -40 -20 -80 -29 -88 -9 -9 -16 -24 -16
-34 0 -30 -31 -111 -41 -105 -5 3 -9 17 -9 32 -1 44 -15 6 -29 -75 -14 -77
-26 -97 -46 -69 -11 14 -14 4 -20 -59 -7 -76 -25 -114 -25 -52 0 19 -7 54 -15
77 -21 59 -19 84 9 117 28 34 71 140 87 214 14 65 6 211 -16 293 -27 101 -73
205 -166 376 -90 166 -162 272 -265 388 -59 67 -86 78 -39 17 15 -20 45 -71
67 -113 22 -42 75 -136 118 -208 121 -203 171 -312 170 -373 -1 -24 -4 -22
-50 28 l-50 55 0 -55 c0 -30 -7 -62 -14 -72 -13 -17 -16 -15 -39 25 -14 24
-33 69 -42 100 -9 32 -21 61 -27 64 -8 5 -9 1 -5 -9 19 -47 17 -49 -11 -17
-17 19 -31 38 -32 41 0 3 -12 21 -26 40 l-26 34 7 -52 c5 -36 3 -53 -4 -53 -6
0 -11 8 -11 18 0 14 -2 15 -9 3 -8 -12 -12 -9 -21 15 -29 71 -54 124 -57 120
-2 -2 1 -16 7 -32 l10 -29 -23 30 c-12 16 -37 45 -56 63 -18 18 -32 34 -30 35
2 1 25 12 51 24 86 41 135 135 121 238 l-7 60 -7 -81 c-7 -93 -30 -140 -83
-173 -36 -23 -91 -28 -102 -10 -3 6 -1 15 6 19 24 15 -52 43 -126 48 -62 4
-80 1 -128 -21 -30 -14 -71 -38 -90 -53 -31 -25 -34 -30 -21 -44 17 -19 10
-30 -19 -30 -36 -1 -59 -27 -67 -77 -15 -93 -11 -120 22 -155 23 -26 28 -28
19 -10 -21 43 -3 34 51 -22 51 -54 54 -56 62 -34 8 23 9 23 23 3 9 -11 18 -32
21 -47 6 -32 18 -36 32 -10 9 15 12 15 21 2 5 -8 10 -24 10 -35 1 -18 3 -17
25 8 23 26 25 26 35 8 5 -11 10 -29 10 -40 0 -30 18 -26 38 9 21 37 29 37 44
4 l12 -25 17 23 c18 23 18 23 33 3 8 -11 24 -39 36 -63 17 -34 25 -41 35 -32
11 9 25 1 62 -37 27 -26 73 -69 101 -95 41 -37 52 -53 52 -77 l0 -30 -37 22
c-21 12 -46 32 -56 45 -33 40 -136 103 -251 152 -152 65 -171 70 -331 80 -150
10 -182 17 -345 76 l-105 39 -175 -1 c-109 -1 -197 -7 -235 -15 l-60 -14 -10
-62 -10 -61 -32 13 c-21 9 -39 28 -52 54 l-19 41 36 35 c24 23 44 34 56 31 10
-3 31 1 45 8 14 7 54 19 88 26 66 13 75 20 102 72 19 38 47 52 38 19 -3 -13 2
-30 14 -44 18 -20 20 -21 29 -4 16 25 30 21 30 -8 0 -27 17 -34 26 -10 9 23
23 18 35 -12 l11 -28 12 30 c7 17 20 36 29 44 15 12 17 10 17 -15 0 -34 19
-66 26 -47 9 21 45 63 55 63 5 0 9 -16 9 -35 0 -36 12 -46 27 -22 4 7 47 32
94 55 49 24 95 55 106 71 25 33 42 121 23 121 -7 0 -10 7 -6 17 4 10 -2 25
-15 39 -12 13 -19 30 -16 38 8 20 -72 69 -148 91 -57 16 -95 38 -95 57 0 14
50 9 88 -11 20 -10 51 -22 68 -25 17 -4 42 -18 54 -32 25 -25 50 -32 50 -12 0
22 -52 79 -92 99 -22 11 -67 25 -100 30 -50 8 -65 7 -84 -6 -14 -9 -22 -21
-18 -26 3 -6 -8 -3 -25 5 -82 43 -91 168 -19 267 l30 42 -31 -22 c-17 -12 -42
-42 -56 -65 -46 -78 -29 -151 55 -232 l51 -49 -33 -5 c-24 -4 -42 -18 -72 -57
-54 -68 -66 -67 -27 2 17 30 27 55 23 55 -11 0 -95 -62 -134 -98 l-28 -26 0
42 c0 23 -4 42 -9 42 -4 0 -29 -16 -54 -35 -25 -19 -48 -35 -52 -35 -3 0 2 15
11 33 l17 32 -24 -20 c-33 -28 -40 -38 -28 -46 6 -3 -6 -19 -26 -35 -20 -16
-52 -45 -71 -63 -37 -38 -42 -32 -19 23 20 46 13 46 -17 -1 l-23 -38 -5 43 -5
43 -32 -31 c-32 -32 -43 -27 -23 10 9 17 7 18 -20 10 -17 -5 -30 -6 -30 -4 0
29 172 179 350 305 64 46 173 149 165 157 -7 7 -146 -68 -225 -122 -227 -155
-397 -319 -488 -472 -45 -76 -52 -94 -47 -124 3 -19 7 -75 8 -125 1 -76 -1
-94 -18 -117 -11 -15 -25 -26 -31 -24 -11 4 -94 -95 -94 -113 0 -6 -4 -11 -8
-11 -13 0 -5 181 8 215 17 41 13 260 -6 349 -9 45 -13 89 -8 121 l6 50 -21
-19 -21 -19 15 36 c29 69 15 62 -26 -13 -22 -41 -49 -84 -60 -95 -19 -19 -19
-19 -19 9 0 28 -1 28 -37 -20 -42 -56 -53 -66 -70 -59 -13 4 -73 -83 -73 -107
0 -27 -47 -152 -86 -228 -34 -66 -39 -72 -42 -47 -2 15 8 67 22 115 33 111 33
143 0 80 -13 -27 -29 -48 -35 -48 -6 0 -5 8 2 22 9 16 9 23 0 26 -20 7 -11 75
19 147 17 38 30 71 30 73 0 3 -12 -3 -26 -13 -29 -19 -39 -15 -30 13 8 25 110
132 126 132 6 0 -4 -28 -23 -63 -47 -83 -36 -104 21 -43 23 25 43 54 43 63 5
62 9 83 23 121 8 23 13 42 11 42 -2 0 -14 -17 -26 -37 -34 -54 -34 -27 0 60
16 43 26 77 23 77 -4 -1 -25 -23 -46 -50 -22 -28 -43 -50 -48 -50 -10 0 26 74
53 109 11 13 19 29 19 35 0 6 -9 -2 -20 -19 -11 -16 -20 -23 -20 -15 0 8 9 26
20 40 11 14 20 34 20 44 0 18 -1 18 -18 3 -28 -26 -36 -20 -13 9 20 25 61 124
61 146 0 6 -11 1 -25 -12 -29 -27 -30 -22 -11 46 8 27 17 78 21 114 3 35 22
125 40 200 46 181 218 671 259 735 18 27 77 90 130 139 72 66 105 104 127 149
26 50 28 59 12 52 -54 -22 -57 -17 -15 25 48 48 53 65 17 56 -14 -4 -25 -3
-25 1 0 5 18 35 40 68 22 33 40 63 40 68 0 5 -16 -1 -36 -13 -19 -12 -37 -20
-40 -17 -8 8 19 47 32 47 6 0 19 10 30 21 19 22 19 22 -3 10 -41 -21 -47 -11
-12 25 24 26 28 33 12 25 -41 -21 -47 -11 -13 20 19 17 29 28 23 24 -20 -10
-15 2 13 30 33 33 26 40 -21 25 -20 -7 -39 -9 -42 -6 -3 3 20 33 51 66 55 61
70 96 41 102 -10 2 10 35 65 110 85 115 82 113 213 144 41 10 41 19 -4 39 -46
21 -46 35 2 52 42 16 102 10 229 -22 169 -42 163 -43 100 16 -52 47 -53 50
-25 44 17 -3 68 -22 115 -42z m2089 17 c25 -1 25 -1 7 -15 -10 -8 -82 -35
-160 -61 -78 -26 -162 -57 -188 -70 -52 -26 -58 -28 -58 -16 0 11 122 107 161
128 43 22 148 44 183 39 16 -3 40 -5 55 -5z m-2849 -59 c0 -5 -14 -14 -31 -21
-39 -16 -149 -120 -149 -141 0 -11 9 -14 35 -11 43 5 45 -8 7 -46 -15 -15 -23
-24 -18 -19 6 4 17 7 25 7 9 0 -5 -21 -34 -51 l-50 -51 52 26 c68 34 73 33 37
-6 -46 -50 -97 -118 -87 -118 4 0 28 14 53 30 71 47 100 36 36 -14 -19 -14
-45 -40 -57 -57 l-22 -31 42 22 c24 12 51 20 62 18 16 -2 7 -16 -51 -75 -38
-40 -70 -77 -70 -82 0 -6 22 -2 50 9 93 37 96 26 17 -50 l-72 -70 45 19 c24
11 46 18 49 16 2 -3 -21 -31 -50 -63 -30 -32 -63 -74 -73 -93 l-20 -34 33 28
c37 31 91 61 97 54 3 -2 -23 -28 -56 -57 -33 -29 -59 -54 -57 -56 2 -2 26 3
53 11 58 18 54 17 54 7 0 -4 -20 -18 -45 -30 -95 -46 -190 -159 -263 -312 -22
-47 -48 -94 -57 -105 -16 -20 -16 -19 -10 5 18 69 18 67 -4 41 -12 -12 -18
-28 -14 -35 3 -6 3 -8 -2 -4 -4 4 -14 3 -22 -3 -24 -21 -15 21 12 53 14 17 33
44 42 62 l16 31 -31 -32 c-37 -41 -61 -44 -34 -5 34 50 37 56 19 49 -11 -4
-17 -1 -17 9 0 23 48 134 125 289 39 77 72 145 74 150 9 22 -33 -22 -62 -64
-40 -60 -97 -124 -97 -110 0 19 60 192 73 209 6 8 -4 2 -22 -15 -33 -30 -33
-30 -26 -5 4 14 19 45 33 70 29 51 29 56 0 52 -15 -3 -18 0 -12 10 28 45 73
109 102 146 37 46 36 51 -6 25 -16 -10 -2 10 33 47 57 59 57 68 3 45 -33 -13
-18 12 36 64 l55 51 -30 0 -30 0 18 31 c31 53 157 148 233 175 42 16 60 17 60
5z m2972 -74 c64 -29 118 -74 159 -133 16 -23 29 -45 29 -48 0 -3 -17 6 -37
20 -68 47 -187 101 -247 114 -64 13 -191 1 -253 -25 -82 -34 -5 36 87 80 49
23 64 26 132 22 53 -4 94 -13 130 -30z m-3012 -2 c0 -2 -10 -10 -22 -16 -21
-11 -22 -11 -9 4 13 16 31 23 31 12z m1780 -10 c0 -7 -101 -57 -106 -52 -4 4
86 56 99 57 4 0 7 -2 7 -5z m1357 -211 c24 -13 47 -33 53 -43 9 -18 8 -18 -33
-2 -58 22 -148 81 -141 92 6 10 59 -10 121 -47z m-222 -15 c85 -22 117 -40
183 -103 65 -62 50 -73 -22 -14 -78 64 -203 118 -273 118 -35 0 -44 3 -33 10
23 15 58 12 145 -11z m242 -255 c18 -32 33 -61 33 -64 0 -3 -11 -10 -25 -17
-20 -9 -25 -8 -25 3 0 8 -23 58 -51 112 l-52 97 44 -36 c23 -20 58 -62 76 -95z
m331 -535 c20 -51 26 -88 30 -186 4 -102 2 -123 -10 -123 -8 0 -19 5 -26 12
-9 9 -12 -9 -12 -82 0 -92 0 -93 -20 -75 -20 18 -20 17 -20 -88 0 -58 -4 -108
-10 -112 -5 -3 -16 16 -24 42 -8 26 -15 39 -16 28 -2 -53 -22 -266 -29 -315
-7 -51 -8 -53 -18 -30 -7 14 -16 59 -22 100 -9 67 -9 59 -6 -73 3 -94 1 -146
-5 -142 -6 3 -10 23 -11 43 0 20 -4 46 -8 57 -7 17 -9 15 -17 -15 -8 -33 -9
-32 -15 30 -3 36 -9 112 -14 170 -8 111 -26 187 -69 284 -33 73 -35 97 -6 71
24 -22 26 -13 4 20 -15 23 -15 25 1 31 11 5 26 -4 46 -27 l29 -34 -7 45 c-3
25 -19 82 -35 127 -15 46 -28 91 -28 100 1 26 40 -24 98 -121 53 -90 64 -83
33 19 -24 77 -24 75 -12 75 13 0 49 -60 78 -129 l24 -56 -5 83 c-5 83 2 100
32 70 6 -6 15 -9 18 -5 8 8 -6 60 -44 164 -30 80 -30 111 0 75 24 -29 49 -72
63 -110 l14 -37 0 40 c0 22 -6 64 -13 93 -20 75 1 63 32 -19z m-3954 -300 c-2
-34 -22 -79 -35 -79 -4 0 -3 15 3 33 5 17 12 42 15 55 8 33 19 27 17 -9z m-4
-80 c-7 -11 -9 -27 -6 -36 7 -16 -29 -107 -49 -123 -11 -9 -12 -3 -8 32 6 48
49 148 64 148 6 0 5 -9 -1 -21z m-148 -21 c9 -7 24 -40 33 -73 9 -33 21 -65
27 -72 6 -7 4 -37 -6 -85 -8 -40 -20 -109 -26 -153 -6 -48 -22 -105 -40 -144
-23 -48 -30 -78 -30 -125 0 -44 -10 -89 -36 -161 -19 -55 -40 -126 -45 -157
-5 -31 -22 -84 -38 -118 -16 -34 -37 -101 -47 -151 -10 -49 -23 -89 -29 -89
-20 0 -55 31 -71 63 -10 18 -17 55 -17 86 0 44 8 69 46 142 59 112 67 161 67
414 0 215 -3 191 75 480 32 118 39 133 68 145 31 13 51 12 69 -2z m3843 -798
c-8 -16 -20 -30 -26 -30 -13 0 -7 58 19 170 l17 75 3 -92 c2 -69 -1 -100 -13
-123z m148 -77 c25 -29 29 -66 13 -124 -8 -30 -17 -97 -21 -149 -9 -132 -43
-235 -134 -418 -43 -86 -82 -173 -86 -192 -5 -19 -9 -91 -10 -160 -1 -131 -9
-164 -53 -203 -22 -20 -79 -39 -86 -29 -5 8 27 320 45 432 12 83 23 110 43
110 8 0 16 8 19 18 2 9 8 26 12 37 6 16 3 15 -14 -5 l-21 -25 0 30 c0 45 57
331 80 400 11 33 25 93 31 132 11 72 11 73 67 118 61 48 90 55 115 28z m-2460
-514 c-23 -39 -39 -52 -53 -44 -8 5 0 19 21 41 41 42 56 44 32 3z m-355 -21
c-9 -13 -28 -25 -44 -29 -16 -3 -39 -11 -51 -18 -29 -15 -29 -1 0 27 25 23 62
40 91 41 17 1 17 -1 4 -21z m185 -3 c4 -8 2 -17 -3 -20 -6 -4 -10 3 -10 14 0
25 6 27 13 6z m-587 -107 c-14 -24 -30 -43 -36 -43 -6 0 -31 -22 -56 -50 -25
-27 -43 -42 -42 -33 4 20 135 168 149 168 6 0 -1 -19 -15 -42z m1374 -2 c14
-24 19 -43 14 -61 -8 -34 -18 -22 -33 37 -17 72 -14 76 19 24z m-1960 -10 c0
-14 -5 -37 -11 -53 -12 -32 -59 -84 -69 -78 -4 3 -13 -2 -20 -10 -16 -20 -40
-19 -40 1 0 9 10 30 22 47 19 28 16 27 -26 -11 -55 -50 -71 -49 -32 3 31 40
71 69 84 61 5 -3 24 10 42 29 40 41 50 43 50 11z m660 -15 c-19 -16 -37 -27
-40 -24 -6 6 51 53 65 53 6 0 -6 -14 -25 -29z m1192 14 c13 -18 9 -37 -6 -32
-9 4 -18 -2 -22 -15 -5 -16 -8 -18 -15 -7 -5 8 -9 26 -9 41 0 22 4 26 23 25
12 0 25 -6 29 -12z m-112 -37 c-1 -28 -2 -30 -11 -15 -6 10 -8 25 -5 33 9 24
16 16 16 -18z m437 -83 c16 -11 22 -12 26 -2 3 8 12 3 26 -13 30 -35 63 -99
58 -113 -2 -7 -13 6 -24 28 -12 22 -30 49 -42 59 -21 19 -21 19 -21 -17 0 -21
-2 -37 -5 -37 -7 0 -54 50 -64 69 -7 12 -6 22 1 29 15 15 19 15 45 -3z m-2098
-157 c-9 -51 -25 -111 -34 -133 -35 -86 -119 -255 -127 -255 -11 0 -10 6 12
85 23 79 28 155 8 120 -32 -57 -60 -96 -64 -92 -3 3 6 32 20 66 14 33 26 66
26 73 -1 13 -39 -25 -73 -72 l-18 -25 5 48 c12 100 57 214 92 232 12 6 28 16
36 23 12 10 14 1 12 -60 l-2 -72 23 40 c38 64 85 125 94 120 4 -3 0 -47 -10
-98z m1061 75 c30 -3 62 -11 70 -18 8 -8 44 -17 80 -21 36 -4 90 -18 120 -31
39 -17 81 -26 145 -30 49 -3 105 -11 124 -19 18 -8 59 -14 90 -14 31 -1 67 -7
81 -15 14 -8 44 -14 66 -15 32 0 56 -10 103 -41 33 -22 61 -46 62 -52 1 -7 0
-27 -1 -45 l-2 -34 27 18 c36 24 49 8 41 -50 -11 -74 -69 -124 -94 -81 -7 14
-11 13 -27 -5 -23 -26 -55 -26 -62 0 -7 25 -8 25 -44 -1 -37 -26 -54 -20 -76
26 -17 36 -27 43 -38 25 -3 -5 -28 -10 -55 -10 -37 0 -54 5 -68 21 -17 17 -20
18 -25 5 -12 -30 -162 -11 -198 25 -15 15 -23 17 -42 8 -44 -20 -185 17 -194
51 -4 15 -8 17 -22 8 -26 -16 -84 -2 -110 26 l-23 24 -34 -20 c-40 -24 -60
-19 -75 18 -7 21 -13 24 -21 16 -18 -18 -56 -14 -68 7 -6 12 -17 17 -29 14
-28 -7 -51 33 -51 88 0 32 5 49 15 53 8 3 15 12 15 20 0 28 30 46 78 47 26 1
58 5 72 10 14 4 45 6 70 3 25 -3 70 -8 100 -11z m-570 -43 c9 -11 32 -58 50
-104 20 -52 37 -83 44 -80 7 3 33 -33 61 -83 110 -198 251 -360 363 -417 26
-13 101 -45 167 -71 114 -46 126 -49 235 -53 155 -5 235 12 375 82 61 31 152
87 204 127 52 39 108 77 125 84 37 16 146 127 146 149 0 23 27 20 35 -4 3 -11
13 -20 21 -20 21 0 18 -69 -7 -143 -20 -60 -22 -116 -4 -161 7 -16 6 -17 -14
-7 -12 7 -26 9 -31 6 -15 -9 -12 -101 5 -141 14 -34 14 -35 -8 -32 -16 2 -22
-2 -22 -17 0 -12 -8 -22 -20 -25 -12 -4 -21 -16 -23 -30 -5 -40 35 -150 62
-171 28 -22 68 -112 64 -142 -2 -17 -14 -3 -51 58 -50 84 -117 168 -117 148 0
-6 5 -15 10 -18 17 -11 11 -24 -10 -20 -26 5 -25 -5 5 -49 32 -47 31 -50 -5
-31 -35 18 -86 20 -96 3 -5 -8 -2 -9 9 -5 11 4 23 -3 37 -20 25 -33 19 -41
-15 -19 l-26 17 7 -46 7 -47 -31 16 c-17 9 -34 16 -37 16 -4 0 -5 -23 -4 -51
2 -34 -2 -53 -10 -59 -10 -5 -12 -21 -9 -51 4 -35 15 -54 49 -89 58 -59 107
-154 121 -232 l12 -63 7 40 c14 70 9 158 -11 243 -23 96 -24 102 -10 102 6 0
27 -34 47 -75 33 -70 35 -82 31 -143 -5 -63 -45 -212 -57 -212 -9 0 -31 52
-31 72 0 36 -17 17 -34 -39 -21 -68 -96 -204 -108 -197 -4 3 -8 29 -9 57 -1
29 -4 63 -9 77 -7 24 -8 24 -25 -15 -22 -50 -68 -124 -77 -125 -5 0 -8 15 -8
33 0 52 -16 65 -24 19 -9 -60 -91 -170 -111 -150 -4 3 1 21 11 39 34 66 37
108 6 77 -9 -9 -12 -7 -12 11 0 18 -21 1 -105 -83 -58 -59 -109 -106 -115
-106 -12 0 -3 62 20 130 10 30 32 100 50 155 38 114 49 134 51 84 1 -18 5 -47
10 -64 5 -19 7 4 4 68 -6 130 14 127 45 -8 11 -46 23 -64 43 -65 4 0 7 19 7
43 0 24 11 81 25 128 13 46 25 99 25 117 0 31 9 40 24 25 4 -5 13 -8 19 -8 15
0 40 -52 63 -127 10 -32 21 -58 25 -58 13 0 21 59 15 117 l-6 58 24 -50 c14
-27 28 -59 32 -70 7 -19 7 -19 12 -1 7 31 -18 138 -43 184 -25 45 -18 55 15
22 23 -23 27 -13 5 16 -8 10 -15 27 -15 37 0 25 -28 77 -41 77 -7 0 -9 -17 -4
-50 8 -57 -2 -64 -29 -18 l-19 31 -18 -44 c-10 -24 -18 -55 -19 -69 l-1 -25
-21 28 -20 28 -35 -51 c-35 -52 -53 -57 -53 -14 0 37 -13 29 -40 -23 -24 -48
-24 -48 -28 -18 -4 30 -22 61 -22 37 0 -6 -22 -34 -50 -62 l-50 -50 0 53 c0
30 -3 57 -6 60 -4 4 -20 -14 -36 -38 -31 -46 -113 -125 -131 -125 -5 0 -6 10
-3 23 15 54 19 147 6 162 -12 14 -16 13 -42 -11 -15 -15 -28 -33 -28 -38 -1
-6 -10 -22 -21 -36 -20 -23 -22 -24 -34 -7 -8 12 -15 14 -20 7 -3 -5 -10 -8
-15 -5 -5 3 -26 -18 -47 -46 -40 -56 -51 -53 -34 8 6 21 11 52 10 68 0 25 -3
22 -13 -18 -19 -68 -32 -77 -40 -27 -4 23 -13 57 -21 76 -12 30 -17 33 -33 25
-10 -5 -27 -28 -37 -50 -22 -51 -35 -52 -35 -5 0 31 -2 35 -15 24 -13 -11 -15
-8 -16 16 -1 24 -2 25 -6 7 -7 -35 -18 -27 -41 28 -14 32 -29 53 -42 56 -17 5
-18 8 -8 21 10 12 10 16 0 19 -6 3 -9 10 -5 16 4 7 8 17 9 23 3 16 -43 -7 -51
-26 -12 -31 -30 -60 -36 -60 -4 0 -10 27 -14 60 -4 33 -10 60 -13 60 -3 0 -18
-11 -32 -25 l-27 -26 -13 76 c-7 41 -17 75 -22 75 -4 0 -26 -11 -48 -25 -22
-14 -42 -25 -45 -25 -10 0 -5 52 10 87 16 38 13 52 -7 36 -20 -16 -48 -23 -48
-13 0 5 9 12 21 15 11 4 18 9 15 12 -8 9 -76 -18 -77 -30 0 -8 -2 -8 -6 1 -2
6 -12 12 -21 13 -12 0 -11 3 5 9 14 6 21 15 17 24 -3 8 -1 17 5 21 15 9 14 28
-1 19 -7 -4 -5 2 5 13 23 27 22 40 -3 18 -24 -22 -27 -9 -4 16 21 24 10 43
-17 28 -32 -17 -33 -4 -4 46 15 25 25 48 22 52 -3 3 -20 0 -38 -6 -41 -14 -48
-7 -23 22 47 52 69 105 39 93 -42 -17 -47 -16 -17 3 41 26 42 42 1 34 -29 -6
-30 -5 -18 15 17 26 7 37 -20 23 -19 -11 -21 -9 -19 15 2 14 13 37 25 50 31
33 29 36 -14 28 l-38 -7 19 22 c31 34 10 24 -68 -33 -70 -52 -89 -81 -78 -114
2 -7 15 -12 28 -12 34 0 30 -14 -11 -33 -19 -9 -41 -30 -49 -46 l-16 -30 32
10 c46 13 46 3 -1 -20 -35 -18 -102 -91 -114 -124 -2 -7 -7 -10 -10 -6 -12 10
29 124 77 213 36 68 44 91 34 98 -13 8 -18 3 -125 -121 -29 -33 -54 -57 -57
-53 -6 11 86 147 132 195 48 50 145 104 202 113 47 7 80 28 80 51 0 24 -27 25
-87 5 -67 -22 -143 -36 -143 -25 0 11 155 93 174 93 20 0 56 35 56 55 0 17
-16 15 -103 -12 -26 -9 -50 -13 -53 -10 -7 6 66 63 93 71 22 7 73 79 93 131 6
16 18 76 26 133 18 132 22 139 54 102z m-134 -66 c-3 -9 -6 -23 -6 -32 0 -22
-17 -48 -25 -40 -9 9 16 88 28 88 5 0 6 -7 3 -16z m1995 -45 c11 -5 29 -25 39
-42 11 -18 20 -26 20 -19 0 17 20 15 42 -5 15 -14 27 -83 14 -83 -2 0 -27 23
-55 51 -36 36 -51 46 -51 33 0 -26 -13 -8 -26 37 -13 43 -12 44 17 28z m-2641
-11 c0 -2 -11 -36 -25 -76 -26 -77 -34 -125 -10 -59 15 41 54 101 62 94 2 -3
-13 -39 -33 -80 -30 -60 -41 -74 -51 -65 -20 17 -6 126 21 160 17 22 36 36 36
26z m680 -16 c0 -10 -7 -27 -15 -38 -13 -17 -13 -15 -3 19 12 41 18 47 18 19z
m1801 -183 c16 -11 29 -26 29 -33 0 -29 -51 -51 -81 -35 -14 7 -15 14 -6 49
13 46 18 48 58 19z m1011 -23 c4 -38 -7 -80 -19 -73 -10 7 -3 107 7 107 4 0
10 -15 12 -34z m-2879 9 c-3 -9 -8 -14 -10 -11 -3 3 -2 9 2 15 9 16 15 13 8
-4z m570 -26 c11 -7 62 -12 112 -13 106 -2 155 -21 236 -94 49 -44 52 -45 82
-33 51 21 265 26 323 8 27 -8 65 -18 85 -21 45 -8 60 -24 69 -77 9 -49 0 -60
-93 -107 l-64 -33 -158 0 c-159 0 -217 8 -310 41 -118 42 -182 73 -206 100
-15 15 -33 32 -41 36 -9 5 -34 31 -57 57 -32 38 -41 56 -41 86 0 35 14 61 33
61 4 0 18 -5 30 -11z m1249 -43 c21 13 1 -20 -20 -34 -20 -13 -22 -13 -22 5 0
22 23 49 28 33 2 -5 8 -7 14 -4z m-1792 -30 c0 -2 -8 -10 -17 -17 -16 -13 -17
-12 -4 4 13 16 21 21 21 13z m2116 -163 c-10 -10 -19 5 -10 18 6 11 8 11 12 0
2 -7 1 -15 -2 -18z m-1240 -137 c32 -24 10 -28 -37 -7 -43 19 -43 20 -13 20
16 1 39 -5 50 -13z m1114 1 c0 -2 18 -55 40 -120 22 -64 40 -123 40 -132 0
-18 -16 -20 -23 -2 -3 7 -6 4 -6 -6 -2 -32 -23 -13 -61 54 l-37 65 29 -4 c24
-4 28 -1 28 20 0 14 -7 47 -15 74 -18 59 -17 54 -5 54 6 0 10 -1 10 -3z
m-2449 -66 c-12 -22 -21 -56 -21 -76 0 -22 -4 -34 -10 -30 -5 3 -10 16 -10 29
0 31 -18 46 -57 46 -18 0 -33 5 -33 11 0 8 13 9 38 5 34 -5 42 -2 72 29 19 19
35 33 38 31 2 -2 -6 -22 -17 -45z m1578 40 c14 -4 26 -12 29 -19 3 -9 -21 -12
-91 -12 -104 0 -127 5 -127 26 0 11 18 14 83 13 45 -1 93 -4 106 -8z m99 -3
c-5 -15 -48 -24 -48 -10 0 14 12 22 33 22 10 0 17 -5 15 -12z m1180 -117 c26
-102 28 -141 8 -141 -15 0 -45 72 -57 134 -7 38 5 96 20 96 4 0 17 -40 29 -89z
m-3144 43 c8 -29 7 -29 -74 -124 -126 -147 -241 -321 -322 -488 -52 -108 -108
-263 -108 -296 0 -6 27 39 60 99 60 110 69 120 50 55 -22 -76 -32 -301 -20
-440 14 -169 28 -232 80 -362 l42 -104 -35 -51 c-19 -29 -43 -76 -53 -105
l-17 -52 -29 34 c-43 50 -149 275 -197 417 -43 125 -71 248 -71 311 0 63 -8
30 -31 -123 -17 -114 -23 -188 -21 -308 1 -87 -2 -155 -7 -153 -17 11 38 -115
136 -315 l102 -206 -22 -101 c-13 -56 -25 -104 -29 -107 -3 -3 -28 29 -55 72
-187 295 -351 609 -400 768 -25 82 -28 103 -27 240 1 129 4 164 27 250 49 182
142 346 280 492 145 153 323 293 263 208 -18 -26 -68 -146 -63 -151 4 -4 71
92 188 266 31 47 90 117 130 154 72 67 183 146 205 146 7 0 15 -12 18 -26z
m3611 -117 c179 -229 288 -502 310 -772 4 -44 11 -98 17 -120 l10 -39 18 24
c10 13 26 50 36 82 9 32 22 58 28 58 20 -1 90 -55 105 -81 21 -39 8 -81 -70
-224 -62 -114 -152 -299 -196 -405 -12 -27 15 -4 124 106 152 155 322 306 335
298 15 -10 8 -160 -11 -235 -48 -186 -202 -433 -423 -676 -21 -24 -38 -45 -38
-49 0 -9 106 53 180 105 36 25 107 86 158 135 50 49 92 86 92 82 0 -4 -12 -28
-27 -54 -50 -85 -4 -32 83 96 88 130 181 307 207 397 8 28 20 79 26 115 6 36
16 89 23 118 11 48 10 63 -10 135 -12 45 -26 97 -31 115 -26 95 -137 217 -386
425 -164 137 -247 208 -330 281 l-30 27 50 -28 c97 -56 119 -69 241 -145 136
-84 302 -202 376 -268 75 -66 230 -305 258 -398 l8 -27 1 25 c2 49 -30 145
-65 198 -19 28 -30 52 -25 52 15 0 160 -161 188 -209 37 -62 43 -165 15 -258
-41 -132 -209 -431 -342 -608 -43 -58 -78 -94 -85 -91 -8 3 -34 -23 -63 -62
-151 -202 -398 -430 -652 -604 -356 -243 -801 -431 -1130 -477 -256 -36 -641
-37 -915 -2 -88 12 -179 21 -202 21 -24 0 -43 4 -43 9 0 5 16 23 35 40 38 33
84 48 245 79 58 11 119 26 135 32 l30 12 -25 10 c-14 5 -55 7 -92 4 -38 -3
-68 -4 -68 -1 0 10 157 110 224 142 56 27 64 33 39 30 -40 -4 -42 5 -5 28 93
61 451 322 523 382 202 170 324 329 653 853 49 78 144 267 167 333 7 20 16 37
20 37 14 0 34 -194 33 -330 -1 -137 -25 -356 -46 -409 -15 -40 -1 -35 28 11
114 178 185 494 170 753 -13 220 -27 296 -87 485 l-30 96 26 47 c15 26 30 49
35 52 24 15 121 -107 170 -212 13 -29 27 -53 32 -53 28 0 -11 186 -71 335
l-50 123 21 51 c12 28 24 51 27 50 4 0 24 -23 46 -52z m-3036 -36 c-49 -44
-65 -51 -49 -21 11 21 81 72 88 65 3 -3 -15 -23 -39 -44z m-534 -38 c-26 -67
-72 -220 -101 -340 -33 -135 -34 -149 -34 -330 0 -203 -1 -198 73 -470 48
-173 98 -276 288 -583 42 -69 134 -239 203 -377 111 -220 140 -268 239 -399
109 -145 267 -368 267 -378 0 -6 -21 -9 -185 -30 -181 -23 -361 -29 -547 -17
-146 9 -175 14 -221 36 -57 26 -107 66 -107 85 0 24 36 20 128 -15 85 -33 112
-38 222 -45 69 -4 126 -6 128 -5 5 4 -61 14 -164 24 -105 11 -160 35 -314 136
-158 105 -213 176 -213 275 1 52 44 250 56 250 4 0 7 -5 7 -10 0 -6 41 -68 92
-137 140 -193 271 -315 439 -407 59 -32 149 -70 149 -62 0 2 -66 71 -147 152
-139 140 -222 245 -272 342 -36 70 -28 79 32 36 107 -78 224 -152 296 -189 41
-20 92 -48 113 -61 21 -13 41 -24 45 -24 14 0 -93 104 -262 252 -292 258 -406
378 -405 427 0 9 17 52 38 95 l38 80 61 -70 c33 -38 75 -85 92 -104 l32 -35
-35 72 c-20 39 -63 137 -96 218 -33 80 -79 183 -102 228 -87 175 -113 273
-124 487 -13 233 35 493 121 662 54 106 150 248 168 248 5 0 6 -8 2 -17z
m2953 -15 c13 -17 42 -115 42 -145 0 -44 -19 -23 -30 35 -7 31 -19 69 -26 84
-8 15 -14 29 -14 33 0 10 17 5 28 -7z m-2318 -65 c-23 -20 -46 -46 -52 -57
-11 -20 -11 -20 13 -3 70 51 115 77 133 76 20 0 20 -1 2 -12 -10 -7 -31 -23
-45 -35 l-26 -24 36 21 c20 12 39 21 42 21 3 0 -21 -26 -53 -58 -60 -60 -100
-125 -100 -163 0 -17 3 -19 13 -10 8 6 16 9 19 6 3 -3 11 3 19 12 13 17 13 17
-6 3 -19 -14 -19 -14 -6 2 7 10 17 15 22 12 5 -3 28 6 52 20 53 31 78 35 53 7
-16 -18 -16 -18 9 -13 l26 5 -31 -52 c-33 -56 -37 -69 -17 -53 17 14 127 71
127 65 0 -2 -18 -34 -40 -70 -22 -37 -40 -73 -40 -80 0 -21 38 7 83 62 73 87
67 40 -12 -89 -49 -82 -54 -98 -43 -156 l8 -45 33 62 c18 34 42 70 54 80 20
18 20 18 11 -12 -5 -16 -9 -81 -9 -143 0 -114 -7 -137 -27 -81 -8 23 -13 27
-19 17 -13 -20 -10 -98 5 -140 12 -32 11 -38 0 -38 -33 0 -87 157 -88 253 0
31 -3 54 -6 50 -18 -21 -33 -127 -27 -193 3 -38 4 -70 1 -70 -11 0 -44 95 -45
128 0 34 -1 35 -11 15 -6 -13 -15 -23 -21 -23 -12 0 -1 76 23 152 10 32 15 58
11 58 -3 0 -17 -16 -31 -36 -13 -20 -26 -31 -28 -25 -2 6 -8 9 -13 6 -5 -4 -6
1 -3 9 3 9 9 14 13 11 4 -2 18 17 30 43 l23 47 -25 -24 c-14 -13 -38 -46 -52
-75 -14 -28 -35 -62 -45 -76 l-19 -25 0 50 c0 28 0 73 0 100 l0 50 -25 -30
c-33 -39 -33 -18 -1 46 59 115 51 133 -11 24 -19 -36 -40 -65 -45 -65 -5 0 -9
20 -9 44 0 77 19 149 51 194 17 24 28 46 25 49 -3 3 -8 -2 -12 -11 -3 -9 -10
-14 -14 -11 -5 3 -23 -14 -41 -37 -34 -43 -76 -88 -84 -88 -8 0 8 63 31 128
24 67 20 76 -16 37 -34 -36 -42 -31 -34 23 8 55 24 89 53 116 30 27 36 14 12
-25 -12 -19 -21 -42 -21 -52 0 -15 3 -16 23 -6 12 6 47 33 77 58 79 68 101 81
132 81 l28 0 -40 -37z m-339 -43 c-25 -21 -41 -26 -41 -12 0 9 38 30 55 31 6
0 -1 -9 -14 -19z m-161 -145 c0 -19 104 -234 165 -340 26 -44 61 -96 79 -115
18 -19 45 -55 60 -79 15 -24 83 -100 149 -168 146 -150 255 -226 459 -320 317
-146 596 -169 958 -77 109 28 205 71 375 172 283 166 381 236 507 360 48 47
90 84 93 81 9 -9 -41 -188 -80 -289 -20 -52 -67 -150 -103 -218 -62 -116 -70
-127 -146 -188 -89 -70 -212 -135 -350 -184 -279 -97 -648 -114 -979 -45 -533
111 -1016 436 -1205 810 -53 106 -55 121 -32 347 11 111 23 218 26 236 6 32
24 45 24 17z m372 -37 c-7 -7 -12 -8 -12 -2 0 6 3 14 7 17 3 4 9 5 12 2 2 -3
-1 -11 -7 -17z m2438 -108 c0 -61 -14 -81 -26 -35 -8 31 3 95 16 95 6 0 10
-27 10 -60z m-298 -56 c18 -52 25 -234 9 -234 -33 0 -57 92 -53 203 4 101 17
110 44 31z m210 23 c-12 -13 -22 -31 -22 -40 0 -9 -4 -17 -10 -17 -5 0 -10 9
-10 20 0 11 -1 23 -1 28 -2 7 40 32 55 32 5 0 0 -10 -12 -23z m-3937 -134
c-10 -16 -24 -37 -32 -48 -7 -11 -13 -27 -13 -37 0 -27 -19 -31 -65 -13 -43
16 -44 16 -121 -15 -42 -17 -79 -28 -82 -25 -8 8 28 45 70 71 35 23 219 92
247 93 10 1 9 -5 -4 -26z m2039 -85 c-8 -29 -14 -71 -15 -93 l-1 -40 -13 30
c-19 41 -18 62 5 113 26 58 40 53 24 -10z m72 27 c-3 -9 8 -71 24 -139 17 -68
30 -130 30 -139 0 -8 9 -36 20 -62 26 -62 16 -75 -22 -28 -60 75 -82 138 -81
238 0 99 8 145 24 145 6 0 8 -7 5 -15z m144 -104 c0 -30 -33 -81 -45 -69 -10
9 26 108 37 102 4 -3 8 -18 8 -33z m650 -61 c0 -49 -18 -136 -37 -175 -13 -28
-11 -27 22 9 19 22 49 68 65 103 17 35 32 63 35 63 8 0 -6 -152 -16 -171 -10
-19 -152 -129 -168 -129 -7 0 -4 15 9 40 11 21 20 50 20 64 0 22 -10 15 -80
-55 -44 -43 -83 -79 -86 -79 -4 0 -4 14 0 30 3 17 4 30 2 30 -1 0 -29 -9 -61
-20 -32 -11 -64 -20 -72 -20 -43 0 25 50 99 72 57 17 132 93 155 158 20 57 31
63 40 20 3 -16 9 -30 13 -30 4 0 15 29 25 65 19 73 35 84 35 25z m-3140 6 c0
-8 -5 -18 -10 -21 -18 -11 -50 -83 -50 -113 0 -15 7 -37 15 -48 14 -18 16 -18
26 -1 21 35 36 19 42 -44 4 -48 0 -79 -19 -143 -38 -125 -54 -237 -53 -365 1
-112 1 -115 16 -81 66 155 96 220 102 220 4 0 12 -28 19 -62 6 -35 18 -92 26
-128 10 -43 19 -167 26 -360 13 -357 23 -499 37 -525 15 -27 15 -26 79 278 10
48 22 87 25 87 4 0 10 -37 14 -82 7 -93 40 -302 61 -393 23 -98 21 -101 -33
-64 -69 47 -244 182 -343 264 -275 227 -527 504 -703 769 -69 106 -163 292
-173 343 -9 46 9 63 151 149 135 81 595 310 650 323 62 14 95 13 95 -3z m2610
-58 c-1 -18 -39 -102 -45 -96 -7 6 28 108 37 108 4 0 8 -6 8 -12z m-83 -72
c-4 -24 -2 -58 3 -77 12 -42 4 -50 -21 -19 -30 39 -32 63 -9 103 12 20 24 37
27 37 3 0 3 -20 0 -44z m3859 -101 c116 -54 333 -177 375 -213 28 -23 31 -30
26 -70 -6 -58 -86 -218 -175 -352 -156 -234 -427 -524 -674 -722 -286 -229
-438 -330 -773 -512 -241 -132 -774 -330 -1050 -390 -16 -4 -38 -9 -47 -12
-25 -7 -23 13 8 104 17 50 37 88 57 108 18 17 106 70 197 116 226 117 289 151
403 220 96 58 147 83 147 72 0 -3 -32 -49 -71 -101 -76 -103 -160 -219 -174
-242 -10 -18 4 -10 60 33 303 230 616 540 830 822 33 43 107 135 165 204 132
156 244 299 284 363 17 27 32 44 34 37 4 -12 -14 -147 -24 -182 -3 -10 -1 -18
5 -18 16 0 134 250 170 360 17 52 46 120 64 150 27 45 38 55 58 53 24 -3 24
-3 2 7 -13 5 -23 15 -23 21 0 23 24 189 27 189 2 0 46 -20 99 -45z m-4756
-280 c161 -151 322 -258 522 -346 302 -134 560 -189 883 -189 279 0 525 46
733 136 57 25 106 43 108 41 5 -5 -128 -157 -177 -204 -64 -59 -267 -113 -505
-133 -406 -34 -1027 109 -1334 308 -79 51 -217 162 -272 219 -41 41 -55 68
-102 193 -81 215 -81 219 -5 130 35 -41 102 -111 149 -155z m-1033 -17 c-3 -8
-6 -5 -6 6 -1 11 2 17 5 13 3 -3 4 -12 1 -19z m552 -229 c12 -38 10 -43 -25
-107 -65 -115 -83 -159 -115 -275 -74 -272 -81 -302 -169 -731 -27 -131 -51
-240 -53 -242 -3 -3 -88 39 -106 52 -2 2 22 133 54 291 118 600 216 915 326
1055 l32 39 22 -21 c12 -11 27 -39 34 -61z m633 -188 c124 -75 340 -174 493
-226 92 -31 269 -82 325 -94 203 -42 503 -53 701 -25 61 8 125 14 142 12 30
-3 29 -4 -44 -54 -118 -81 -150 -95 -242 -99 -45 -3 -116 -11 -157 -19 -73
-15 -281 -73 -289 -82 -5 -5 176 2 289 11 65 5 135 -10 135 -29 0 -21 -228
-172 -349 -232 -71 -35 -135 -64 -142 -64 -8 0 -14 -5 -14 -11 0 -7 -18 -31
-39 -54 -22 -24 -61 -79 -87 -124 -31 -54 -53 -81 -65 -81 -13 0 -34 32 -77
123 -44 92 -78 145 -138 217 -179 216 -220 279 -313 479 -29 63 -86 174 -127
248 -41 73 -74 135 -74 138 0 9 7 6 72 -34z m-1210 -668 c66 -69 63 -178 -3
-142 -11 5 -24 21 -29 35 -12 31 -13 134 -2 134 5 0 20 -12 34 -27z m774 -564
c82 -39 199 -104 259 -144 61 -39 147 -96 193 -125 46 -29 82 -54 80 -55 -11
-12 -451 113 -535 152 -32 15 -81 81 -127 171 -24 47 -32 72 -22 72 2 0 70
-32 152 -71z m1432 30 c21 -8 31 -29 14 -29 -16 0 -93 -73 -108 -103 -17 -31
-25 -87 -14 -87 4 0 15 9 25 20 10 11 30 20 44 20 14 0 46 7 69 15 42 15 47
14 107 -10 35 -14 117 -37 182 -51 109 -24 130 -25 278 -20 88 4 191 10 228
14 84 9 94 4 73 -36 -18 -35 -134 -182 -144 -182 -4 0 -88 -7 -187 -15 -189
-15 -497 -20 -630 -8 l-77 6 6 51 c4 34 2 46 -4 36 -5 -8 -10 -32 -10 -54 0
-35 -2 -38 -22 -32 -13 3 -29 6 -35 6 -9 0 -14 17 -15 48 l-1 47 -6 -45 c-6
-44 -7 -45 -45 -48 l-39 -3 6 68 c11 118 49 221 120 316 34 47 69 88 77 90 18
5 75 -2 108 -14z m-469 -23 c18 -29 21 -49 21 -153 0 -84 -4 -125 -13 -138
-13 -16 -15 -14 -25 28 -7 25 -12 55 -12 67 0 23 -43 112 -71 149 -27 34 -24
50 14 66 49 21 63 18 86 -19z m1736 -3 c-18 -42 -29 -76 -68 -213 l-42 -144
-63 -11 c-35 -7 -65 -9 -67 -6 -4 7 81 306 94 329 5 9 35 25 67 38 75 28 88
29 79 7z m-2226 -43 c109 -5 206 -5 239 1 70 11 80 3 134 -109 27 -56 45 -82
54 -78 20 8 24 -6 30 -94 l6 -81 -34 3 c-27 2 -34 8 -39 33 l-7 30 -1 -27 c-1
-33 5 -32 -98 -12 -71 14 -83 20 -93 43 -20 47 -63 87 -160 148 -117 74 -169
101 -232 119 -51 16 -56 34 -10 34 15 -1 110 -5 211 -10z m648 -50 c-6 -75
-34 -125 -68 -125 -23 0 -24 3 -27 66 -3 80 20 119 70 119 l31 0 -6 -60z
M5713 9038 c-29 -32 -60 -84 -46 -75 13 8 77 97 70 97 -2 0 -13 -10 -24 -22z
M6548 9010 c-27 -17 -48 -33 -48 -36 0 -8 79 38 92 53 15 19 9 16 -44 -17z
M4603 8658 c15 -5 27 -14 27 -18 0 -9 29 -14 143 -25 68 -6 69 6 3 36 -30 13
-63 18 -121 18 -66 0 -75 -2 -52 -11z M6829 8269 c15 -6 34 -6 50 0 22 8 19 9
-24 10 -42 0 -46 -2 -26 -10z M4451 7470 c-107 -52 -171 -95 -171 -113 0 -7 4
-7 12 1 7 7 23 12 38 12 21 0 17 -5 -26 -30 -70 -41 -92 -66 -38 -44 29 12 62
15 135 12 95 -4 108 3 54 27 -30 13 86 23 160 14 83 -11 92 -13 165 -48 41
-19 81 -31 107 -31 44 0 86 -14 214 -73 l77 -35 -15 29 c-24 47 -10 43 22 -6
15 -25 29 -45 31 -45 2 0 -3 18 -11 40 l-14 39 27 -10 c15 -6 30 -16 34 -22
14 -22 8 30 -7 67 -21 49 -94 128 -112 121 -8 -3 -24 0 -35 6 -26 14 -198 55
-266 64 -28 4 -49 11 -46 16 3 5 -17 9 -45 9 -27 0 -53 5 -56 10 -3 6 1 10 9
10 31 0 15 18 -21 24 -85 14 -117 7 -222 -44z m12 -97 c-13 -2 -33 -2 -45 0
-13 2 -3 4 22 4 25 0 35 -2 23 -4z M5248 7294 c5 -11 12 -35 16 -55 4 -25 13
-38 26 -42 11 -3 20 -3 20 -1 0 12 -51 103 -61 109 -8 5 -8 2 -1 -11z M4280
7270 c-10 -7 2 -8 40 -4 30 4 57 8 59 10 10 9 -86 3 -99 -6z M4258 7233 c7 -3
16 -2 19 1 4 3 -2 6 -13 5 -11 0 -14 -3 -6 -6z M5340 7211 c-12 -17 -20 -41
-18 -54 3 -18 8 -13 26 27 26 58 23 69 -8 27z M5351 7158 c-17 -29 -31 -57
-31 -62 0 -12 34 33 54 72 29 56 10 48 -23 -10z M4146 7163 c-5 -5 76 -43 92
-43 13 0 -16 23 -45 35 -41 17 -38 17 -47 8z M6098 7109 c-37 -19 -46 -29 -93
-101 -26 -41 -23 -47 13 -22 16 11 34 14 58 9 30 -5 34 -9 28 -27 -6 -21 -5
-21 110 -15 85 4 118 2 122 -6 3 -9 36 -11 112 -9 84 3 127 -1 202 -19 52 -12
111 -24 131 -26 29 -4 50 -19 100 -69 35 -35 60 -64 56 -64 -4 0 16 -20 45
-44 58 -47 70 -50 44 -12 -18 29 -21 40 -6 31 19 -12 10 40 -16 90 -30 57
-116 173 -167 226 -27 27 -43 36 -72 37 -21 1 -47 4 -59 7 -11 2 -7 -2 9 -10
39 -19 11 -19 -51 0 -58 18 -98 20 -74 5 19 -12 5 -12 -40 0 -47 13 -236 40
-276 40 -18 0 -56 -9 -84 -20 -62 -24 -77 -26 -60 -5 20 24 9 25 -32 4z m543
-40 c11 -5 17 -14 14 -19 -3 -6 0 -8 7 -5 12 5 48 -21 122 -88 l31 -28 -41 20
c-23 11 -62 25 -87 32 -41 10 -96 49 -70 49 6 0 14 7 17 16 3 8 2 13 -3 10 -5
-3 -11 1 -15 9 -6 18 -1 19 25 4z m94 -124 l30 -14 -30 6 c-16 3 -37 9 -45 14
-27 15 11 10 45 -6z M5960 7046 c-24 -31 -40 -60 -36 -64 8 -8 72 64 82 91 12
38 -5 27 -46 -27z M4422 7044 c-29 -7 -73 -25 -96 -39 -24 -14 -51 -25 -60
-25 -12 0 -16 -5 -13 -15 11 -26 -9 -25 -97 5 -47 16 -88 25 -91 20 -3 -5 22
-21 55 -37 33 -15 60 -31 60 -35 0 -4 -12 -10 -27 -14 -73 -16 -133 -36 -133
-43 0 -5 26 -2 58 5 31 8 90 14 130 14 45 0 71 4 67 10 -11 19 42 22 76 4 35
-18 123 -44 149 -44 13 0 13 1 0 10 -21 13 64 13 155 -1 39 -6 126 -14 195
-19 69 -5 163 -17 209 -29 47 -11 88 -18 93 -15 16 10 -5 34 -40 45 -21 6 -86
33 -147 60 -146 64 -234 79 -427 72 -158 -6 -187 3 -100 31 92 29 171 39 285
34 139 -7 205 -29 294 -98 89 -68 107 -68 52 -1 -46 58 -116 91 -223 107 -119
18 -354 17 -424 -2z M5910 7047 c0 -1 -4 -17 -9 -35 -13 -44 3 -41 16 3 6 20
7 35 2 35 -5 0 -9 -1 -9 -3z M5210 6954 c0 -24 -24 -48 -58 -59 l-24 -7 24
-25 c12 -14 35 -31 50 -39 17 -9 28 -24 30 -41 l3 -27 19 28 c12 18 18 47 18
79 0 42 -4 54 -31 80 -28 29 -31 30 -31 11z M6748 6863 c7 -3 16 -2 19 1 4 3
-2 6 -13 5 -11 0 -14 -3 -6 -6z M4350 6801 c0 -6 -17 -11 -39 -11 -53 0 -61
-15 -9 -16 25 -1 68 -15 112 -38 150 -77 375 -88 609 -29 37 9 67 21 67 26 0
5 -10 7 -22 3 -13 -3 -84 -11 -158 -17 -155 -13 -311 -6 -396 17 -33 9 -75 20
-94 25 -19 4 -43 18 -52 30 -10 11 -18 16 -18 10z M6075 6733 c-22 -8 -68 -16
-102 -17 -35 0 -63 -4 -63 -8 0 -13 114 -21 189 -12 269 31 450 -13 592 -145
35 -32 61 -62 58 -66 -4 -3 -47 9 -95 28 -49 19 -136 53 -194 75 -121 47 -246
67 -358 59 -40 -3 -86 -1 -104 3 -17 5 -37 6 -45 1 -25 -13 5 -27 107 -50 52
-12 118 -31 145 -43 28 -11 117 -38 198 -59 106 -27 161 -47 194 -69 40 -27
54 -31 102 -30 79 3 80 3 92 -24 7 -14 23 -27 37 -31 29 -7 104 -56 145 -93
48 -45 29 -5 -20 43 l-48 45 31 0 c17 0 46 -5 64 -11 26 -9 34 -9 41 2 11 18
-46 37 -115 38 -40 1 -47 4 -42 17 4 11 -1 18 -14 21 -25 7 -26 30 -2 36 10 3
7 5 -10 6 -19 1 -32 9 -42 29 -24 46 -97 109 -176 151 -184 97 -453 147 -565
104z M5128 6733 c7 -3 16 -2 19 1 4 3 -2 6 -13 5 -11 0 -14 -3 -6 -6z M6946
6686 c6 -15 93 -61 101 -52 3 3 -3 9 -13 13 -10 3 -36 17 -56 30 -22 13 -35
17 -32 9z M6045 6484 c51 -41 265 -143 350 -165 44 -11 130 -24 191 -28 61 -5
118 -12 125 -16 59 -35 145 -116 180 -171 23 -35 43 -64 46 -64 15 0 -57 108
-101 150 -85 83 -131 110 -187 110 -116 0 -359 74 -517 156 -57 30 -106 54
-110 54 -4 -1 7 -12 23 -26z M7111 6494 c0 -11 3 -14 6 -6 3 7 2 16 -1 19 -3
4 -6 -2 -5 -13z M6943 6479 c-31 -9 -55 -29 -34 -29 16 0 123 29 129 35 9 8
-60 4 -95 -6z M7102 6450 c0 -14 2 -19 5 -12 2 6 2 18 0 25 -3 6 -5 1 -5 -13z
M3695 5979 c-4 -6 -5 -12 -2 -15 2 -3 7 2 10 11 7 17 1 20 -8 4z M3650 5930
c-6 -11 -8 -20 -6 -20 3 0 10 9 16 20 6 11 8 20 6 20 -3 0 -10 -9 -16 -20z
M3651 5883 c-10 -26 -10 -27 4 -9 8 11 15 23 15 28 0 15 -7 8 -19 -19z M3653
5817 c-39 -40 -63 -74 -68 -94 -4 -18 -4 -33 0 -33 21 0 73 31 87 52 16 24 51
129 45 134 -2 2 -31 -25 -64 -59z M6172 5480 c0 -8 6 -31 13 -50 7 -19 13 -28
13 -20 0 8 -6 31 -13 50 -7 19 -13 28 -13 20z M6721 5334 c0 -11 3 -14 6 -6 3
7 2 16 -1 19 -3 4 -6 -2 -5 -13z M3917 8132 c-50 -56 -64 -78 -53 -80 20 -4
20 -16 2 -32 -8 -6 -12 -18 -9 -26 5 -12 10 -11 30 8 38 35 85 107 78 118 -4
6 3 27 14 46 12 19 21 37 21 40 0 15 -23 -6 -83 -74z M3848 7764 c-20 -19 -45
-58 -57 -86 l-21 -51 21 19 c18 16 76 96 103 142 14 24 -11 11 -46 -24z M3820
7640 c-18 -23 -30 -43 -27 -46 4 -5 43 42 61 74 15 25 -3 11 -34 -28z M3880
7633 c-40 -42 -41 -44 -11 -22 30 22 70 69 59 69 -2 0 -24 -21 -48 -47z M7434
7010 c3 -14 9 -51 13 -83 6 -57 23 -90 23 -45 0 31 -26 137 -35 146 -4 4 -5
-4 -1 -18z M7512 6875 c0 -16 2 -22 5 -12 2 9 2 23 0 30 -3 6 -5 -1 -5 -18z
M7502 6820 c0 -14 2 -19 5 -12 2 6 2 18 0 25 -3 6 -5 1 -5 -13z M7531 6764 c0
-11 3 -14 6 -6 3 7 2 16 -1 19 -3 4 -6 -2 -5 -13z M3470 6938 c-13 -62 -25
-135 -27 -163 l-3 -50 30 75 c16 41 37 101 45 132 13 45 19 56 32 51 9 -4 14
-2 12 3 -3 5 -11 21 -19 37 -7 15 -21 27 -30 27 -13 0 -22 -24 -40 -112z
M7509 6136 c-38 -26 -76 -72 -103 -123 -25 -49 -7 -39 43 23 36 45 48 54 67
50 20 -5 24 -1 30 29 3 20 4 38 2 40 -2 3 -20 -6 -39 -19z M4623 5373 c-10 -3
-10 -9 0 -24 15 -24 23 -24 30 0 5 20 -9 31 -30 24z M4712 5329 c10 -29 12
-31 19 -13 4 10 8 26 8 34 -1 11 -2 11 -6 2 -4 -10 -8 -10 -19 -1 -12 9 -12 6
-2 -22z M5228 5224 c-5 -4 -8 -19 -8 -33 1 -23 2 -24 11 -8 11 19 9 53 -3 41z
M5798 5143 c-17 -4 -34 -33 -19 -33 4 0 16 9 26 20 10 11 16 19 14 19 -2 -1
-11 -3 -21 -6z M4480 4758 c0 -2 14 -48 30 -103 34 -114 38 -157 15 -149 -8 4
-15 1 -15 -5 0 -20 37 -85 59 -105 16 -14 18 -22 10 -32 -15 -19 -2 -34 29
-34 21 0 24 -2 12 -10 -11 -7 -6 -10 20 -10 l35 -1 -37 -19 c-55 -29 -56 -40
-4 -40 44 0 69 -13 44 -23 -9 -4 -10 -6 -1 -6 6 -1 15 4 18 9 9 14 22 12 28
-4 3 -7 -5 -30 -19 -49 -27 -41 -29 -54 -13 -108 13 -42 21 -42 79 0 21 16 29
19 21 8 -22 -27 -4 -33 29 -9 36 27 40 27 40 1 0 -22 14 -52 40 -86 l18 -23
23 35 c13 19 30 35 37 35 18 0 15 -14 -8 -35 -11 -10 -19 -20 -17 -22 4 -4
148 74 162 88 16 16 23 10 46 -46 12 -30 26 -55 31 -55 4 0 14 13 22 29 13 24
21 28 56 28 22 0 40 -5 40 -11 1 -6 8 3 17 19 8 17 24 38 34 48 11 10 19 30
20 45 1 23 3 21 21 -20 11 -27 24 -48 29 -48 5 0 9 29 9 65 0 37 4 65 10 65 6
0 10 -4 10 -9 0 -5 20 -16 45 -24 51 -18 53 -15 26 30 l-20 31 47 49 c65 66
182 206 177 211 -2 3 -28 -16 -57 -42 -69 -60 -168 -112 -254 -132 -53 -12
-101 -15 -207 -11 -130 4 -139 3 -152 -16 -8 -12 -16 -19 -17 -16 -2 2 -10 17
-19 33 -13 23 -34 34 -110 60 -189 63 -306 161 -383 319 -39 80 -57 111 -56
95z M5085 3780 c-3 -6 1 -7 9 -4 18 7 21 14 7 14 -6 0 -13 -4 -16 -10z M2816
3789 c-36 -79 -61 -160 -54 -180 2 -6 25 46 50 117 26 71 45 131 42 133 -2 2
-19 -29 -38 -70z M8205 3460 c3 -14 8 -49 12 -78 3 -29 9 -54 13 -57 9 -6 -7
106 -20 136 l-11 24 6 -25z M6665 2572 c-60 -82 -85 -127 -84 -151 l1 -26 8
26 c4 14 31 61 59 103 28 42 48 76 44 76 -4 0 -17 -13 -28 -28z M7135 2301
c-18 -18 -280 -155 -370 -194 -194 -84 -336 -128 -550 -171 -159 -31 -490 -86
-522 -86 -13 0 -23 -4 -23 -8 0 -11 169 -32 315 -39 304 -15 572 64 864 254
146 94 337 253 305 253 -6 0 -14 -4 -19 -9z M5960 1967 c-50 -25 -60 -33 -43
-35 26 -4 99 34 107 55 3 7 4 13 3 12 -1 0 -31 -15 -67 -32z M6599 1690 c-19
-10 -41 -25 -48 -34 -21 -25 19 -9 59 24 41 34 39 36 -11 10z M1957 3348 c-9
-23 -15 -43 -13 -45 2 -2 11 15 20 38 9 23 15 43 13 45 -2 2 -11 -15 -20 -38z
M8584 3100 c54 -22 104 -45 112 -51 8 -7 17 -9 20 -6 3 3 -5 11 -17 18 -35 18
-192 79 -204 78 -5 0 34 -18 89 -39z M8895 3000 c10 -11 20 -20 23 -20 3 0 -3
9 -13 20 -10 11 -20 20 -23 20 -3 0 3 -9 13 -20z M4371 1113 c1 -15 5 -39 9
-53 7 -20 8 -16 9 22 1 26 -3 50 -9 53 -6 4 -10 -6 -9 -22z"/>
</g>
</svg>
